G75*
G70*
%OFA0B0*%
%FSLAX24Y24*%
%IPPOS*%
%LPD*%
%AMOC8*
5,1,8,0,0,1.08239X$1,22.5*
%
%ADD10C,0.0600*%
%ADD11OC8,0.0680*%
%ADD12OC8,0.1080*%
%ADD13OC8,0.0600*%
%ADD14OC8,0.0820*%
%ADD15C,0.0820*%
D10*
X003921Y001605D02*
X004441Y001605D01*
X004441Y002605D02*
X003921Y002605D01*
X003921Y003605D02*
X004441Y003605D01*
X004441Y004605D02*
X003921Y004605D01*
X003921Y005605D02*
X004441Y005605D01*
X004441Y006605D02*
X003921Y006605D01*
X003921Y007605D02*
X004441Y007605D01*
X004441Y008605D02*
X003921Y008605D01*
X006921Y008605D02*
X007441Y008605D01*
X007441Y007605D02*
X006921Y007605D01*
X006921Y006605D02*
X007441Y006605D01*
X007441Y005605D02*
X006921Y005605D01*
X006921Y004605D02*
X007441Y004605D01*
X007441Y003605D02*
X006921Y003605D01*
X006921Y002605D02*
X007441Y002605D01*
X007441Y001605D02*
X006921Y001605D01*
D11*
X001431Y001605D03*
X002431Y001605D03*
X002431Y002605D03*
X001431Y002605D03*
X001431Y003605D03*
X002431Y003605D03*
X002431Y004605D03*
X001431Y004605D03*
X001431Y005605D03*
X002431Y005605D03*
X002431Y006605D03*
X001431Y006605D03*
X001431Y007605D03*
X002431Y007605D03*
X002431Y008605D03*
X001431Y008605D03*
D12*
X010931Y005105D03*
X010931Y002105D03*
D13*
X014681Y001105D03*
X014681Y004105D03*
D14*
X011681Y007605D03*
X010681Y007605D03*
X009681Y007605D03*
X008681Y007605D03*
X008681Y008605D03*
X009681Y008605D03*
X010681Y008605D03*
X011681Y008605D03*
D15*
X014681Y009105D03*
X014681Y008105D03*
X014681Y006605D03*
X014681Y005605D03*
M02*
