G75*
G70*
%OFA0B0*%
%FSLAX24Y24*%
%IPPOS*%
%LPD*%
%AMOC8*
5,1,8,0,0,1.08239X$1,22.5*
%
%ADD10C,0.0000*%
%ADD11C,0.0520*%
%ADD12C,0.0600*%
%ADD13C,0.1000*%
%ADD14C,0.0740*%
%ADD15C,0.0240*%
%ADD16C,0.0160*%
%ADD17C,0.0100*%
D10*
X000181Y000105D02*
X000181Y010105D01*
X015674Y010105D01*
X015674Y000105D01*
X000181Y000105D01*
D11*
X004181Y001605D03*
X004181Y002605D03*
X004181Y003605D03*
X004181Y004605D03*
X004181Y005605D03*
X004181Y006605D03*
X004181Y007605D03*
X004181Y008605D03*
X007181Y008605D03*
X007181Y007605D03*
X007181Y006605D03*
X007181Y005605D03*
X007181Y004605D03*
X007181Y003605D03*
X007181Y002605D03*
X007181Y001605D03*
X014681Y001105D03*
X014681Y004105D03*
D12*
X002431Y004605D03*
X001431Y004605D03*
X001431Y003605D03*
X002431Y003605D03*
X002431Y002605D03*
X001431Y002605D03*
X001431Y001605D03*
X002431Y001605D03*
X002431Y005605D03*
X001431Y005605D03*
X001431Y006605D03*
X002431Y006605D03*
X002431Y007605D03*
X001431Y007605D03*
X001431Y008605D03*
X002431Y008605D03*
D13*
X010931Y005105D03*
X010931Y002105D03*
D14*
X014681Y005605D03*
X014681Y006605D03*
X014681Y008105D03*
X014681Y009105D03*
X011681Y008605D03*
X010681Y008605D03*
X009681Y008605D03*
X008681Y008605D03*
X008681Y007605D03*
X009681Y007605D03*
X010681Y007605D03*
X011681Y007605D03*
D15*
X008681Y007605D02*
X008431Y007605D01*
X007931Y008105D01*
X007681Y008105D01*
X007181Y008605D01*
D16*
X008431Y007605D02*
X008431Y002605D01*
X007181Y002605D01*
X001431Y001605D02*
X000681Y002355D01*
X000681Y008855D01*
X001181Y009355D01*
X002431Y009355D01*
X002431Y008605D01*
D17*
X002681Y007105D02*
X004181Y008605D01*
X002681Y007105D02*
X001931Y007105D01*
X001431Y006605D01*
X003181Y005605D02*
X003681Y006105D01*
X006431Y006105D01*
X006431Y009355D01*
X011681Y009355D01*
X011681Y008605D01*
X011681Y007605D02*
X013181Y007605D01*
X014681Y009105D01*
X014681Y006605D02*
X011681Y006605D01*
X010681Y007605D01*
X009681Y007605D02*
X011181Y006105D01*
X012681Y006105D01*
X013181Y005605D01*
X013181Y005105D01*
X014181Y004105D01*
X014681Y004105D01*
X007181Y004605D02*
X006431Y004605D01*
X006431Y006105D01*
X004181Y005605D02*
X003681Y005605D01*
X003431Y005355D01*
X003431Y003605D01*
X002931Y003105D01*
X001931Y003105D01*
X001431Y002605D01*
X001431Y003605D02*
X001931Y004105D01*
X003181Y004105D01*
X003181Y005605D01*
M02*
