G75*
G70*
%OFA0B0*%
%FSLAX24Y24*%
%IPPOS*%
%LPD*%
%AMOC8*
5,1,8,0,0,1.08239X$1,22.5*
%
%ADD10C,0.0000*%
%ADD11C,0.0520*%
%ADD12OC8,0.0600*%
%ADD13OC8,0.1000*%
%ADD14OC8,0.0520*%
%ADD15OC8,0.0740*%
%ADD16C,0.0740*%
%ADD17C,0.0240*%
%ADD18C,0.0160*%
%ADD19C,0.0100*%
D10*
X000181Y000105D02*
X000181Y010105D01*
X015674Y010105D01*
X015674Y000105D01*
X000181Y000105D01*
D11*
X003921Y001605D02*
X004441Y001605D01*
X004441Y002605D02*
X003921Y002605D01*
X003921Y003605D02*
X004441Y003605D01*
X004441Y004605D02*
X003921Y004605D01*
X003921Y005605D02*
X004441Y005605D01*
X004441Y006605D02*
X003921Y006605D01*
X003921Y007605D02*
X004441Y007605D01*
X004441Y008605D02*
X003921Y008605D01*
X006921Y008605D02*
X007441Y008605D01*
X007441Y007605D02*
X006921Y007605D01*
X006921Y006605D02*
X007441Y006605D01*
X007441Y005605D02*
X006921Y005605D01*
X006921Y004605D02*
X007441Y004605D01*
X007441Y003605D02*
X006921Y003605D01*
X006921Y002605D02*
X007441Y002605D01*
X007441Y001605D02*
X006921Y001605D01*
D12*
X002431Y001605D03*
X001431Y001605D03*
X001431Y002605D03*
X002431Y002605D03*
X002431Y003605D03*
X001431Y003605D03*
X001431Y004605D03*
X002431Y004605D03*
X002431Y005605D03*
X001431Y005605D03*
X001431Y006605D03*
X002431Y006605D03*
X002431Y007605D03*
X001431Y007605D03*
X001431Y008605D03*
X002431Y008605D03*
D13*
X010931Y005105D03*
X010931Y002105D03*
D14*
X014681Y001105D03*
X014681Y004105D03*
D15*
X011681Y007605D03*
X010681Y007605D03*
X009681Y007605D03*
X008681Y007605D03*
X008681Y008605D03*
X009681Y008605D03*
X010681Y008605D03*
X011681Y008605D03*
D16*
X014681Y009105D03*
X014681Y008105D03*
X014681Y006605D03*
X014681Y005605D03*
D17*
X014681Y005604D01*
X014682Y005604D01*
X014682Y005015D01*
X014728Y005015D01*
X014820Y005029D01*
X014908Y005058D01*
X014991Y005100D01*
X015066Y005155D01*
X015131Y005220D01*
X015181Y005289D01*
X015181Y004420D01*
X014920Y004682D01*
X014442Y004682D01*
X014105Y004344D01*
X014105Y003866D01*
X014442Y003528D01*
X014920Y003528D01*
X015181Y003789D01*
X015181Y001420D01*
X014920Y001682D01*
X014623Y001682D01*
X013992Y002312D01*
X013992Y002313D01*
X013889Y002416D01*
X013754Y002472D01*
X011720Y002472D01*
X011270Y002922D01*
X010593Y002922D01*
X010115Y002443D01*
X010115Y001766D01*
X010593Y001288D01*
X011270Y001288D01*
X011720Y001738D01*
X013529Y001738D01*
X014105Y001163D01*
X014105Y000866D01*
X014366Y000605D01*
X000681Y000605D01*
X000681Y009605D01*
X014210Y009605D01*
X014099Y009494D01*
X013995Y009241D01*
X013995Y008968D01*
X014099Y008716D01*
X014279Y008536D01*
X014231Y008489D01*
X014177Y008414D01*
X014135Y008331D01*
X014106Y008243D01*
X014091Y008151D01*
X014091Y008105D01*
X014681Y008105D01*
X014681Y008104D01*
X014682Y008104D01*
X014682Y007515D01*
X014728Y007515D01*
X014820Y007529D01*
X014908Y007558D01*
X014991Y007600D01*
X015066Y007655D01*
X015131Y007720D01*
X015181Y007789D01*
X015181Y007076D01*
X015070Y007187D01*
X014818Y007292D01*
X014545Y007292D01*
X014292Y007187D01*
X014099Y006994D01*
X013995Y006741D01*
X013995Y006468D01*
X014099Y006216D01*
X014279Y006036D01*
X014231Y005989D01*
X014177Y005914D01*
X014135Y005831D01*
X014106Y005743D01*
X014091Y005651D01*
X014091Y005605D01*
X014681Y005605D01*
X014681Y005604D02*
X014091Y005604D01*
X014091Y005558D01*
X014106Y005467D01*
X014135Y005378D01*
X014177Y005295D01*
X014231Y005220D01*
X014297Y005155D01*
X014372Y005100D01*
X014455Y005058D01*
X014543Y005029D01*
X014635Y005015D01*
X014681Y005015D01*
X014681Y005604D01*
X014681Y005605D02*
X013681Y006605D01*
X013681Y006105D01*
X012681Y005105D01*
X010931Y005105D01*
X010931Y005104D01*
X010932Y005104D01*
X010932Y005105D01*
X011651Y005105D01*
X011651Y005403D01*
X011230Y005825D01*
X010932Y005825D01*
X010932Y005105D01*
X010931Y005105D01*
X010211Y005105D01*
X010211Y005403D01*
X010633Y005825D01*
X010931Y005825D01*
X010931Y005105D01*
X010931Y005104D02*
X010211Y005104D01*
X010211Y004806D01*
X010633Y004385D01*
X010931Y004385D01*
X010931Y005104D01*
X010932Y005104D02*
X010932Y004385D01*
X011230Y004385D01*
X011651Y004806D01*
X011651Y005104D01*
X010932Y005104D01*
X010931Y005137D02*
X010932Y005137D01*
X010931Y005376D02*
X010932Y005376D01*
X010931Y005614D02*
X010932Y005614D01*
X011440Y005614D02*
X014091Y005614D01*
X014136Y005376D02*
X011651Y005376D01*
X011651Y005137D02*
X014321Y005137D01*
X014681Y005137D02*
X014682Y005137D01*
X014681Y005376D02*
X014682Y005376D01*
X015041Y005137D02*
X015181Y005137D01*
X015181Y004899D02*
X011651Y004899D01*
X011505Y004660D02*
X014421Y004660D01*
X014182Y004421D02*
X011266Y004421D01*
X010932Y004421D02*
X010931Y004421D01*
X010931Y004660D02*
X010932Y004660D01*
X010931Y004899D02*
X010932Y004899D01*
X010596Y004421D02*
X009548Y004421D01*
X009548Y004660D02*
X010358Y004660D01*
X010211Y004899D02*
X009548Y004899D01*
X009548Y005137D02*
X010211Y005137D01*
X010211Y005376D02*
X009548Y005376D01*
X009548Y005453D02*
X010389Y006294D01*
X010492Y006397D01*
X010548Y006532D01*
X010548Y006918D01*
X010966Y006918D01*
X011181Y007133D01*
X011397Y006918D01*
X011966Y006918D01*
X012368Y007320D01*
X012368Y007889D01*
X012153Y008105D01*
X012368Y008320D01*
X012368Y008889D01*
X011966Y009292D01*
X011397Y009292D01*
X011181Y009076D01*
X010966Y009292D01*
X010397Y009292D01*
X010181Y009076D01*
X009966Y009292D01*
X009397Y009292D01*
X009113Y009007D01*
X008926Y009195D01*
X008682Y009195D01*
X008682Y008605D01*
X008681Y008605D01*
X008681Y008604D01*
X008091Y008604D01*
X008091Y008360D01*
X008279Y008173D01*
X007995Y007889D01*
X007995Y007776D01*
X007930Y007931D01*
X007768Y008094D01*
X007742Y008105D01*
X007768Y008116D01*
X007930Y008278D01*
X008018Y008490D01*
X008018Y008719D01*
X007930Y008931D01*
X007768Y009094D01*
X007556Y009182D01*
X006807Y009182D01*
X006595Y009094D01*
X006432Y008931D01*
X006345Y008719D01*
X006345Y008502D01*
X005018Y008502D01*
X005018Y008719D01*
X004930Y008931D01*
X004768Y009094D01*
X004556Y009182D01*
X003807Y009182D01*
X003595Y009094D01*
X003432Y008931D01*
X003345Y008719D01*
X003345Y008502D01*
X003096Y008502D01*
X003048Y008549D01*
X003048Y008860D01*
X002687Y009222D01*
X002176Y009222D01*
X001863Y008909D01*
X001647Y009125D01*
X001432Y009125D01*
X001432Y008605D01*
X001431Y008605D01*
X001431Y008604D01*
X000911Y008604D01*
X000911Y008389D01*
X001128Y008173D01*
X000815Y007860D01*
X000815Y007349D01*
X001059Y007105D01*
X000815Y006860D01*
X000815Y006349D01*
X001059Y006105D01*
X000815Y005860D01*
X000815Y005349D01*
X001059Y005105D01*
X000815Y004860D01*
X000815Y004349D01*
X001059Y004105D01*
X000815Y003860D01*
X000815Y003349D01*
X001059Y003105D01*
X000815Y002860D01*
X000815Y002349D01*
X001059Y002105D01*
X000815Y001860D01*
X000815Y001349D01*
X001176Y000988D01*
X001687Y000988D01*
X002000Y001301D01*
X002216Y001085D01*
X002431Y001085D01*
X002431Y001604D01*
X002432Y001604D01*
X002432Y001605D01*
X002951Y001605D01*
X002951Y001820D01*
X002667Y002105D01*
X002951Y002389D01*
X002951Y002604D01*
X002432Y002604D01*
X002432Y002605D01*
X002951Y002605D01*
X002951Y002820D01*
X002667Y003105D01*
X002951Y003389D01*
X002951Y003604D01*
X002432Y003604D01*
X002432Y003605D01*
X002951Y003605D01*
X002951Y003820D01*
X002735Y004036D01*
X003048Y004349D01*
X003048Y004860D01*
X002804Y005105D01*
X003048Y005349D01*
X003048Y005738D01*
X003352Y005738D01*
X003345Y005719D01*
X003345Y005490D01*
X003432Y005278D01*
X003595Y005116D01*
X003621Y005105D01*
X003595Y005094D01*
X003432Y004931D01*
X003345Y004719D01*
X003345Y004490D01*
X003432Y004278D01*
X003595Y004116D01*
X003621Y004105D01*
X003595Y004094D01*
X003432Y003931D01*
X003345Y003719D01*
X003345Y003490D01*
X003432Y003278D01*
X003595Y003116D01*
X003621Y003105D01*
X003595Y003094D01*
X003432Y002931D01*
X003345Y002719D01*
X003345Y002490D01*
X003432Y002278D01*
X003595Y002116D01*
X003747Y002053D01*
X003737Y002050D01*
X003670Y002015D01*
X003609Y001971D01*
X003555Y001917D01*
X003511Y001856D01*
X003477Y001789D01*
X003453Y001717D01*
X003441Y001642D01*
X003441Y001605D01*
X004181Y001605D01*
X004181Y001604D01*
X004182Y001604D01*
X004182Y001605D01*
X004921Y001605D01*
X004921Y001642D01*
X004910Y001717D01*
X004886Y001789D01*
X004852Y001856D01*
X004808Y001917D01*
X004754Y001971D01*
X004693Y002015D01*
X004626Y002050D01*
X004616Y002053D01*
X004768Y002116D01*
X004930Y002278D01*
X005018Y002490D01*
X005018Y002719D01*
X004930Y002931D01*
X004768Y003094D01*
X004742Y003105D01*
X004768Y003116D01*
X004930Y003278D01*
X005018Y003490D01*
X005018Y003719D01*
X004930Y003931D01*
X004768Y004094D01*
X004742Y004105D01*
X004768Y004116D01*
X004930Y004278D01*
X005018Y004490D01*
X005018Y004719D01*
X004930Y004931D01*
X004768Y005094D01*
X004742Y005105D01*
X004768Y005116D01*
X004930Y005278D01*
X005018Y005490D01*
X005018Y005719D01*
X005011Y005738D01*
X005754Y005738D01*
X005889Y005794D01*
X005992Y005897D01*
X006415Y006320D01*
X006432Y006278D01*
X006595Y006116D01*
X006747Y006053D01*
X006737Y006050D01*
X006670Y006015D01*
X006609Y005971D01*
X006555Y005917D01*
X006511Y005856D01*
X006477Y005789D01*
X006453Y005717D01*
X006441Y005642D01*
X006441Y005605D01*
X007181Y005605D01*
X007181Y005604D01*
X006441Y005604D01*
X006441Y005567D01*
X006453Y005492D01*
X006477Y005420D01*
X006511Y005353D01*
X006555Y005292D01*
X006609Y005239D01*
X006670Y005194D01*
X006737Y005160D01*
X006747Y005157D01*
X006595Y005094D01*
X006432Y004931D01*
X006345Y004719D01*
X006345Y004490D01*
X006432Y004278D01*
X006595Y004116D01*
X006621Y004105D01*
X006595Y004094D01*
X006432Y003931D01*
X006345Y003719D01*
X006345Y003490D01*
X006432Y003278D01*
X006595Y003116D01*
X006621Y003105D01*
X006595Y003094D01*
X006432Y002931D01*
X006345Y002719D01*
X006345Y002490D01*
X006432Y002278D01*
X006595Y002116D01*
X006621Y002105D01*
X006595Y002094D01*
X006432Y001931D01*
X006345Y001719D01*
X006345Y001490D01*
X006432Y001278D01*
X006595Y001116D01*
X006807Y001028D01*
X007556Y001028D01*
X007768Y001116D01*
X007930Y001278D01*
X008018Y001490D01*
X008018Y001719D01*
X007930Y001931D01*
X007768Y002094D01*
X007742Y002105D01*
X007768Y002116D01*
X007930Y002278D01*
X008018Y002490D01*
X008018Y002719D01*
X007930Y002931D01*
X007768Y003094D01*
X007742Y003105D01*
X007768Y003116D01*
X007890Y003238D01*
X008608Y003238D01*
X008754Y003238D01*
X008889Y003294D01*
X009389Y003794D01*
X009492Y003897D01*
X009548Y004032D01*
X009548Y005453D01*
X009710Y005614D02*
X010423Y005614D01*
X009948Y005853D02*
X014146Y005853D01*
X014224Y006091D02*
X010187Y006091D01*
X010425Y006330D02*
X014052Y006330D01*
X013995Y006568D02*
X010548Y006568D01*
X010548Y006807D02*
X014022Y006807D01*
X014151Y007045D02*
X012093Y007045D01*
X012332Y007284D02*
X014526Y007284D01*
X014543Y007529D02*
X014455Y007558D01*
X014372Y007600D01*
X014297Y007655D01*
X014231Y007720D01*
X014177Y007795D01*
X014135Y007878D01*
X014106Y007967D01*
X014091Y008058D01*
X014091Y008104D01*
X014681Y008104D01*
X014681Y007515D01*
X014635Y007515D01*
X014543Y007529D01*
X014586Y007522D02*
X012368Y007522D01*
X012368Y007761D02*
X014202Y007761D01*
X014101Y008000D02*
X012258Y008000D01*
X012286Y008238D02*
X014105Y008238D01*
X014222Y008477D02*
X012368Y008477D01*
X012368Y008715D02*
X014100Y008715D01*
X014000Y008954D02*
X012304Y008954D01*
X012065Y009192D02*
X013995Y009192D01*
X014073Y009431D02*
X000681Y009431D01*
X000681Y009192D02*
X002147Y009192D01*
X002181Y009355D02*
X001431Y008605D01*
X000911Y008605D01*
X000911Y008820D01*
X001216Y009125D01*
X001431Y009125D01*
X001431Y008605D01*
X000681Y007855D01*
X000681Y001355D01*
X001181Y000855D01*
X001681Y000855D01*
X002431Y001605D01*
X002431Y002085D01*
X002431Y002604D01*
X002432Y002604D01*
X002432Y002085D01*
X002432Y001605D01*
X002431Y001605D01*
X002431Y002605D01*
X002431Y003125D01*
X002431Y003604D01*
X002432Y003604D01*
X002432Y003125D01*
X002432Y002605D01*
X002431Y002605D01*
X002431Y003605D01*
X002431Y003467D02*
X002432Y003467D01*
X002431Y003229D02*
X002432Y003229D01*
X002431Y002990D02*
X002432Y002990D01*
X002781Y002990D02*
X003491Y002990D01*
X003482Y003229D02*
X002791Y003229D01*
X002951Y003467D02*
X003354Y003467D01*
X003345Y003706D02*
X002951Y003706D01*
X002827Y003944D02*
X003445Y003944D01*
X003527Y004183D02*
X002882Y004183D01*
X003048Y004421D02*
X003373Y004421D01*
X003345Y004660D02*
X003048Y004660D01*
X003010Y004899D02*
X003419Y004899D01*
X003573Y005137D02*
X002836Y005137D01*
X003048Y005376D02*
X003392Y005376D01*
X003345Y005614D02*
X003048Y005614D01*
X004790Y005137D02*
X006699Y005137D01*
X006499Y005376D02*
X004971Y005376D01*
X005018Y005614D02*
X006441Y005614D01*
X006509Y005853D02*
X005948Y005853D01*
X006187Y006091D02*
X006654Y006091D01*
X007182Y005605D02*
X007921Y005605D01*
X007921Y005642D01*
X007910Y005717D01*
X007886Y005789D01*
X007852Y005856D01*
X007808Y005917D01*
X007754Y005971D01*
X007693Y006015D01*
X007626Y006050D01*
X007616Y006053D01*
X007768Y006116D01*
X007890Y006238D01*
X009108Y006238D01*
X009254Y006238D01*
X009325Y006267D01*
X008870Y005813D01*
X008815Y005678D01*
X008815Y005532D01*
X008815Y004257D01*
X008529Y003972D01*
X007890Y003972D01*
X007768Y004094D01*
X007742Y004105D01*
X007768Y004116D01*
X007930Y004278D01*
X008018Y004490D01*
X008018Y004719D01*
X007930Y004931D01*
X007768Y005094D01*
X007616Y005157D01*
X007626Y005160D01*
X007693Y005194D01*
X007754Y005239D01*
X007808Y005292D01*
X007852Y005353D01*
X007886Y005420D01*
X007910Y005492D01*
X007921Y005567D01*
X007921Y005604D01*
X007182Y005604D01*
X007182Y005605D01*
X007664Y005137D02*
X008815Y005137D01*
X008815Y005376D02*
X007863Y005376D01*
X007921Y005614D02*
X008815Y005614D01*
X008911Y005853D02*
X007854Y005853D01*
X007709Y006091D02*
X009149Y006091D01*
X008815Y004899D02*
X007944Y004899D01*
X008018Y004660D02*
X008815Y004660D01*
X008815Y004421D02*
X007990Y004421D01*
X007835Y004183D02*
X008741Y004183D01*
X009301Y003706D02*
X014265Y003706D01*
X014105Y003944D02*
X009512Y003944D01*
X009548Y004183D02*
X014105Y004183D01*
X014942Y004660D02*
X015181Y004660D01*
X015180Y004421D02*
X015181Y004421D01*
X015181Y003706D02*
X015098Y003706D01*
X015181Y003467D02*
X009063Y003467D01*
X008005Y002752D02*
X010423Y002752D01*
X010185Y002513D02*
X008018Y002513D01*
X007927Y002275D02*
X010115Y002275D01*
X010115Y002036D02*
X007826Y002036D01*
X007986Y001797D02*
X010115Y001797D01*
X010322Y001559D02*
X008018Y001559D01*
X007948Y001320D02*
X010561Y001320D01*
X011302Y001320D02*
X013947Y001320D01*
X014105Y001082D02*
X007686Y001082D01*
X006676Y001082D02*
X001781Y001082D01*
X002432Y001085D02*
X002647Y001085D01*
X002951Y001389D01*
X002951Y001604D01*
X002432Y001604D01*
X002432Y001085D01*
X002431Y001320D02*
X002432Y001320D01*
X002431Y001559D02*
X002432Y001559D01*
X002431Y001605D02*
X004181Y001605D01*
X004181Y001604D02*
X003441Y001604D01*
X003441Y001567D01*
X003453Y001492D01*
X003477Y001420D01*
X003511Y001353D01*
X003555Y001292D01*
X003609Y001239D01*
X003670Y001194D01*
X003737Y001160D01*
X003809Y001137D01*
X003884Y001125D01*
X004181Y001125D01*
X004181Y001604D01*
X004182Y001604D02*
X004182Y001125D01*
X004479Y001125D01*
X004554Y001137D01*
X004626Y001160D01*
X004693Y001194D01*
X004754Y001239D01*
X004808Y001292D01*
X004852Y001353D01*
X004886Y001420D01*
X004910Y001492D01*
X004921Y001567D01*
X004921Y001604D01*
X004182Y001604D01*
X004181Y001559D02*
X004182Y001559D01*
X004181Y001320D02*
X004182Y001320D01*
X004828Y001320D02*
X006415Y001320D01*
X006345Y001559D02*
X004920Y001559D01*
X004882Y001797D02*
X006377Y001797D01*
X006537Y002036D02*
X004652Y002036D01*
X004927Y002275D02*
X006436Y002275D01*
X006345Y002513D02*
X005018Y002513D01*
X005005Y002752D02*
X006358Y002752D01*
X006491Y002990D02*
X004872Y002990D01*
X004881Y003229D02*
X006482Y003229D01*
X006354Y003467D02*
X005009Y003467D01*
X005018Y003706D02*
X006345Y003706D01*
X006445Y003944D02*
X004918Y003944D01*
X004835Y004183D02*
X006527Y004183D01*
X006373Y004421D02*
X004990Y004421D01*
X005018Y004660D02*
X006345Y004660D01*
X006419Y004899D02*
X004944Y004899D01*
X007881Y003229D02*
X015181Y003229D01*
X015181Y002990D02*
X007872Y002990D01*
X011440Y002752D02*
X015181Y002752D01*
X015181Y002513D02*
X011678Y002513D01*
X011541Y001559D02*
X013708Y001559D01*
X014269Y002036D02*
X015181Y002036D01*
X015181Y001797D02*
X014507Y001797D01*
X015043Y001559D02*
X015181Y001559D01*
X015181Y002275D02*
X014030Y002275D01*
X014127Y000843D02*
X000681Y000843D01*
X000681Y001082D02*
X001082Y001082D01*
X000843Y001320D02*
X000681Y001320D01*
X000681Y001559D02*
X000815Y001559D01*
X000815Y001797D02*
X000681Y001797D01*
X000681Y002036D02*
X000990Y002036D01*
X000889Y002275D02*
X000681Y002275D01*
X000681Y002513D02*
X000815Y002513D01*
X000815Y002752D02*
X000681Y002752D01*
X000681Y002990D02*
X000945Y002990D01*
X000935Y003229D02*
X000681Y003229D01*
X000681Y003467D02*
X000815Y003467D01*
X000815Y003706D02*
X000681Y003706D01*
X000681Y003944D02*
X000899Y003944D01*
X000981Y004183D02*
X000681Y004183D01*
X000681Y004421D02*
X000815Y004421D01*
X000815Y004660D02*
X000681Y004660D01*
X000681Y004899D02*
X000853Y004899D01*
X000681Y005137D02*
X001027Y005137D01*
X000815Y005376D02*
X000681Y005376D01*
X000681Y005614D02*
X000815Y005614D01*
X000815Y005853D02*
X000681Y005853D01*
X000681Y006091D02*
X001046Y006091D01*
X000834Y006330D02*
X000681Y006330D01*
X000681Y006568D02*
X000815Y006568D01*
X000815Y006807D02*
X000681Y006807D01*
X000681Y007045D02*
X001000Y007045D01*
X000880Y007284D02*
X000681Y007284D01*
X000681Y007522D02*
X000815Y007522D01*
X000815Y007761D02*
X000681Y007761D01*
X000681Y008000D02*
X000954Y008000D01*
X001063Y008238D02*
X000681Y008238D01*
X000681Y008477D02*
X000911Y008477D01*
X000911Y008715D02*
X000681Y008715D01*
X000681Y008954D02*
X001045Y008954D01*
X001431Y008954D02*
X001432Y008954D01*
X001431Y008715D02*
X001432Y008715D01*
X001818Y008954D02*
X001908Y008954D01*
X002181Y009355D02*
X007931Y009355D01*
X008681Y008605D01*
X008091Y008605D01*
X008091Y008849D01*
X008437Y009195D01*
X008681Y009195D01*
X008681Y008605D01*
X009431Y009355D01*
X013431Y009355D01*
X014681Y008105D01*
X013681Y007105D01*
X013681Y006605D01*
X014836Y007284D02*
X015181Y007284D01*
X015181Y007522D02*
X014777Y007522D01*
X014682Y007522D02*
X014681Y007522D01*
X014681Y007761D02*
X014682Y007761D01*
X014681Y008000D02*
X014682Y008000D01*
X015161Y007761D02*
X015181Y007761D01*
X011269Y007045D02*
X011093Y007045D01*
X008682Y008715D02*
X008681Y008715D01*
X008681Y008954D02*
X008682Y008954D01*
X008681Y009192D02*
X008682Y009192D01*
X008928Y009192D02*
X009298Y009192D01*
X010065Y009192D02*
X010298Y009192D01*
X011065Y009192D02*
X011298Y009192D01*
X008435Y009192D02*
X002716Y009192D01*
X002955Y008954D02*
X003455Y008954D01*
X003345Y008715D02*
X003048Y008715D01*
X004908Y008954D02*
X006455Y008954D01*
X006345Y008715D02*
X005018Y008715D01*
X007862Y008000D02*
X008105Y008000D01*
X008214Y008238D02*
X007891Y008238D01*
X008013Y008477D02*
X008091Y008477D01*
X008091Y008715D02*
X008018Y008715D01*
X007908Y008954D02*
X008196Y008954D01*
X003358Y002752D02*
X002951Y002752D01*
X002951Y002513D02*
X003345Y002513D01*
X003436Y002275D02*
X002837Y002275D01*
X002432Y002275D02*
X002431Y002275D01*
X002431Y002513D02*
X002432Y002513D01*
X002431Y002752D02*
X002432Y002752D01*
X002431Y002036D02*
X002432Y002036D01*
X002431Y001797D02*
X002432Y001797D01*
X002735Y002036D02*
X003711Y002036D01*
X003481Y001797D02*
X002951Y001797D01*
X002951Y001559D02*
X003443Y001559D01*
X003535Y001320D02*
X002882Y001320D01*
X000681Y000605D02*
X014366Y000605D01*
D18*
X006681Y008105D02*
X002931Y008105D01*
X002431Y008605D01*
X006681Y008105D02*
X007181Y008605D01*
D19*
X007181Y007605D02*
X005681Y006105D01*
X002931Y006105D01*
X002431Y006605D01*
X001931Y007105D02*
X001431Y007605D01*
X001931Y007105D02*
X003681Y007105D01*
X004181Y006605D01*
X004181Y007605D02*
X002431Y007605D01*
X007181Y006605D02*
X009181Y006605D01*
X009181Y008105D01*
X009681Y008605D01*
X010181Y008105D02*
X010681Y008605D01*
X010181Y008105D02*
X010181Y006605D01*
X009181Y005605D01*
X009181Y004105D01*
X008681Y003605D01*
X007181Y003605D01*
X010931Y002105D02*
X013681Y002105D01*
X014681Y001105D01*
M02*
