%
M48
M72
T01C0.0320
T02C0.0400
%
T01
X4181Y1605
X4181Y2605
X4181Y3605
X4181Y4605
X4181Y5605
X4181Y6605
X4181Y7605
X4181Y8605
X7181Y8605
X7181Y7605
X7181Y6605
X7181Y5605
X7181Y4605
X7181Y3605
X7181Y2605
X7181Y1605
X14681Y1105
X14681Y4105
T02
X1431Y1605
X2431Y1605
X2431Y2605
X1431Y2605
X1431Y3605
X2431Y3605
X2431Y4605
X1431Y4605
X1431Y5605
X2431Y5605
X2431Y6605
X1431Y6605
X1431Y7605
X2431Y7605
X2431Y8605
X1431Y8605
X8681Y8605
X9681Y8605
X10681Y8605
X11681Y8605
X11681Y7605
X10681Y7605
X9681Y7605
X8681Y7605
X10931Y5105
X14681Y5605
X14681Y6605
X14681Y8105
X14681Y9105
X10931Y2105
M30
