G75*
G70*
%OFA0B0*%
%FSLAX24Y24*%
%IPPOS*%
%LPD*%
%AMOC8*
5,1,8,0,0,1.08239X$1,22.5*
%
%ADD10C,0.0000*%
%ADD11C,0.0600*%
%ADD12C,0.0554*%
%ADD13C,0.0705*%
%ADD14C,0.0787*%
%ADD15C,0.0630*%
%ADD16C,0.0660*%
%ADD17C,0.0594*%
%ADD18C,0.0520*%
%ADD19C,0.0740*%
%ADD20C,0.0400*%
%ADD21C,0.0160*%
%ADD22C,0.0560*%
%ADD23C,0.1000*%
%ADD24C,0.0100*%
%ADD25C,0.0094*%
D10*
X000101Y000101D02*
X035101Y000101D01*
X035101Y035101D01*
X000101Y035101D01*
X000101Y000101D01*
X000971Y001601D02*
X000973Y001651D01*
X000979Y001701D01*
X000989Y001750D01*
X001003Y001798D01*
X001020Y001845D01*
X001041Y001890D01*
X001066Y001934D01*
X001094Y001975D01*
X001126Y002014D01*
X001160Y002051D01*
X001197Y002085D01*
X001237Y002115D01*
X001279Y002142D01*
X001323Y002166D01*
X001369Y002187D01*
X001416Y002203D01*
X001464Y002216D01*
X001514Y002225D01*
X001563Y002230D01*
X001614Y002231D01*
X001664Y002228D01*
X001713Y002221D01*
X001762Y002210D01*
X001810Y002195D01*
X001856Y002177D01*
X001901Y002155D01*
X001944Y002129D01*
X001985Y002100D01*
X002024Y002068D01*
X002060Y002033D01*
X002092Y001995D01*
X002122Y001955D01*
X002149Y001912D01*
X002172Y001868D01*
X002191Y001822D01*
X002207Y001774D01*
X002219Y001725D01*
X002227Y001676D01*
X002231Y001626D01*
X002231Y001576D01*
X002227Y001526D01*
X002219Y001477D01*
X002207Y001428D01*
X002191Y001380D01*
X002172Y001334D01*
X002149Y001290D01*
X002122Y001247D01*
X002092Y001207D01*
X002060Y001169D01*
X002024Y001134D01*
X001985Y001102D01*
X001944Y001073D01*
X001901Y001047D01*
X001856Y001025D01*
X001810Y001007D01*
X001762Y000992D01*
X001713Y000981D01*
X001664Y000974D01*
X001614Y000971D01*
X001563Y000972D01*
X001514Y000977D01*
X001464Y000986D01*
X001416Y000999D01*
X001369Y001015D01*
X001323Y001036D01*
X001279Y001060D01*
X001237Y001087D01*
X001197Y001117D01*
X001160Y001151D01*
X001126Y001188D01*
X001094Y001227D01*
X001066Y001268D01*
X001041Y001312D01*
X001020Y001357D01*
X001003Y001404D01*
X000989Y001452D01*
X000979Y001501D01*
X000973Y001551D01*
X000971Y001601D01*
X032971Y001601D02*
X032973Y001651D01*
X032979Y001701D01*
X032989Y001750D01*
X033003Y001798D01*
X033020Y001845D01*
X033041Y001890D01*
X033066Y001934D01*
X033094Y001975D01*
X033126Y002014D01*
X033160Y002051D01*
X033197Y002085D01*
X033237Y002115D01*
X033279Y002142D01*
X033323Y002166D01*
X033369Y002187D01*
X033416Y002203D01*
X033464Y002216D01*
X033514Y002225D01*
X033563Y002230D01*
X033614Y002231D01*
X033664Y002228D01*
X033713Y002221D01*
X033762Y002210D01*
X033810Y002195D01*
X033856Y002177D01*
X033901Y002155D01*
X033944Y002129D01*
X033985Y002100D01*
X034024Y002068D01*
X034060Y002033D01*
X034092Y001995D01*
X034122Y001955D01*
X034149Y001912D01*
X034172Y001868D01*
X034191Y001822D01*
X034207Y001774D01*
X034219Y001725D01*
X034227Y001676D01*
X034231Y001626D01*
X034231Y001576D01*
X034227Y001526D01*
X034219Y001477D01*
X034207Y001428D01*
X034191Y001380D01*
X034172Y001334D01*
X034149Y001290D01*
X034122Y001247D01*
X034092Y001207D01*
X034060Y001169D01*
X034024Y001134D01*
X033985Y001102D01*
X033944Y001073D01*
X033901Y001047D01*
X033856Y001025D01*
X033810Y001007D01*
X033762Y000992D01*
X033713Y000981D01*
X033664Y000974D01*
X033614Y000971D01*
X033563Y000972D01*
X033514Y000977D01*
X033464Y000986D01*
X033416Y000999D01*
X033369Y001015D01*
X033323Y001036D01*
X033279Y001060D01*
X033237Y001087D01*
X033197Y001117D01*
X033160Y001151D01*
X033126Y001188D01*
X033094Y001227D01*
X033066Y001268D01*
X033041Y001312D01*
X033020Y001357D01*
X033003Y001404D01*
X032989Y001452D01*
X032979Y001501D01*
X032973Y001551D01*
X032971Y001601D01*
X032971Y033601D02*
X032973Y033651D01*
X032979Y033701D01*
X032989Y033750D01*
X033003Y033798D01*
X033020Y033845D01*
X033041Y033890D01*
X033066Y033934D01*
X033094Y033975D01*
X033126Y034014D01*
X033160Y034051D01*
X033197Y034085D01*
X033237Y034115D01*
X033279Y034142D01*
X033323Y034166D01*
X033369Y034187D01*
X033416Y034203D01*
X033464Y034216D01*
X033514Y034225D01*
X033563Y034230D01*
X033614Y034231D01*
X033664Y034228D01*
X033713Y034221D01*
X033762Y034210D01*
X033810Y034195D01*
X033856Y034177D01*
X033901Y034155D01*
X033944Y034129D01*
X033985Y034100D01*
X034024Y034068D01*
X034060Y034033D01*
X034092Y033995D01*
X034122Y033955D01*
X034149Y033912D01*
X034172Y033868D01*
X034191Y033822D01*
X034207Y033774D01*
X034219Y033725D01*
X034227Y033676D01*
X034231Y033626D01*
X034231Y033576D01*
X034227Y033526D01*
X034219Y033477D01*
X034207Y033428D01*
X034191Y033380D01*
X034172Y033334D01*
X034149Y033290D01*
X034122Y033247D01*
X034092Y033207D01*
X034060Y033169D01*
X034024Y033134D01*
X033985Y033102D01*
X033944Y033073D01*
X033901Y033047D01*
X033856Y033025D01*
X033810Y033007D01*
X033762Y032992D01*
X033713Y032981D01*
X033664Y032974D01*
X033614Y032971D01*
X033563Y032972D01*
X033514Y032977D01*
X033464Y032986D01*
X033416Y032999D01*
X033369Y033015D01*
X033323Y033036D01*
X033279Y033060D01*
X033237Y033087D01*
X033197Y033117D01*
X033160Y033151D01*
X033126Y033188D01*
X033094Y033227D01*
X033066Y033268D01*
X033041Y033312D01*
X033020Y033357D01*
X033003Y033404D01*
X032989Y033452D01*
X032979Y033501D01*
X032973Y033551D01*
X032971Y033601D01*
X000971Y033601D02*
X000973Y033651D01*
X000979Y033701D01*
X000989Y033750D01*
X001003Y033798D01*
X001020Y033845D01*
X001041Y033890D01*
X001066Y033934D01*
X001094Y033975D01*
X001126Y034014D01*
X001160Y034051D01*
X001197Y034085D01*
X001237Y034115D01*
X001279Y034142D01*
X001323Y034166D01*
X001369Y034187D01*
X001416Y034203D01*
X001464Y034216D01*
X001514Y034225D01*
X001563Y034230D01*
X001614Y034231D01*
X001664Y034228D01*
X001713Y034221D01*
X001762Y034210D01*
X001810Y034195D01*
X001856Y034177D01*
X001901Y034155D01*
X001944Y034129D01*
X001985Y034100D01*
X002024Y034068D01*
X002060Y034033D01*
X002092Y033995D01*
X002122Y033955D01*
X002149Y033912D01*
X002172Y033868D01*
X002191Y033822D01*
X002207Y033774D01*
X002219Y033725D01*
X002227Y033676D01*
X002231Y033626D01*
X002231Y033576D01*
X002227Y033526D01*
X002219Y033477D01*
X002207Y033428D01*
X002191Y033380D01*
X002172Y033334D01*
X002149Y033290D01*
X002122Y033247D01*
X002092Y033207D01*
X002060Y033169D01*
X002024Y033134D01*
X001985Y033102D01*
X001944Y033073D01*
X001901Y033047D01*
X001856Y033025D01*
X001810Y033007D01*
X001762Y032992D01*
X001713Y032981D01*
X001664Y032974D01*
X001614Y032971D01*
X001563Y032972D01*
X001514Y032977D01*
X001464Y032986D01*
X001416Y032999D01*
X001369Y033015D01*
X001323Y033036D01*
X001279Y033060D01*
X001237Y033087D01*
X001197Y033117D01*
X001160Y033151D01*
X001126Y033188D01*
X001094Y033227D01*
X001066Y033268D01*
X001041Y033312D01*
X001020Y033357D01*
X001003Y033404D01*
X000989Y033452D01*
X000979Y033501D01*
X000973Y033551D01*
X000971Y033601D01*
D11*
X002101Y031101D03*
X002101Y030101D03*
X002101Y029101D03*
X002101Y028101D03*
X002101Y023101D03*
X002101Y022101D03*
X002101Y021101D03*
X002101Y020101D03*
X002101Y015101D03*
X002101Y014101D03*
X002101Y013101D03*
X002101Y012101D03*
X002101Y007101D03*
X002101Y006101D03*
X002101Y005101D03*
X002101Y004101D03*
X014601Y006101D03*
X015601Y006101D03*
X016601Y006101D03*
X019601Y006101D03*
X020601Y006101D03*
X021601Y006101D03*
X029101Y008101D03*
X029101Y009101D03*
X029101Y010101D03*
X030601Y010101D03*
X030601Y009101D03*
X030601Y008101D03*
X032101Y008101D03*
X032101Y009101D03*
X032101Y010101D03*
D12*
X031701Y012601D03*
X030701Y012601D03*
X029701Y012601D03*
X028701Y012601D03*
X027701Y012601D03*
X026701Y012601D03*
X025101Y012601D03*
X024101Y012601D03*
X023101Y012601D03*
X022101Y012601D03*
X021101Y012601D03*
X020101Y012601D03*
X016101Y012601D03*
X015101Y012601D03*
X014101Y012601D03*
X013101Y012601D03*
X012101Y012601D03*
X011101Y012601D03*
X014101Y014601D03*
X014101Y015601D03*
X014101Y016601D03*
X014101Y017601D03*
X014101Y018601D03*
X014101Y019601D03*
X014101Y020601D03*
X014101Y021601D03*
X014101Y022601D03*
X014101Y023601D03*
X014101Y024601D03*
X014101Y025601D03*
X014101Y026601D03*
X014101Y027601D03*
X014101Y028601D03*
X014101Y029601D03*
X015101Y029601D03*
X015101Y028601D03*
X015101Y027601D03*
X015101Y026601D03*
X015101Y025601D03*
X015101Y024601D03*
X015101Y023601D03*
X015101Y022601D03*
X015101Y021601D03*
X015101Y020601D03*
X015101Y019601D03*
X015101Y018601D03*
X015101Y017601D03*
X015101Y016601D03*
X015101Y015601D03*
X015101Y014601D03*
X014101Y031601D03*
X013101Y031601D03*
X012101Y031601D03*
X011101Y031601D03*
X016101Y031601D03*
X017101Y031601D03*
X018101Y031601D03*
X019101Y031601D03*
X020101Y031601D03*
X021101Y031601D03*
X022101Y031601D03*
X023101Y031601D03*
X025101Y031601D03*
X026101Y031601D03*
X027101Y031601D03*
X028101Y031601D03*
X030101Y031601D03*
X033701Y012601D03*
D13*
X026585Y002601D03*
X024617Y002601D03*
D14*
X020592Y002611D03*
X018592Y002611D03*
X015592Y002611D03*
X013592Y002611D03*
D15*
X025101Y006101D03*
X026101Y006101D03*
X025101Y027601D03*
X025101Y028601D03*
X019101Y028601D03*
X019101Y027601D03*
D16*
X021101Y033601D03*
X025101Y033601D03*
D17*
X029101Y002601D03*
X030101Y002601D03*
X031101Y002601D03*
D18*
X027601Y014101D03*
X026601Y014101D03*
X025601Y014101D03*
X025601Y017101D03*
X026601Y017101D03*
X027601Y017101D03*
X025601Y024601D03*
X025601Y025601D03*
X022601Y025601D03*
X021601Y025601D03*
X021601Y024601D03*
X022601Y024601D03*
X018601Y024601D03*
X018601Y025601D03*
X009101Y026101D03*
X009101Y027101D03*
X009101Y028101D03*
X009101Y029101D03*
X009101Y030101D03*
X009101Y031101D03*
X009101Y032101D03*
X009101Y033101D03*
X006601Y033101D03*
X004101Y033101D03*
X004101Y032101D03*
X004101Y031101D03*
X004101Y030101D03*
X004101Y029101D03*
X004101Y028101D03*
X004101Y027101D03*
X004101Y026101D03*
X004101Y025101D03*
X004101Y024101D03*
X004101Y023101D03*
X004101Y022101D03*
X004101Y021101D03*
X004101Y020101D03*
X004101Y019101D03*
X004101Y018101D03*
X004101Y017101D03*
X004101Y016101D03*
X004101Y015101D03*
X004101Y014101D03*
X004101Y013101D03*
X004101Y012101D03*
X004101Y011101D03*
X004101Y010101D03*
X004101Y009101D03*
X004101Y008101D03*
X004101Y007101D03*
X004101Y006101D03*
X004101Y005101D03*
X004101Y004101D03*
X004101Y003101D03*
X004101Y002101D03*
X006601Y006101D03*
X009101Y006101D03*
X009101Y007101D03*
X009101Y008101D03*
X009101Y009101D03*
X009101Y010101D03*
X009101Y011101D03*
X009101Y012101D03*
X009101Y013101D03*
X009101Y014101D03*
X009101Y015101D03*
X009101Y016101D03*
X009101Y017101D03*
X009101Y018101D03*
X009101Y019101D03*
X009101Y020101D03*
X009101Y021101D03*
X009101Y022101D03*
X009101Y023101D03*
X009101Y024101D03*
X009101Y025101D03*
X006601Y025101D03*
X006601Y022101D03*
X006601Y017101D03*
X006601Y014101D03*
X006601Y009101D03*
X009101Y005101D03*
X009101Y004101D03*
X009101Y003101D03*
X009101Y002101D03*
X006601Y030101D03*
D19*
X006601Y029101D03*
X007601Y029101D03*
X007601Y028101D03*
X007601Y027101D03*
X006601Y027101D03*
X006601Y028101D03*
X006601Y021101D03*
X006601Y020101D03*
X007601Y020101D03*
X007601Y021101D03*
X007601Y019101D03*
X006601Y019101D03*
X006601Y013101D03*
X007601Y013101D03*
X007601Y012101D03*
X007601Y011101D03*
X006601Y011101D03*
X006601Y012101D03*
X006601Y005101D03*
X007601Y005101D03*
X007601Y004101D03*
X007601Y003101D03*
X006601Y003101D03*
X006601Y004101D03*
X024101Y009101D03*
X024101Y010101D03*
X025601Y010101D03*
X025601Y009101D03*
X027101Y009101D03*
X027101Y010101D03*
X030101Y016601D03*
X030101Y017601D03*
X031101Y017601D03*
X031101Y016601D03*
X032101Y016601D03*
X032101Y017601D03*
X033101Y017601D03*
X033101Y016601D03*
X033101Y020101D03*
X033101Y021101D03*
X032101Y021101D03*
X032101Y020101D03*
X031101Y020101D03*
X031101Y021101D03*
X030101Y021101D03*
X030101Y020101D03*
X030101Y023601D03*
X030101Y024601D03*
X031101Y024601D03*
X031101Y023601D03*
X032101Y023601D03*
X032101Y024601D03*
X033101Y024601D03*
X033101Y023601D03*
X033101Y027101D03*
X032101Y027101D03*
X032101Y028101D03*
X033101Y028101D03*
X031101Y028101D03*
X031101Y027101D03*
X030101Y027101D03*
X030101Y028101D03*
X023101Y028601D03*
X023101Y027601D03*
X021101Y027601D03*
X021101Y028601D03*
D20*
X025101Y031601D02*
X025101Y033601D01*
X028101Y031601D02*
X028101Y029601D01*
X034101Y029601D01*
X034101Y027101D01*
X034101Y023601D01*
X034101Y020101D01*
X034101Y016601D01*
X033101Y016601D01*
X033101Y015101D01*
X028601Y015101D01*
X027601Y016101D01*
X027601Y017101D01*
X026601Y017101D01*
X025601Y017101D01*
X032601Y013101D02*
X032601Y011601D01*
X033601Y010601D01*
X033601Y008601D01*
X033101Y008101D01*
X032101Y008101D01*
X030601Y008101D01*
X029101Y008101D01*
X032601Y013101D02*
X033101Y013601D01*
X033101Y015101D01*
X033101Y020101D02*
X034101Y020101D01*
X034101Y023601D02*
X033101Y023601D01*
X033101Y027101D02*
X034101Y027101D01*
X021101Y033601D02*
X010601Y033601D01*
X010101Y034101D01*
X005101Y034101D01*
X005101Y026101D01*
X005101Y018101D01*
X005101Y010101D01*
X004101Y010101D01*
X005101Y010101D02*
X005101Y002101D01*
X004101Y002101D01*
X005101Y002101D02*
X005101Y001101D01*
X013601Y001101D01*
X004101Y004101D02*
X002101Y004101D01*
X002101Y005101D02*
X004101Y005101D01*
X004101Y006101D02*
X002101Y006101D01*
X002101Y007101D02*
X004101Y007101D01*
X004101Y012101D02*
X002101Y012101D01*
X002101Y013101D02*
X004101Y013101D01*
X004101Y014101D02*
X002101Y014101D01*
X002101Y015101D02*
X004101Y015101D01*
X004101Y018101D02*
X005101Y018101D01*
X004101Y020101D02*
X002101Y020101D01*
X002101Y021101D02*
X004101Y021101D01*
X004101Y022101D02*
X002101Y022101D01*
X002101Y023101D02*
X004101Y023101D01*
X004101Y026101D02*
X005101Y026101D01*
X004101Y028101D02*
X002101Y028101D01*
X002101Y029101D02*
X004101Y029101D01*
X004101Y030101D02*
X002101Y030101D01*
X002101Y031101D02*
X004101Y031101D01*
D21*
X006601Y030101D02*
X006601Y029101D01*
X006601Y028101D01*
X006601Y027101D01*
X007601Y027101D02*
X009101Y027101D01*
X009101Y028101D02*
X007601Y028101D01*
X007601Y029101D02*
X009101Y029101D01*
X006601Y022101D02*
X006601Y021101D01*
X006601Y020101D01*
X006601Y019101D01*
X007601Y019101D02*
X009101Y019101D01*
X009101Y020101D02*
X007601Y020101D01*
X007601Y021101D02*
X009101Y021101D01*
X006601Y014101D02*
X006601Y013101D01*
X006601Y012101D01*
X006601Y011101D01*
X007601Y011101D02*
X009101Y011101D01*
X009101Y012101D02*
X007601Y012101D01*
X007601Y013101D02*
X009101Y013101D01*
X006601Y006101D02*
X006601Y005101D01*
X006601Y004101D01*
X006601Y003101D01*
X007601Y003101D02*
X009101Y003101D01*
X009101Y004101D02*
X007601Y004101D01*
X007601Y005101D02*
X009101Y005101D01*
X025351Y023851D02*
X025851Y023851D01*
X028101Y026101D01*
X028101Y029601D01*
X025351Y026351D02*
X025601Y026101D01*
X025601Y025601D01*
X024851Y024851D01*
X024851Y024351D01*
X025351Y023851D01*
X025351Y026351D02*
X018851Y026351D01*
X018601Y026101D01*
X018601Y025601D01*
D22*
X020405Y007532D02*
X020398Y007529D01*
X020390Y007529D01*
X020225Y007458D01*
X020060Y007389D01*
X020054Y007384D01*
X020047Y007380D01*
X019922Y007251D01*
X019796Y007125D01*
X019792Y007117D01*
X019787Y007111D01*
X019721Y006944D01*
X019678Y006841D01*
X019454Y006841D01*
X019182Y006728D01*
X018973Y006520D01*
X018861Y006248D01*
X018861Y005954D01*
X018973Y005682D01*
X019182Y005473D01*
X019454Y005361D01*
X019652Y005361D01*
X019652Y002424D01*
X019796Y002078D01*
X020060Y001814D01*
X020405Y001671D01*
X020779Y001671D01*
X021125Y001814D01*
X021389Y002078D01*
X021532Y002424D01*
X021532Y005361D01*
X021748Y005361D01*
X022020Y005473D01*
X022228Y005682D01*
X022341Y005954D01*
X022341Y006248D01*
X022228Y006520D01*
X022020Y006728D01*
X021748Y006841D01*
X021509Y006841D01*
X021458Y006960D01*
X021389Y007125D01*
X021384Y007131D01*
X021380Y007138D01*
X021251Y007263D01*
X021125Y007389D01*
X021117Y007392D01*
X021111Y007398D01*
X020944Y007464D01*
X020779Y007532D01*
X020771Y007532D01*
X020764Y007535D01*
X020585Y007532D01*
X020405Y007532D01*
X020029Y007362D02*
X011601Y007362D01*
X011601Y007601D02*
X011601Y001101D01*
X028101Y001101D01*
X028101Y007601D01*
X011601Y007601D01*
X011601Y006803D02*
X014363Y006803D01*
X014454Y006841D02*
X014182Y006728D01*
X013973Y006520D01*
X013861Y006248D01*
X013861Y005954D01*
X013973Y005682D01*
X014182Y005473D01*
X014454Y005361D01*
X014661Y005361D01*
X014661Y002818D01*
X014652Y002798D01*
X014652Y002424D01*
X014796Y002078D01*
X015060Y001814D01*
X015405Y001671D01*
X015779Y001671D01*
X016125Y001814D01*
X016398Y002086D01*
X016541Y002432D01*
X016541Y002806D01*
X016541Y005361D01*
X016748Y005361D01*
X017020Y005473D01*
X017228Y005682D01*
X017341Y005954D01*
X017341Y006248D01*
X017228Y006520D01*
X017020Y006728D01*
X016748Y006841D01*
X016454Y006841D01*
X016267Y006764D01*
X016133Y006898D01*
X015788Y007041D01*
X015414Y007041D01*
X015068Y006898D01*
X014934Y006764D01*
X014748Y006841D01*
X014454Y006841D01*
X014838Y006803D02*
X014974Y006803D01*
X013861Y006245D02*
X011601Y006245D01*
X011601Y005686D02*
X013971Y005686D01*
X014661Y005128D02*
X011601Y005128D01*
X011601Y004569D02*
X014661Y004569D01*
X014661Y004011D02*
X011601Y004011D01*
X011601Y003452D02*
X014661Y003452D01*
X014661Y002894D02*
X014313Y002894D01*
X014327Y002860D02*
X014288Y002954D01*
X014237Y003041D01*
X014175Y003122D01*
X014104Y003194D01*
X014023Y003255D01*
X013935Y003306D01*
X013842Y003345D01*
X013744Y003371D01*
X013643Y003384D01*
X013593Y003384D01*
X013593Y002611D01*
X014366Y002611D01*
X014366Y002661D01*
X014353Y002762D01*
X014327Y002860D01*
X014366Y002610D02*
X013593Y002610D01*
X013593Y002611D01*
X013592Y002611D01*
X013592Y002610D01*
X013593Y002610D01*
X013593Y001837D01*
X013643Y001837D01*
X013744Y001850D01*
X013842Y001876D01*
X013935Y001915D01*
X014023Y001966D01*
X014104Y002028D01*
X014175Y002099D01*
X014237Y002180D01*
X014288Y002268D01*
X014327Y002361D01*
X014353Y002459D01*
X014366Y002560D01*
X014366Y002610D01*
X014316Y002335D02*
X014689Y002335D01*
X015150Y001776D02*
X011601Y001776D01*
X011601Y002335D02*
X012869Y002335D01*
X012858Y002361D02*
X012897Y002268D01*
X012948Y002180D01*
X013010Y002099D01*
X013081Y002028D01*
X013162Y001966D01*
X013250Y001915D01*
X013343Y001876D01*
X013441Y001850D01*
X013542Y001837D01*
X013592Y001837D01*
X013592Y002610D01*
X012819Y002610D01*
X012819Y002560D01*
X012832Y002459D01*
X012858Y002361D01*
X012819Y002611D02*
X013592Y002611D01*
X013592Y003384D01*
X013542Y003384D01*
X013441Y003371D01*
X013343Y003345D01*
X013250Y003306D01*
X013162Y003255D01*
X013081Y003194D01*
X013010Y003122D01*
X012948Y003041D01*
X012897Y002954D01*
X012858Y002860D01*
X012832Y002762D01*
X012819Y002661D01*
X012819Y002611D01*
X012872Y002894D02*
X011601Y002894D01*
X011601Y001218D02*
X028101Y001218D01*
X028101Y001776D02*
X021035Y001776D01*
X021496Y002335D02*
X023869Y002335D01*
X023824Y002443D02*
X023945Y002152D01*
X024168Y001929D01*
X024459Y001808D01*
X024774Y001808D01*
X025065Y001929D01*
X025288Y002152D01*
X025409Y002443D01*
X025409Y002758D01*
X025288Y003050D01*
X025065Y003273D01*
X024774Y003393D01*
X024459Y003393D01*
X024168Y003273D01*
X023945Y003050D01*
X023824Y002758D01*
X023824Y002443D01*
X023880Y002894D02*
X021532Y002894D01*
X021532Y003452D02*
X028101Y003452D01*
X028101Y002894D02*
X027257Y002894D01*
X027243Y002925D02*
X027195Y003009D01*
X027137Y003085D01*
X027069Y003153D01*
X026993Y003211D01*
X026910Y003259D01*
X026821Y003296D01*
X026728Y003321D01*
X026633Y003333D01*
X026585Y003333D01*
X026537Y003333D01*
X026442Y003321D01*
X026349Y003296D01*
X026260Y003259D01*
X026177Y003211D01*
X026101Y003153D01*
X026033Y003085D01*
X025975Y003009D01*
X025927Y002925D01*
X025890Y002837D01*
X025865Y002744D01*
X025853Y002649D01*
X025853Y002601D01*
X026585Y002601D01*
X026585Y004101D01*
X030101Y004101D01*
X030101Y002601D01*
X028101Y002335D02*
X027268Y002335D01*
X027280Y002365D02*
X027305Y002458D01*
X027318Y002553D01*
X027318Y002601D01*
X027318Y002649D01*
X027305Y002744D01*
X027280Y002837D01*
X027243Y002925D01*
X027318Y002601D02*
X026585Y002601D01*
X026585Y003333D01*
X026585Y002601D01*
X026585Y002601D01*
X026585Y002601D01*
X026585Y002601D01*
X025853Y002601D01*
X025853Y002553D01*
X025865Y002458D01*
X025890Y002365D01*
X025927Y002276D01*
X025975Y002193D01*
X026033Y002117D01*
X026101Y002049D01*
X026177Y001990D01*
X026260Y001942D01*
X026349Y001906D01*
X026442Y001881D01*
X026537Y001868D01*
X026585Y001868D01*
X026633Y001868D01*
X026728Y001881D01*
X026821Y001906D01*
X026910Y001942D01*
X026993Y001990D01*
X027069Y002049D01*
X027137Y002117D01*
X027195Y002193D01*
X027243Y002276D01*
X027280Y002365D01*
X027318Y002601D02*
X026585Y002601D01*
X026585Y002600D02*
X026585Y001868D01*
X026585Y002600D01*
X026585Y002600D01*
X026585Y002335D02*
X026585Y002335D01*
X026585Y002894D02*
X026585Y002894D01*
X025913Y002894D02*
X025353Y002894D01*
X025364Y002335D02*
X025902Y002335D01*
X026585Y004101D02*
X026585Y006085D01*
X026101Y006101D01*
X026796Y006101D01*
X026796Y006146D01*
X026784Y006237D01*
X026760Y006325D01*
X026725Y006409D01*
X026680Y006488D01*
X026624Y006560D01*
X026560Y006624D01*
X026488Y006680D01*
X026409Y006725D01*
X026325Y006760D01*
X026237Y006784D01*
X026146Y006796D01*
X026101Y006796D01*
X026101Y006101D01*
X026101Y006101D01*
X026101Y006101D01*
X026796Y006101D01*
X026796Y006055D01*
X026784Y005965D01*
X026760Y005877D01*
X026725Y005793D01*
X026680Y005714D01*
X026624Y005642D01*
X026560Y005577D01*
X026488Y005522D01*
X026409Y005476D01*
X026325Y005441D01*
X026237Y005418D01*
X026146Y005406D01*
X026101Y005406D01*
X026101Y006100D01*
X026101Y006100D01*
X026101Y005406D01*
X026055Y005406D01*
X025965Y005418D01*
X025877Y005441D01*
X025793Y005476D01*
X025714Y005522D01*
X025643Y005576D01*
X025528Y005461D01*
X025251Y005346D01*
X024951Y005346D01*
X024673Y005461D01*
X024461Y005673D01*
X024346Y005951D01*
X024346Y006251D01*
X024461Y006528D01*
X024673Y006741D01*
X024951Y006856D01*
X025251Y006856D01*
X025528Y006741D01*
X025643Y006626D01*
X025714Y006680D01*
X025793Y006725D01*
X025877Y006760D01*
X025965Y006784D01*
X026055Y006796D01*
X026101Y006796D01*
X026101Y006101D01*
X026101Y006245D02*
X026101Y006245D01*
X026101Y005686D02*
X026101Y005686D01*
X026659Y005686D02*
X028101Y005686D01*
X028101Y006245D02*
X026782Y006245D01*
X028101Y006803D02*
X025378Y006803D01*
X024824Y006803D02*
X021838Y006803D01*
X021152Y007362D02*
X028101Y007362D01*
X028101Y005128D02*
X021532Y005128D01*
X021532Y004569D02*
X028101Y004569D01*
X028101Y004011D02*
X021532Y004011D01*
X022230Y005686D02*
X024455Y005686D01*
X024346Y006245D02*
X022341Y006245D01*
X019652Y005128D02*
X016541Y005128D01*
X016541Y004569D02*
X019652Y004569D01*
X019652Y004011D02*
X016541Y004011D01*
X016541Y003452D02*
X019652Y003452D01*
X019652Y002894D02*
X019313Y002894D01*
X019327Y002860D02*
X019288Y002954D01*
X019237Y003041D01*
X019175Y003122D01*
X019104Y003194D01*
X019023Y003255D01*
X018935Y003306D01*
X018842Y003345D01*
X018744Y003371D01*
X018643Y003384D01*
X018593Y003384D01*
X018593Y002611D01*
X019366Y002611D01*
X019366Y002661D01*
X019353Y002762D01*
X019327Y002860D01*
X019366Y002610D02*
X018593Y002610D01*
X018593Y002611D01*
X018592Y002611D01*
X018592Y002610D01*
X018593Y002610D01*
X018593Y001837D01*
X018643Y001837D01*
X018744Y001850D01*
X018842Y001876D01*
X018935Y001915D01*
X019023Y001966D01*
X019104Y002028D01*
X019175Y002099D01*
X019237Y002180D01*
X019288Y002268D01*
X019327Y002361D01*
X019353Y002459D01*
X019366Y002560D01*
X019366Y002610D01*
X019316Y002335D02*
X019689Y002335D01*
X020150Y001776D02*
X016035Y001776D01*
X016501Y002335D02*
X017869Y002335D01*
X017858Y002361D02*
X017897Y002268D01*
X017948Y002180D01*
X018010Y002099D01*
X018081Y002028D01*
X018162Y001966D01*
X018250Y001915D01*
X018343Y001876D01*
X018441Y001850D01*
X018542Y001837D01*
X018592Y001837D01*
X018592Y002610D01*
X017819Y002610D01*
X017819Y002560D01*
X017832Y002459D01*
X017858Y002361D01*
X017819Y002611D02*
X018592Y002611D01*
X018592Y003384D01*
X018542Y003384D01*
X018441Y003371D01*
X018343Y003345D01*
X018250Y003306D01*
X018162Y003255D01*
X018081Y003194D01*
X018010Y003122D01*
X017948Y003041D01*
X017897Y002954D01*
X017858Y002860D01*
X017832Y002762D01*
X017819Y002661D01*
X017819Y002611D01*
X017872Y002894D02*
X016541Y002894D01*
X018592Y002894D02*
X018593Y002894D01*
X018592Y002335D02*
X018593Y002335D01*
X018971Y005686D02*
X017230Y005686D01*
X017341Y006245D02*
X018861Y006245D01*
X019363Y006803D02*
X016838Y006803D01*
X016363Y006803D02*
X016228Y006803D01*
X013592Y002894D02*
X013593Y002894D01*
X013592Y002335D02*
X013593Y002335D01*
D23*
X015592Y002611D02*
X015601Y002619D01*
X015601Y006101D01*
X020601Y006101D02*
X020592Y006592D01*
X020592Y002611D01*
D24*
X024101Y010101D02*
X025101Y011101D01*
X025101Y012601D01*
X024101Y012601D02*
X024101Y017601D01*
X024351Y017851D01*
X027851Y017851D01*
X028601Y017101D01*
X028601Y016601D01*
X029601Y015601D01*
X031101Y015601D01*
X032101Y016601D01*
X031101Y016601D02*
X030351Y015851D01*
X029851Y015851D01*
X029101Y016601D01*
X029101Y017101D01*
X028101Y018101D01*
X024101Y018101D01*
X023101Y017101D01*
X023101Y012601D01*
X022101Y012601D02*
X022101Y016601D01*
X023851Y018351D01*
X028351Y018351D01*
X030101Y016601D01*
X030101Y017601D02*
X029101Y018601D01*
X019101Y018601D01*
X015101Y014601D01*
X015101Y015601D02*
X018351Y018851D01*
X029851Y018851D01*
X031101Y017601D01*
X031101Y019101D02*
X017601Y019101D01*
X015101Y016601D01*
X015101Y017601D02*
X017351Y019851D01*
X029101Y019851D01*
X029601Y019351D01*
X030851Y019351D01*
X031101Y019601D01*
X031101Y020101D01*
X031101Y021101D02*
X030351Y021851D01*
X028851Y021851D01*
X027851Y020851D01*
X016601Y020851D01*
X016351Y020601D01*
X015101Y020601D01*
X015601Y021101D02*
X027601Y021101D01*
X028851Y022351D01*
X030851Y022351D01*
X032101Y023601D01*
X031101Y023601D02*
X030101Y022601D01*
X028601Y022601D01*
X027351Y021351D01*
X016351Y021351D01*
X015101Y022601D01*
X015101Y023601D02*
X017101Y021601D01*
X027101Y021601D01*
X029101Y023601D01*
X030101Y023601D01*
X030101Y024601D02*
X029601Y024601D01*
X026851Y021851D01*
X017851Y021851D01*
X015101Y024601D01*
X016101Y025101D02*
X016101Y024101D01*
X018101Y022101D01*
X026601Y022101D01*
X029851Y025351D01*
X030351Y025351D01*
X031101Y024601D01*
X031101Y026101D02*
X030101Y026101D01*
X026351Y022351D01*
X018351Y022351D01*
X016351Y024351D01*
X016351Y025851D01*
X015601Y026601D01*
X015101Y026601D01*
X015101Y027601D02*
X015601Y027601D01*
X016601Y026601D01*
X016601Y024601D01*
X018601Y022601D01*
X026101Y022601D01*
X029101Y025601D01*
X029101Y027601D01*
X029601Y028101D01*
X030101Y028101D01*
X030351Y028851D02*
X029351Y028851D01*
X028851Y028351D01*
X028851Y025851D01*
X025851Y022851D01*
X018851Y022851D01*
X016851Y024851D01*
X016851Y026851D01*
X015101Y028601D01*
X015101Y029601D02*
X017101Y027601D01*
X017101Y025101D01*
X019101Y023101D01*
X025601Y023101D01*
X028601Y026101D01*
X028601Y028601D01*
X029101Y029101D01*
X031601Y029101D01*
X032101Y028601D01*
X032101Y028101D01*
X032101Y027101D02*
X031101Y026101D01*
X031101Y028101D02*
X030351Y028851D01*
X026601Y027601D02*
X026601Y025601D01*
X025601Y024601D01*
X022601Y024601D02*
X022601Y025601D01*
X021601Y025601D02*
X021601Y024601D01*
X018601Y024601D02*
X017601Y025601D01*
X017601Y027601D01*
X018601Y028601D01*
X019101Y028601D01*
X015601Y025601D02*
X016101Y025101D01*
X015601Y025601D02*
X015101Y025601D01*
X014101Y025601D02*
X012601Y024101D01*
X009101Y024101D01*
X009101Y025101D02*
X012601Y025101D01*
X014101Y026601D01*
X014101Y027601D02*
X012601Y026101D01*
X009101Y026101D01*
X010601Y028601D02*
X010101Y029101D01*
X010101Y031601D01*
X009601Y032101D01*
X009101Y032101D01*
X009101Y033101D02*
X009601Y033101D01*
X010351Y032351D01*
X010351Y029851D01*
X010601Y029601D01*
X014101Y029601D01*
X014101Y028601D02*
X010601Y028601D01*
X009101Y030101D02*
X009101Y031101D01*
X014101Y024601D02*
X010351Y020851D01*
X010351Y019351D01*
X009101Y018101D01*
X009101Y017101D02*
X010601Y018601D01*
X010601Y020101D01*
X014101Y023601D01*
X014101Y022601D02*
X010851Y019351D01*
X010851Y017851D01*
X009101Y016101D01*
X009851Y015851D02*
X011101Y017101D01*
X011101Y018601D01*
X014101Y021601D01*
X015101Y021601D02*
X015601Y021101D01*
X016101Y019601D02*
X017101Y020601D01*
X028101Y020601D01*
X028601Y021101D01*
X030101Y021101D01*
X030101Y020101D02*
X017101Y020101D01*
X015601Y018601D01*
X015101Y018601D01*
X015101Y019601D02*
X016101Y019601D01*
X014101Y019601D02*
X012101Y017601D01*
X012101Y017101D01*
X010351Y015351D01*
X010351Y009101D01*
X009351Y008101D01*
X009101Y008101D01*
X009101Y009101D02*
X009351Y009101D01*
X010101Y009851D01*
X010101Y015601D01*
X011601Y017101D01*
X011601Y018101D01*
X014101Y020601D01*
X014101Y018601D02*
X010601Y015101D01*
X010601Y003101D01*
X009601Y002101D01*
X009101Y002101D01*
X009101Y006101D02*
X009101Y007101D01*
X009101Y010101D02*
X009351Y010101D01*
X009851Y010601D01*
X009851Y015851D01*
X009101Y015101D02*
X009101Y014101D01*
X009101Y022101D02*
X009101Y023101D01*
X025101Y028601D02*
X025601Y028601D01*
X026601Y027601D01*
X032101Y020101D02*
X031101Y019101D01*
X030701Y012601D02*
X030701Y011501D01*
X032101Y010101D01*
X030601Y010101D02*
X029701Y011001D01*
X029701Y012601D01*
X028701Y012601D02*
X028701Y010501D01*
X029101Y010101D01*
X027601Y010601D02*
X027101Y010101D01*
X027601Y010601D02*
X027601Y012601D01*
X026601Y012601D02*
X026601Y011101D01*
X025601Y010101D01*
D25*
X025101Y012601D02*
X025601Y013101D01*
X025601Y014101D01*
X026601Y014101D02*
X026601Y012601D01*
X026701Y012601D01*
X027601Y012601D02*
X027701Y012601D01*
X027601Y012601D02*
X027601Y014101D01*
X025101Y028601D02*
X023101Y028601D01*
X022101Y029601D01*
X022101Y031601D01*
X021101Y031601D02*
X021101Y028601D01*
X019101Y028601D01*
M02*
