%
M48
M72
T01C0.0320
T02C0.0354
T03C0.0394
T04C0.0400
T05C0.0440
T06C0.0470
T07C0.0512
T08C0.1260
%
T01
X4101Y2101
X4101Y3101
X4101Y4101
X4101Y5101
X4101Y6101
X4101Y7101
X4101Y8101
X4101Y9101
X4101Y10101
X4101Y11101
X4101Y12101
X4101Y13101
X4101Y14101
X4101Y15101
X4101Y16101
X4101Y17101
X4101Y18101
X4101Y19101
X4101Y20101
X4101Y21101
X4101Y22101
X4101Y23101
X4101Y24101
X4101Y25101
X4101Y26101
X4101Y27101
X4101Y28101
X4101Y29101
X4101Y30101
X4101Y31101
X4101Y32101
X4101Y33101
X6601Y33101
X9101Y33101
X9101Y32101
X9101Y31101
X9101Y30101
X9101Y29101
X9101Y28101
X9101Y27101
X9101Y26101
X9101Y25101
X9101Y24101
X9101Y23101
X9101Y22101
X9101Y21101
X9101Y20101
X9101Y19101
X9101Y18101
X9101Y17101
X9101Y16101
X9101Y15101
X9101Y14101
X9101Y13101
X9101Y12101
X9101Y11101
X9101Y10101
X9101Y9101
X9101Y8101
X9101Y7101
X9101Y6101
X9101Y5101
X9101Y4101
X9101Y3101
X9101Y2101
X6601Y6101
X6601Y9101
X6601Y14101
X6601Y17101
X6601Y22101
X6601Y25101
X6601Y30101
X18601Y25601
X18601Y24601
X21601Y24601
X22601Y24601
X22601Y25601
X21601Y25601
X19101Y27601
X19101Y28601
X25101Y28601
X25101Y27601
X25601Y25601
X25601Y24601
X25601Y17101
X26601Y17101
X27601Y17101
X27601Y14101
X26601Y14101
X25601Y14101
X25101Y6101
X26101Y6101
T02
X26701Y12601
X27701Y12601
X28701Y12601
X29701Y12601
X30701Y12601
X31701Y12601
X33701Y12601
X25101Y12601
X24101Y12601
X23101Y12601
X22101Y12601
X21101Y12601
X20101Y12601
X16101Y12601
X15101Y12601
X14101Y12601
X13101Y12601
X12101Y12601
X11101Y12601
X14101Y14601
X14101Y15601
X14101Y16601
X14101Y17601
X14101Y18601
X14101Y19601
X14101Y20601
X14101Y21601
X14101Y22601
X14101Y23601
X14101Y24601
X14101Y25601
X14101Y26601
X14101Y27601
X14101Y28601
X14101Y29601
X15101Y29601
X15101Y28601
X15101Y27601
X15101Y26601
X15101Y25601
X15101Y24601
X15101Y23601
X15101Y22601
X15101Y21601
X15101Y20601
X15101Y19601
X15101Y18601
X15101Y17601
X15101Y16601
X15101Y15601
X15101Y14601
X14101Y31601
X13101Y31601
X12101Y31601
X11101Y31601
X16101Y31601
X17101Y31601
X18101Y31601
X19101Y31601
X20101Y31601
X21101Y31601
X22101Y31601
X23101Y31601
X25101Y31601
X26101Y31601
X27101Y31601
X28101Y31601
X30101Y31601
T03
X30101Y2601
X29101Y2601
X31101Y2601
T04
X30601Y8101
X30601Y9101
X30601Y10101
X32101Y10101
X32101Y9101
X32101Y8101
X29101Y8101
X29101Y9101
X29101Y10101
X27101Y10101
X27101Y9101
X25601Y9101
X25601Y10101
X24101Y10101
X24101Y9101
X21601Y6101
X20601Y6101
X19601Y6101
X16601Y6101
X15601Y6101
X14601Y6101
X7601Y5101
X7601Y4101
X7601Y3101
X6601Y3101
X6601Y4101
X6601Y5101
X2101Y5101
X2101Y6101
X2101Y7101
X2101Y4101
X6601Y11101
X6601Y12101
X6601Y13101
X7601Y13101
X7601Y12101
X7601Y11101
X2101Y12101
X2101Y13101
X2101Y14101
X2101Y15101
X6601Y19101
X6601Y20101
X6601Y21101
X7601Y21101
X7601Y20101
X7601Y19101
X2101Y20101
X2101Y21101
X2101Y22101
X2101Y23101
X6601Y27101
X6601Y28101
X6601Y29101
X7601Y29101
X7601Y28101
X7601Y27101
X2101Y28101
X2101Y29101
X2101Y30101
X2101Y31101
X21101Y28601
X21101Y27601
X23101Y27601
X23101Y28601
X30101Y28101
X31101Y28101
X32101Y28101
X33101Y28101
X33101Y27101
X32101Y27101
X31101Y27101
X30101Y27101
X30101Y24601
X30101Y23601
X31101Y23601
X31101Y24601
X32101Y24601
X33101Y24601
X33101Y23601
X32101Y23601
X32101Y21101
X33101Y21101
X33101Y20101
X32101Y20101
X31101Y20101
X31101Y21101
X30101Y21101
X30101Y20101
X30101Y17601
X30101Y16601
X31101Y16601
X31101Y17601
X32101Y17601
X33101Y17601
X33101Y16601
X32101Y16601
T05
X25101Y33601
X21101Y33601
T06
X24617Y2601
X26585Y2601
T07
X20592Y2611
X18592Y2611
X15592Y2611
X13592Y2611
T08
X1601Y1601
X33601Y1601
X33601Y33601
X1601Y33601
M30
