G75*
G70*
%OFA0B0*%
%FSLAX24Y24*%
%IPPOS*%
%LPD*%
%AMOC8*
5,1,8,0,0,1.08239X$1,22.5*
%
%ADD10C,0.0000*%
%ADD11C,0.0600*%
%ADD12C,0.0554*%
%ADD13C,0.0705*%
%ADD14C,0.0787*%
%ADD15OC8,0.0630*%
%ADD16C,0.0630*%
%ADD17C,0.0660*%
%ADD18C,0.0594*%
%ADD19C,0.0520*%
%ADD20R,0.0520X0.0520*%
%ADD21OC8,0.0520*%
%ADD22OC8,0.0740*%
%ADD23C,0.0740*%
%ADD24C,0.0500*%
%ADD25C,0.0400*%
%ADD26C,0.0160*%
%ADD27C,0.1000*%
%ADD28C,0.0100*%
%ADD29C,0.0094*%
D10*
X000101Y000101D02*
X035101Y000101D01*
X035101Y035101D01*
X000101Y035101D01*
X000101Y000101D01*
X000971Y001601D02*
X000973Y001651D01*
X000979Y001701D01*
X000989Y001750D01*
X001003Y001798D01*
X001020Y001845D01*
X001041Y001890D01*
X001066Y001934D01*
X001094Y001975D01*
X001126Y002014D01*
X001160Y002051D01*
X001197Y002085D01*
X001237Y002115D01*
X001279Y002142D01*
X001323Y002166D01*
X001369Y002187D01*
X001416Y002203D01*
X001464Y002216D01*
X001514Y002225D01*
X001563Y002230D01*
X001614Y002231D01*
X001664Y002228D01*
X001713Y002221D01*
X001762Y002210D01*
X001810Y002195D01*
X001856Y002177D01*
X001901Y002155D01*
X001944Y002129D01*
X001985Y002100D01*
X002024Y002068D01*
X002060Y002033D01*
X002092Y001995D01*
X002122Y001955D01*
X002149Y001912D01*
X002172Y001868D01*
X002191Y001822D01*
X002207Y001774D01*
X002219Y001725D01*
X002227Y001676D01*
X002231Y001626D01*
X002231Y001576D01*
X002227Y001526D01*
X002219Y001477D01*
X002207Y001428D01*
X002191Y001380D01*
X002172Y001334D01*
X002149Y001290D01*
X002122Y001247D01*
X002092Y001207D01*
X002060Y001169D01*
X002024Y001134D01*
X001985Y001102D01*
X001944Y001073D01*
X001901Y001047D01*
X001856Y001025D01*
X001810Y001007D01*
X001762Y000992D01*
X001713Y000981D01*
X001664Y000974D01*
X001614Y000971D01*
X001563Y000972D01*
X001514Y000977D01*
X001464Y000986D01*
X001416Y000999D01*
X001369Y001015D01*
X001323Y001036D01*
X001279Y001060D01*
X001237Y001087D01*
X001197Y001117D01*
X001160Y001151D01*
X001126Y001188D01*
X001094Y001227D01*
X001066Y001268D01*
X001041Y001312D01*
X001020Y001357D01*
X001003Y001404D01*
X000989Y001452D01*
X000979Y001501D01*
X000973Y001551D01*
X000971Y001601D01*
X032971Y001601D02*
X032973Y001651D01*
X032979Y001701D01*
X032989Y001750D01*
X033003Y001798D01*
X033020Y001845D01*
X033041Y001890D01*
X033066Y001934D01*
X033094Y001975D01*
X033126Y002014D01*
X033160Y002051D01*
X033197Y002085D01*
X033237Y002115D01*
X033279Y002142D01*
X033323Y002166D01*
X033369Y002187D01*
X033416Y002203D01*
X033464Y002216D01*
X033514Y002225D01*
X033563Y002230D01*
X033614Y002231D01*
X033664Y002228D01*
X033713Y002221D01*
X033762Y002210D01*
X033810Y002195D01*
X033856Y002177D01*
X033901Y002155D01*
X033944Y002129D01*
X033985Y002100D01*
X034024Y002068D01*
X034060Y002033D01*
X034092Y001995D01*
X034122Y001955D01*
X034149Y001912D01*
X034172Y001868D01*
X034191Y001822D01*
X034207Y001774D01*
X034219Y001725D01*
X034227Y001676D01*
X034231Y001626D01*
X034231Y001576D01*
X034227Y001526D01*
X034219Y001477D01*
X034207Y001428D01*
X034191Y001380D01*
X034172Y001334D01*
X034149Y001290D01*
X034122Y001247D01*
X034092Y001207D01*
X034060Y001169D01*
X034024Y001134D01*
X033985Y001102D01*
X033944Y001073D01*
X033901Y001047D01*
X033856Y001025D01*
X033810Y001007D01*
X033762Y000992D01*
X033713Y000981D01*
X033664Y000974D01*
X033614Y000971D01*
X033563Y000972D01*
X033514Y000977D01*
X033464Y000986D01*
X033416Y000999D01*
X033369Y001015D01*
X033323Y001036D01*
X033279Y001060D01*
X033237Y001087D01*
X033197Y001117D01*
X033160Y001151D01*
X033126Y001188D01*
X033094Y001227D01*
X033066Y001268D01*
X033041Y001312D01*
X033020Y001357D01*
X033003Y001404D01*
X032989Y001452D01*
X032979Y001501D01*
X032973Y001551D01*
X032971Y001601D01*
X032971Y033601D02*
X032973Y033651D01*
X032979Y033701D01*
X032989Y033750D01*
X033003Y033798D01*
X033020Y033845D01*
X033041Y033890D01*
X033066Y033934D01*
X033094Y033975D01*
X033126Y034014D01*
X033160Y034051D01*
X033197Y034085D01*
X033237Y034115D01*
X033279Y034142D01*
X033323Y034166D01*
X033369Y034187D01*
X033416Y034203D01*
X033464Y034216D01*
X033514Y034225D01*
X033563Y034230D01*
X033614Y034231D01*
X033664Y034228D01*
X033713Y034221D01*
X033762Y034210D01*
X033810Y034195D01*
X033856Y034177D01*
X033901Y034155D01*
X033944Y034129D01*
X033985Y034100D01*
X034024Y034068D01*
X034060Y034033D01*
X034092Y033995D01*
X034122Y033955D01*
X034149Y033912D01*
X034172Y033868D01*
X034191Y033822D01*
X034207Y033774D01*
X034219Y033725D01*
X034227Y033676D01*
X034231Y033626D01*
X034231Y033576D01*
X034227Y033526D01*
X034219Y033477D01*
X034207Y033428D01*
X034191Y033380D01*
X034172Y033334D01*
X034149Y033290D01*
X034122Y033247D01*
X034092Y033207D01*
X034060Y033169D01*
X034024Y033134D01*
X033985Y033102D01*
X033944Y033073D01*
X033901Y033047D01*
X033856Y033025D01*
X033810Y033007D01*
X033762Y032992D01*
X033713Y032981D01*
X033664Y032974D01*
X033614Y032971D01*
X033563Y032972D01*
X033514Y032977D01*
X033464Y032986D01*
X033416Y032999D01*
X033369Y033015D01*
X033323Y033036D01*
X033279Y033060D01*
X033237Y033087D01*
X033197Y033117D01*
X033160Y033151D01*
X033126Y033188D01*
X033094Y033227D01*
X033066Y033268D01*
X033041Y033312D01*
X033020Y033357D01*
X033003Y033404D01*
X032989Y033452D01*
X032979Y033501D01*
X032973Y033551D01*
X032971Y033601D01*
X000971Y033601D02*
X000973Y033651D01*
X000979Y033701D01*
X000989Y033750D01*
X001003Y033798D01*
X001020Y033845D01*
X001041Y033890D01*
X001066Y033934D01*
X001094Y033975D01*
X001126Y034014D01*
X001160Y034051D01*
X001197Y034085D01*
X001237Y034115D01*
X001279Y034142D01*
X001323Y034166D01*
X001369Y034187D01*
X001416Y034203D01*
X001464Y034216D01*
X001514Y034225D01*
X001563Y034230D01*
X001614Y034231D01*
X001664Y034228D01*
X001713Y034221D01*
X001762Y034210D01*
X001810Y034195D01*
X001856Y034177D01*
X001901Y034155D01*
X001944Y034129D01*
X001985Y034100D01*
X002024Y034068D01*
X002060Y034033D01*
X002092Y033995D01*
X002122Y033955D01*
X002149Y033912D01*
X002172Y033868D01*
X002191Y033822D01*
X002207Y033774D01*
X002219Y033725D01*
X002227Y033676D01*
X002231Y033626D01*
X002231Y033576D01*
X002227Y033526D01*
X002219Y033477D01*
X002207Y033428D01*
X002191Y033380D01*
X002172Y033334D01*
X002149Y033290D01*
X002122Y033247D01*
X002092Y033207D01*
X002060Y033169D01*
X002024Y033134D01*
X001985Y033102D01*
X001944Y033073D01*
X001901Y033047D01*
X001856Y033025D01*
X001810Y033007D01*
X001762Y032992D01*
X001713Y032981D01*
X001664Y032974D01*
X001614Y032971D01*
X001563Y032972D01*
X001514Y032977D01*
X001464Y032986D01*
X001416Y032999D01*
X001369Y033015D01*
X001323Y033036D01*
X001279Y033060D01*
X001237Y033087D01*
X001197Y033117D01*
X001160Y033151D01*
X001126Y033188D01*
X001094Y033227D01*
X001066Y033268D01*
X001041Y033312D01*
X001020Y033357D01*
X001003Y033404D01*
X000989Y033452D01*
X000979Y033501D01*
X000973Y033551D01*
X000971Y033601D01*
D11*
X001801Y031101D02*
X002401Y031101D01*
X002401Y030101D02*
X001801Y030101D01*
X001801Y029101D02*
X002401Y029101D01*
X002401Y028101D02*
X001801Y028101D01*
X001801Y023101D02*
X002401Y023101D01*
X002401Y022101D02*
X001801Y022101D01*
X001801Y021101D02*
X002401Y021101D01*
X002401Y020101D02*
X001801Y020101D01*
X001801Y015101D02*
X002401Y015101D01*
X002401Y014101D02*
X001801Y014101D01*
X001801Y013101D02*
X002401Y013101D01*
X002401Y012101D02*
X001801Y012101D01*
X001801Y007101D02*
X002401Y007101D01*
X002401Y006101D02*
X001801Y006101D01*
X001801Y005101D02*
X002401Y005101D01*
X002401Y004101D02*
X001801Y004101D01*
X014601Y005801D02*
X014601Y006401D01*
X015601Y006401D02*
X015601Y005801D01*
X016601Y005801D02*
X016601Y006401D01*
X019601Y006401D02*
X019601Y005801D01*
X020601Y005801D02*
X020601Y006401D01*
X021601Y006401D02*
X021601Y005801D01*
X028801Y008101D02*
X029401Y008101D01*
X029401Y009101D02*
X028801Y009101D01*
X028801Y010101D02*
X029401Y010101D01*
X030301Y010101D02*
X030901Y010101D01*
X031801Y010101D02*
X032401Y010101D01*
X032401Y009101D02*
X031801Y009101D01*
X031801Y008101D02*
X032401Y008101D01*
X030901Y008101D02*
X030301Y008101D01*
X030301Y009101D02*
X030901Y009101D01*
D12*
X030701Y012601D03*
X031701Y012601D03*
X033701Y012601D03*
X029701Y012601D03*
X028701Y012601D03*
X027701Y012601D03*
X026701Y012601D03*
X025101Y012601D03*
X024101Y012601D03*
X023101Y012601D03*
X022101Y012601D03*
X021101Y012601D03*
X020101Y012601D03*
X016101Y012601D03*
X015101Y012601D03*
X014101Y012601D03*
X013101Y012601D03*
X012101Y012601D03*
X011101Y012601D03*
X014101Y014601D03*
X014101Y015601D03*
X014101Y016601D03*
X014101Y017601D03*
X014101Y018601D03*
X014101Y019601D03*
X014101Y020601D03*
X014101Y021601D03*
X014101Y022601D03*
X014101Y023601D03*
X014101Y024601D03*
X014101Y025601D03*
X014101Y026601D03*
X014101Y027601D03*
X014101Y028601D03*
X014101Y029601D03*
X015101Y029601D03*
X015101Y028601D03*
X015101Y027601D03*
X015101Y026601D03*
X015101Y025601D03*
X015101Y024601D03*
X015101Y023601D03*
X015101Y022601D03*
X015101Y021601D03*
X015101Y020601D03*
X015101Y019601D03*
X015101Y018601D03*
X015101Y017601D03*
X015101Y016601D03*
X015101Y015601D03*
X015101Y014601D03*
X014101Y031601D03*
X013101Y031601D03*
X012101Y031601D03*
X011101Y031601D03*
X016101Y031601D03*
X017101Y031601D03*
X018101Y031601D03*
X019101Y031601D03*
X020101Y031601D03*
X021101Y031601D03*
X022101Y031601D03*
X023101Y031601D03*
X025101Y031601D03*
X026101Y031601D03*
X027101Y031601D03*
X028101Y031601D03*
X030101Y031601D03*
D13*
X026585Y002953D02*
X026585Y002248D01*
X024617Y002248D02*
X024617Y002953D01*
D14*
X020592Y002611D03*
X018592Y002611D03*
X015592Y002611D03*
X013592Y002611D03*
D15*
X025101Y006101D03*
X025101Y027601D03*
X019101Y027601D03*
D16*
X019101Y028601D03*
X025101Y028601D03*
X026101Y006101D03*
D17*
X025101Y033601D03*
X021101Y033601D03*
D18*
X029101Y002898D02*
X029101Y002304D01*
X030101Y002304D02*
X030101Y002898D01*
X031101Y002898D02*
X031101Y002304D01*
D19*
X009101Y002101D03*
X009101Y003101D03*
X009101Y004101D03*
X009101Y005101D03*
X009101Y006101D03*
X009101Y007101D03*
X009101Y008101D03*
X009101Y009101D03*
X009101Y010101D03*
X009101Y011101D03*
X009101Y012101D03*
X009101Y013101D03*
X009101Y014101D03*
X009101Y015101D03*
X009101Y016101D03*
X009101Y017101D03*
X009101Y018101D03*
X009101Y019101D03*
X009101Y020101D03*
X009101Y021101D03*
X009101Y022101D03*
X009101Y023101D03*
X009101Y024101D03*
X009101Y025101D03*
X009101Y026101D03*
X009101Y027101D03*
X009101Y028101D03*
X009101Y029101D03*
X009101Y030101D03*
X009101Y031101D03*
X009101Y032101D03*
X009101Y033101D03*
X004101Y032101D03*
X004101Y031101D03*
X004101Y030101D03*
X004101Y029101D03*
X004101Y028101D03*
X004101Y026101D03*
X004101Y024101D03*
X004101Y023101D03*
X004101Y022101D03*
X004101Y021101D03*
X004101Y020101D03*
X004101Y018101D03*
X004101Y016101D03*
X004101Y015101D03*
X004101Y014101D03*
X004101Y013101D03*
X004101Y012101D03*
X004101Y010101D03*
X004101Y008101D03*
X004101Y007101D03*
X004101Y006101D03*
X004101Y005101D03*
X004101Y004101D03*
X004101Y002101D03*
D20*
X004101Y003101D03*
X004101Y009101D03*
X004101Y011101D03*
X004101Y017101D03*
X004101Y019101D03*
X004101Y025101D03*
X004101Y027101D03*
X004101Y033101D03*
D21*
X006601Y033101D03*
X006601Y030101D03*
X006601Y025101D03*
X006601Y022101D03*
X006601Y017101D03*
X006601Y014101D03*
X006601Y009101D03*
X006601Y006101D03*
X025601Y014101D03*
X026601Y014101D03*
X027601Y014101D03*
X027601Y017101D03*
X026601Y017101D03*
X025601Y017101D03*
X025601Y024601D03*
X025601Y025601D03*
X022601Y025601D03*
X021601Y025601D03*
X021601Y024601D03*
X022601Y024601D03*
X018601Y024601D03*
X018601Y025601D03*
D22*
X030101Y024601D03*
X030101Y023601D03*
X031101Y023601D03*
X031101Y024601D03*
X032101Y024601D03*
X033101Y024601D03*
X033101Y023601D03*
X032101Y023601D03*
X032101Y021101D03*
X033101Y021101D03*
X033101Y020101D03*
X032101Y020101D03*
X031101Y020101D03*
X031101Y021101D03*
X030101Y021101D03*
X030101Y020101D03*
X030101Y017601D03*
X030101Y016601D03*
X031101Y016601D03*
X031101Y017601D03*
X032101Y017601D03*
X033101Y017601D03*
X033101Y016601D03*
X032101Y016601D03*
X032101Y027101D03*
X033101Y027101D03*
X033101Y028101D03*
X032101Y028101D03*
X031101Y028101D03*
X031101Y027101D03*
X030101Y027101D03*
X030101Y028101D03*
D23*
X023101Y028601D03*
X023101Y027601D03*
X021101Y027601D03*
X021101Y028601D03*
X007601Y029101D03*
X007601Y028101D03*
X007601Y027101D03*
X006601Y027101D03*
X006601Y028101D03*
X006601Y029101D03*
X006601Y021101D03*
X006601Y020101D03*
X007601Y020101D03*
X007601Y021101D03*
X007601Y019101D03*
X006601Y019101D03*
X006601Y013101D03*
X007601Y013101D03*
X007601Y012101D03*
X007601Y011101D03*
X006601Y011101D03*
X006601Y012101D03*
X006601Y005101D03*
X007601Y005101D03*
X007601Y004101D03*
X007601Y003101D03*
X006601Y003101D03*
X006601Y004101D03*
X024101Y009101D03*
X024101Y010101D03*
X025601Y010101D03*
X025601Y009101D03*
X027101Y009101D03*
X027101Y010101D03*
D24*
X025101Y006101D02*
X024617Y005617D01*
X024617Y004101D01*
X024617Y002601D01*
D25*
X025269Y002601D01*
X025269Y002996D01*
X025258Y003081D01*
X025236Y003164D01*
X025203Y003243D01*
X025160Y003317D01*
X025108Y003384D01*
X025048Y003445D01*
X024980Y003497D01*
X024906Y003540D01*
X024827Y003572D01*
X024744Y003595D01*
X024659Y003606D01*
X024617Y003606D01*
X024617Y002601D01*
X024617Y002601D01*
X024616Y002601D01*
X024616Y002601D01*
X023964Y002601D01*
X023964Y002996D01*
X023975Y003081D01*
X023997Y003164D01*
X024030Y003243D01*
X024073Y003317D01*
X024125Y003384D01*
X024185Y003445D01*
X024253Y003497D01*
X024327Y003540D01*
X024406Y003572D01*
X024489Y003595D01*
X024574Y003606D01*
X024616Y003606D01*
X024616Y002601D01*
X023964Y002601D01*
X023964Y002205D01*
X023975Y002121D01*
X023997Y002038D01*
X024030Y001959D01*
X024073Y001885D01*
X024125Y001817D01*
X024185Y001757D01*
X024253Y001705D01*
X024327Y001662D01*
X024406Y001629D01*
X024489Y001607D01*
X024574Y001596D01*
X024616Y001596D01*
X024616Y002600D01*
X024617Y002600D01*
X024617Y001596D01*
X024659Y001596D01*
X024744Y001607D01*
X024827Y001629D01*
X024906Y001662D01*
X024980Y001705D01*
X025048Y001757D01*
X025108Y001817D01*
X025160Y001885D01*
X025203Y001959D01*
X025236Y002038D01*
X025258Y002121D01*
X025269Y002205D01*
X025269Y002601D01*
X024617Y002601D01*
X024616Y002492D02*
X024617Y002492D01*
X024616Y002891D02*
X024617Y002891D01*
X024616Y003289D02*
X024617Y003289D01*
X025176Y003289D02*
X025913Y003289D01*
X025950Y003378D02*
X025836Y003102D01*
X025836Y002099D01*
X025950Y001824D01*
X026161Y001613D01*
X026436Y001499D01*
X026734Y001499D01*
X027009Y001613D01*
X027220Y001824D01*
X027334Y002099D01*
X027334Y003102D01*
X027220Y003378D01*
X027009Y003589D01*
X026734Y003703D01*
X026436Y003703D01*
X026161Y003589D01*
X025950Y003378D01*
X025836Y002891D02*
X025269Y002891D01*
X025269Y002492D02*
X025836Y002492D01*
X025838Y002094D02*
X025251Y002094D01*
X024963Y001695D02*
X026079Y001695D01*
X027091Y001695D02*
X029758Y001695D01*
X029708Y001716D02*
X029963Y001610D01*
X030239Y001610D01*
X030494Y001716D01*
X030601Y001823D01*
X030708Y001716D01*
X030963Y001610D01*
X031239Y001610D01*
X031494Y001716D01*
X031689Y001911D01*
X031794Y002166D01*
X031794Y003036D01*
X031689Y003291D01*
X031494Y003486D01*
X031239Y003591D01*
X030963Y003591D01*
X030708Y003486D01*
X030601Y003379D01*
X030494Y003486D01*
X030239Y003591D01*
X029963Y003591D01*
X029708Y003486D01*
X029532Y003310D01*
X029490Y003353D01*
X029414Y003408D01*
X029330Y003451D01*
X029241Y003480D01*
X029148Y003494D01*
X029101Y003494D01*
X029101Y002601D01*
X029101Y002601D01*
X029101Y004101D01*
X024617Y004101D01*
X024057Y003289D02*
X021020Y003289D01*
X021040Y003281D02*
X020750Y003401D01*
X020435Y003401D01*
X020145Y003281D01*
X019922Y003058D01*
X019802Y002768D01*
X019802Y002453D01*
X019922Y002163D01*
X020145Y001940D01*
X020435Y001820D01*
X020750Y001820D01*
X021040Y001940D01*
X021263Y002163D01*
X021383Y002453D01*
X021383Y002768D01*
X021263Y003058D01*
X021040Y003281D01*
X021332Y002891D02*
X023964Y002891D01*
X023964Y002492D02*
X021383Y002492D01*
X021193Y002094D02*
X023982Y002094D01*
X024270Y001695D02*
X009624Y001695D01*
X009658Y001729D02*
X009758Y001970D01*
X009758Y002231D01*
X009658Y002473D01*
X009530Y002601D01*
X009658Y002729D01*
X009758Y002970D01*
X009758Y003231D01*
X009658Y003473D01*
X009530Y003601D01*
X009658Y003729D01*
X009758Y003970D01*
X009758Y004231D01*
X009658Y004473D01*
X009530Y004601D01*
X009658Y004729D01*
X009758Y004970D01*
X009758Y005231D01*
X009658Y005473D01*
X009530Y005601D01*
X009658Y005729D01*
X009758Y005970D01*
X009758Y006231D01*
X009658Y006473D01*
X009530Y006601D01*
X009658Y006729D01*
X009758Y006970D01*
X009758Y007231D01*
X009658Y007473D01*
X009530Y007601D01*
X009658Y007729D01*
X009758Y007970D01*
X009758Y008231D01*
X009658Y008473D01*
X009530Y008601D01*
X009658Y008729D01*
X009758Y008970D01*
X009758Y009231D01*
X009658Y009473D01*
X009530Y009601D01*
X009658Y009729D01*
X009758Y009970D01*
X009758Y010231D01*
X009658Y010473D01*
X009530Y010601D01*
X009658Y010729D01*
X009758Y010970D01*
X009758Y011231D01*
X009658Y011473D01*
X009530Y011601D01*
X009658Y011729D01*
X009758Y011970D01*
X009758Y012231D01*
X009658Y012473D01*
X009530Y012601D01*
X009658Y012729D01*
X009758Y012970D01*
X009758Y013231D01*
X009658Y013473D01*
X009530Y013601D01*
X009658Y013729D01*
X009758Y013970D01*
X009758Y014231D01*
X009658Y014473D01*
X009530Y014601D01*
X009658Y014729D01*
X009758Y014970D01*
X009758Y015231D01*
X009658Y015473D01*
X009530Y015601D01*
X009658Y015729D01*
X009758Y015970D01*
X009758Y016231D01*
X009658Y016473D01*
X009530Y016601D01*
X009658Y016729D01*
X009758Y016970D01*
X009758Y017231D01*
X009658Y017473D01*
X009530Y017601D01*
X009658Y017729D01*
X009758Y017970D01*
X009758Y018231D01*
X009658Y018473D01*
X009530Y018601D01*
X009658Y018729D01*
X009758Y018970D01*
X009758Y019231D01*
X013524Y019231D01*
X013529Y019219D02*
X013648Y019101D01*
X013529Y018983D01*
X013427Y018735D01*
X013427Y018467D01*
X013529Y018219D01*
X013648Y018101D01*
X013529Y017983D01*
X013427Y017735D01*
X013427Y017467D01*
X013529Y017219D01*
X013648Y017101D01*
X013529Y016983D01*
X013427Y016735D01*
X013427Y016467D01*
X013529Y016219D01*
X013648Y016101D01*
X013529Y015983D01*
X013427Y015735D01*
X013427Y015467D01*
X013529Y015219D01*
X013648Y015101D01*
X013529Y014983D01*
X013427Y014735D01*
X013427Y014467D01*
X013529Y014219D01*
X013719Y014029D01*
X013967Y013927D01*
X014235Y013927D01*
X014483Y014029D01*
X014601Y014148D01*
X014719Y014029D01*
X014967Y013927D01*
X015235Y013927D01*
X015483Y014029D01*
X015672Y014219D01*
X015775Y014467D01*
X015775Y014735D01*
X015672Y014983D01*
X015554Y015101D01*
X015672Y015219D01*
X015775Y015467D01*
X015775Y015735D01*
X015672Y015983D01*
X015554Y016101D01*
X015672Y016219D01*
X015775Y016467D01*
X015775Y016735D01*
X015672Y016983D01*
X015554Y017101D01*
X015672Y017219D01*
X015775Y017467D01*
X015775Y017735D01*
X015672Y017983D01*
X015554Y018101D01*
X015672Y018219D01*
X015775Y018467D01*
X015775Y018735D01*
X015672Y018983D01*
X015554Y019101D01*
X015672Y019219D01*
X015775Y019467D01*
X015775Y019735D01*
X015672Y019983D01*
X015554Y020101D01*
X015672Y020219D01*
X015775Y020467D01*
X015775Y020735D01*
X015672Y020983D01*
X015554Y021101D01*
X015672Y021219D01*
X015775Y021467D01*
X015775Y021735D01*
X015672Y021983D01*
X015554Y022101D01*
X015672Y022219D01*
X015775Y022467D01*
X015775Y022735D01*
X015672Y022983D01*
X015554Y023101D01*
X015672Y023219D01*
X015775Y023467D01*
X015775Y023735D01*
X015672Y023983D01*
X015554Y024101D01*
X015672Y024219D01*
X015775Y024467D01*
X015775Y024735D01*
X015672Y024983D01*
X015554Y025101D01*
X015672Y025219D01*
X015775Y025467D01*
X015775Y025735D01*
X015672Y025983D01*
X015554Y026101D01*
X015672Y026219D01*
X015775Y026467D01*
X015775Y026735D01*
X015672Y026983D01*
X015554Y027101D01*
X015672Y027219D01*
X015775Y027467D01*
X015775Y027735D01*
X015672Y027983D01*
X015554Y028101D01*
X015672Y028219D01*
X015775Y028467D01*
X015775Y028735D01*
X015672Y028983D01*
X015554Y029101D01*
X015672Y029219D01*
X015775Y029467D01*
X015775Y029735D01*
X015672Y029983D01*
X015483Y030172D01*
X015235Y030275D01*
X014967Y030275D01*
X014719Y030172D01*
X014601Y030054D01*
X014483Y030172D01*
X014235Y030275D01*
X013967Y030275D01*
X013719Y030172D01*
X013529Y029983D01*
X013427Y029735D01*
X013427Y029467D01*
X013529Y029219D01*
X013648Y029101D01*
X013529Y028983D01*
X013427Y028735D01*
X013427Y028467D01*
X013529Y028219D01*
X013648Y028101D01*
X013529Y027983D01*
X013427Y027735D01*
X013427Y027467D01*
X013529Y027219D01*
X013648Y027101D01*
X013529Y026983D01*
X013427Y026735D01*
X013427Y026467D01*
X013529Y026219D01*
X013648Y026101D01*
X013529Y025983D01*
X013427Y025735D01*
X013427Y025467D01*
X013529Y025219D01*
X013648Y025101D01*
X013529Y024983D01*
X013427Y024735D01*
X013427Y024467D01*
X013529Y024219D01*
X013648Y024101D01*
X013529Y023983D01*
X013427Y023735D01*
X013427Y023467D01*
X013529Y023219D01*
X013648Y023101D01*
X013529Y022983D01*
X013427Y022735D01*
X013427Y022467D01*
X013529Y022219D01*
X013648Y022101D01*
X013529Y021983D01*
X013427Y021735D01*
X013427Y021467D01*
X013529Y021219D01*
X013648Y021101D01*
X013529Y020983D01*
X013427Y020735D01*
X013427Y020467D01*
X013529Y020219D01*
X013648Y020101D01*
X013529Y019983D01*
X013427Y019735D01*
X013427Y019467D01*
X013529Y019219D01*
X013467Y018832D02*
X009701Y018832D01*
X009674Y018434D02*
X013440Y018434D01*
X013101Y018601D02*
X010101Y015601D01*
X010101Y006601D01*
X011601Y004601D01*
X017101Y004601D01*
X016831Y005245D02*
X016915Y005288D01*
X016992Y005343D01*
X017058Y005410D01*
X017114Y005486D01*
X017157Y005570D01*
X017186Y005660D01*
X017201Y005754D01*
X017201Y006101D01*
X017201Y006448D01*
X017186Y006541D01*
X017157Y006631D01*
X017114Y006715D01*
X017058Y006792D01*
X016992Y006858D01*
X016915Y006914D01*
X016831Y006957D01*
X016741Y006986D01*
X016648Y007001D01*
X016601Y007001D01*
X016601Y006101D01*
X017201Y006101D01*
X016601Y006101D01*
X016601Y006101D01*
X016601Y006101D01*
X016601Y007001D01*
X016554Y007001D01*
X016460Y006986D01*
X016370Y006957D01*
X016286Y006914D01*
X016210Y006858D01*
X016169Y006818D01*
X015996Y006991D01*
X015739Y007098D01*
X015462Y007098D01*
X015206Y006991D01*
X015101Y006886D01*
X015081Y006906D01*
X020101Y011927D01*
X020235Y011927D01*
X020483Y012029D01*
X020601Y012148D01*
X020624Y012124D01*
X020624Y010798D01*
X019197Y009371D01*
X019124Y009196D01*
X019124Y009006D01*
X019124Y006909D01*
X019010Y006796D01*
X018904Y006539D01*
X018904Y005662D01*
X019010Y005406D01*
X019206Y005210D01*
X019462Y005104D01*
X019739Y005104D01*
X019996Y005210D01*
X020101Y005315D01*
X020206Y005210D01*
X020462Y005104D01*
X020739Y005104D01*
X020996Y005210D01*
X021169Y005384D01*
X021210Y005343D01*
X021286Y005288D01*
X021370Y005245D01*
X021460Y005216D01*
X021554Y005201D01*
X021601Y005201D01*
X021648Y005201D01*
X021741Y005216D01*
X021831Y005245D01*
X021915Y005288D01*
X021992Y005343D01*
X022058Y005410D01*
X022114Y005486D01*
X022157Y005570D01*
X022186Y005660D01*
X022201Y005754D01*
X022201Y006101D01*
X022201Y006448D01*
X022186Y006541D01*
X022157Y006631D01*
X022114Y006715D01*
X022058Y006792D01*
X021992Y006858D01*
X021915Y006914D01*
X021831Y006957D01*
X021741Y006986D01*
X021648Y007001D01*
X021601Y007001D01*
X021601Y006101D01*
X021601Y006101D01*
X022201Y006101D01*
X021601Y006101D01*
X021601Y006101D01*
X021601Y007001D01*
X021554Y007001D01*
X021460Y006986D01*
X021370Y006957D01*
X021286Y006914D01*
X021210Y006858D01*
X021169Y006818D01*
X020996Y006991D01*
X020739Y007098D01*
X020462Y007098D01*
X020206Y006991D01*
X020101Y006886D01*
X020078Y006909D01*
X020078Y008903D01*
X021371Y010197D01*
X021505Y010331D01*
X021578Y010506D01*
X021578Y012124D01*
X021601Y012148D01*
X021719Y012029D01*
X021967Y011927D01*
X022235Y011927D01*
X022483Y012029D01*
X022601Y012148D01*
X022719Y012029D01*
X022967Y011927D01*
X023235Y011927D01*
X023483Y012029D01*
X023601Y012148D01*
X023719Y012029D01*
X023967Y011927D01*
X024235Y011927D01*
X024483Y012029D01*
X024601Y012148D01*
X024719Y012029D01*
X024967Y011927D01*
X025235Y011927D01*
X025483Y012029D01*
X025672Y012219D01*
X025775Y012467D01*
X025775Y012735D01*
X025672Y012983D01*
X025483Y013172D01*
X025235Y013275D01*
X024967Y013275D01*
X024719Y013172D01*
X024601Y013054D01*
X024483Y013172D01*
X024235Y013275D01*
X023967Y013275D01*
X023719Y013172D01*
X023601Y013054D01*
X023483Y013172D01*
X023235Y013275D01*
X022967Y013275D01*
X022719Y013172D01*
X022601Y013054D01*
X022483Y013172D01*
X022235Y013275D01*
X021967Y013275D01*
X021719Y013172D01*
X021601Y013054D01*
X021483Y013172D01*
X021235Y013275D01*
X020967Y013275D01*
X020719Y013172D01*
X020601Y013054D01*
X020483Y013172D01*
X020235Y013275D01*
X019967Y013275D01*
X019719Y013172D01*
X019529Y012983D01*
X019427Y012735D01*
X019427Y012601D01*
X014197Y007371D01*
X014124Y007196D01*
X014124Y007006D01*
X014124Y006909D01*
X014010Y006796D01*
X013904Y006539D01*
X013904Y005662D01*
X014010Y005406D01*
X014206Y005210D01*
X014462Y005104D01*
X014739Y005104D01*
X014996Y005210D01*
X015101Y005315D01*
X015206Y005210D01*
X015462Y005104D01*
X015739Y005104D01*
X015996Y005210D01*
X016169Y005384D01*
X016210Y005343D01*
X016286Y005288D01*
X016370Y005245D01*
X016460Y005216D01*
X016554Y005201D01*
X016601Y005201D01*
X016648Y005201D01*
X016741Y005216D01*
X016831Y005245D01*
X016904Y005282D02*
X019134Y005282D01*
X018904Y005680D02*
X017189Y005680D01*
X017201Y006079D02*
X018904Y006079D01*
X018904Y006477D02*
X017196Y006477D01*
X016967Y006876D02*
X019091Y006876D01*
X019124Y007275D02*
X015449Y007275D01*
X015847Y007673D02*
X019124Y007673D01*
X019124Y008072D02*
X016246Y008072D01*
X016644Y008470D02*
X019124Y008470D01*
X019124Y008869D02*
X017043Y008869D01*
X017442Y009267D02*
X019154Y009267D01*
X019491Y009666D02*
X017840Y009666D01*
X018239Y010064D02*
X019890Y010064D01*
X020289Y010463D02*
X018637Y010463D01*
X019036Y010861D02*
X020624Y010861D01*
X020624Y011260D02*
X019434Y011260D01*
X019833Y011659D02*
X020624Y011659D01*
X020624Y012057D02*
X020510Y012057D01*
X021578Y012057D02*
X021691Y012057D01*
X021578Y011659D02*
X034101Y011659D01*
X034083Y012029D02*
X034101Y012048D01*
X034101Y002498D01*
X033997Y002558D01*
X033736Y002628D01*
X033466Y002628D01*
X033204Y002558D01*
X032970Y002422D01*
X032779Y002231D01*
X032644Y001997D01*
X032574Y001736D01*
X032574Y001466D01*
X032644Y001204D01*
X032704Y001101D01*
X003101Y001101D01*
X003101Y034101D01*
X004757Y034101D01*
X004595Y033939D01*
X004504Y033719D01*
X004504Y033626D01*
X004503Y033627D01*
X004448Y033649D01*
X004390Y033661D01*
X004101Y033661D01*
X004101Y033101D01*
X004101Y033101D01*
X003101Y033101D01*
X003101Y027101D01*
X003101Y025101D01*
X003101Y019101D01*
X003101Y017101D01*
X003101Y011101D01*
X003101Y009101D01*
X003101Y003101D01*
X004101Y003101D01*
X004661Y003101D01*
X004661Y003390D01*
X004649Y003448D01*
X004627Y003503D01*
X004594Y003552D01*
X004552Y003594D01*
X004534Y003606D01*
X004658Y003729D01*
X004758Y003970D01*
X004758Y004231D01*
X004658Y004473D01*
X004530Y004601D01*
X004658Y004729D01*
X004758Y004970D01*
X004758Y005231D01*
X004658Y005473D01*
X004530Y005601D01*
X004658Y005729D01*
X004758Y005970D01*
X004758Y006231D01*
X004658Y006473D01*
X004530Y006601D01*
X004658Y006729D01*
X004758Y006970D01*
X004758Y007231D01*
X004658Y007473D01*
X004626Y007504D01*
X005219Y007504D01*
X005439Y007595D01*
X005607Y007763D01*
X005698Y007982D01*
X005698Y008219D01*
X005698Y008624D01*
X006149Y008624D01*
X006329Y008444D01*
X006873Y008444D01*
X007258Y008829D01*
X007258Y009373D01*
X006873Y009758D01*
X006329Y009758D01*
X006149Y009578D01*
X005698Y009578D01*
X005698Y016219D01*
X005698Y016624D01*
X006149Y016624D01*
X006329Y016444D01*
X006873Y016444D01*
X007258Y016829D01*
X007258Y017373D01*
X006873Y017758D01*
X006329Y017758D01*
X006149Y017578D01*
X005698Y017578D01*
X005698Y024219D01*
X005698Y024624D01*
X006149Y024624D01*
X006329Y024444D01*
X006873Y024444D01*
X007258Y024829D01*
X007258Y025373D01*
X006873Y025758D01*
X006329Y025758D01*
X006149Y025578D01*
X005698Y025578D01*
X005698Y031982D01*
X005698Y032624D01*
X006149Y032624D01*
X006329Y032444D01*
X006873Y032444D01*
X007258Y032829D01*
X007258Y033373D01*
X007126Y033504D01*
X008575Y033504D01*
X008544Y033473D01*
X008444Y033231D01*
X008444Y032970D01*
X008544Y032729D01*
X008672Y032601D01*
X008544Y032473D01*
X008444Y032231D01*
X008444Y031970D01*
X008544Y031729D01*
X008672Y031601D01*
X008544Y031473D01*
X008444Y031231D01*
X008444Y030970D01*
X008544Y030729D01*
X008672Y030601D01*
X008544Y030473D01*
X008444Y030231D01*
X008444Y029970D01*
X008544Y029729D01*
X008672Y029601D01*
X008544Y029473D01*
X008444Y029231D01*
X008444Y028970D01*
X008544Y028729D01*
X008672Y028601D01*
X008544Y028473D01*
X008444Y028231D01*
X008444Y027970D01*
X008544Y027729D01*
X008672Y027601D01*
X008544Y027473D01*
X008444Y027231D01*
X008444Y026970D01*
X008544Y026729D01*
X008672Y026601D01*
X008544Y026473D01*
X008444Y026231D01*
X008444Y025970D01*
X008544Y025729D01*
X008672Y025601D01*
X008544Y025473D01*
X008444Y025231D01*
X008444Y024970D01*
X008544Y024729D01*
X008672Y024601D01*
X008544Y024473D01*
X008444Y024231D01*
X008444Y023970D01*
X008544Y023729D01*
X008672Y023601D01*
X008544Y023473D01*
X008444Y023231D01*
X008444Y022970D01*
X008544Y022729D01*
X008672Y022601D01*
X008544Y022473D01*
X008444Y022231D01*
X008444Y021970D01*
X008544Y021729D01*
X008672Y021601D01*
X008544Y021473D01*
X008444Y021231D01*
X008444Y020970D01*
X008544Y020729D01*
X008672Y020601D01*
X008544Y020473D01*
X008444Y020231D01*
X008444Y019970D01*
X008544Y019729D01*
X008672Y019601D01*
X008544Y019473D01*
X008444Y019231D01*
X008368Y019231D01*
X008368Y019253D02*
X008251Y019535D01*
X008185Y019601D01*
X008251Y019666D01*
X008368Y019948D01*
X008368Y020253D01*
X008251Y020535D01*
X008185Y020601D01*
X008251Y020666D01*
X008368Y020948D01*
X008368Y021253D01*
X008251Y021535D01*
X008035Y021751D01*
X007753Y021868D01*
X007448Y021868D01*
X007189Y021760D01*
X007258Y021829D01*
X007258Y022373D01*
X006873Y022758D01*
X006329Y022758D01*
X005944Y022373D01*
X005944Y021829D01*
X006094Y021679D01*
X005951Y021535D01*
X005834Y021253D01*
X005834Y020948D01*
X005951Y020666D01*
X006016Y020601D01*
X005951Y020535D01*
X005834Y020253D01*
X005834Y019948D01*
X005951Y019666D01*
X006016Y019601D01*
X005951Y019535D01*
X005834Y019253D01*
X005834Y018948D01*
X005951Y018666D01*
X006166Y018451D01*
X006448Y018334D01*
X006753Y018334D01*
X007035Y018451D01*
X007101Y018516D01*
X007166Y018451D01*
X007448Y018334D01*
X007753Y018334D01*
X008035Y018451D01*
X008251Y018666D01*
X008368Y018948D01*
X008368Y019253D01*
X008444Y019231D02*
X008444Y018970D01*
X008544Y018729D01*
X008672Y018601D01*
X008544Y018473D01*
X008444Y018231D01*
X008444Y017970D01*
X008544Y017729D01*
X008672Y017601D01*
X008544Y017473D01*
X008444Y017231D01*
X008444Y016970D01*
X008544Y016729D01*
X008672Y016601D01*
X008544Y016473D01*
X008444Y016231D01*
X008444Y015970D01*
X008544Y015729D01*
X008672Y015601D01*
X008544Y015473D01*
X008444Y015231D01*
X008444Y014970D01*
X008544Y014729D01*
X008672Y014601D01*
X008544Y014473D01*
X008444Y014231D01*
X008444Y013970D01*
X008544Y013729D01*
X008672Y013601D01*
X008544Y013473D01*
X008444Y013231D01*
X008444Y012970D01*
X008544Y012729D01*
X008672Y012601D01*
X008544Y012473D01*
X008444Y012231D01*
X008444Y011970D01*
X008544Y011729D01*
X008672Y011601D01*
X008544Y011473D01*
X008444Y011231D01*
X008444Y010970D01*
X008544Y010729D01*
X008672Y010601D01*
X008544Y010473D01*
X008444Y010231D01*
X008444Y009970D01*
X008544Y009729D01*
X008672Y009601D01*
X008544Y009473D01*
X008444Y009231D01*
X008444Y008970D01*
X008544Y008729D01*
X008672Y008601D01*
X008544Y008473D01*
X008444Y008231D01*
X008444Y007970D01*
X008544Y007729D01*
X008672Y007601D01*
X008544Y007473D01*
X008444Y007231D01*
X008444Y006970D01*
X008544Y006729D01*
X008672Y006601D01*
X008544Y006473D01*
X008444Y006231D01*
X008444Y005970D01*
X008544Y005729D01*
X008672Y005601D01*
X008544Y005473D01*
X008444Y005231D01*
X008444Y004970D01*
X008544Y004729D01*
X008672Y004601D01*
X008544Y004473D01*
X008444Y004231D01*
X008444Y003970D01*
X008544Y003729D01*
X008672Y003601D01*
X008544Y003473D01*
X008444Y003231D01*
X008444Y002970D01*
X008544Y002729D01*
X008672Y002601D01*
X008544Y002473D01*
X008444Y002231D01*
X008444Y001970D01*
X008544Y001729D01*
X008729Y001544D01*
X008970Y001444D01*
X009231Y001444D01*
X009473Y001544D01*
X009658Y001729D01*
X009758Y002094D02*
X012992Y002094D01*
X012922Y002163D02*
X013145Y001940D01*
X013435Y001820D01*
X013750Y001820D01*
X014040Y001940D01*
X014263Y002163D01*
X014383Y002453D01*
X014383Y002768D01*
X014263Y003058D01*
X014040Y003281D01*
X013750Y003401D01*
X013435Y003401D01*
X013145Y003281D01*
X012922Y003058D01*
X012802Y002768D01*
X012802Y002453D01*
X012922Y002163D01*
X012802Y002492D02*
X009638Y002492D01*
X009725Y002891D02*
X012853Y002891D01*
X013165Y003289D02*
X009734Y003289D01*
X009617Y003688D02*
X026400Y003688D01*
X026770Y003688D02*
X034101Y003688D01*
X034101Y004086D02*
X009758Y004086D01*
X009646Y004485D02*
X034101Y004485D01*
X034101Y004883D02*
X009722Y004883D01*
X009737Y005282D02*
X014134Y005282D01*
X013904Y005680D02*
X009609Y005680D01*
X009758Y006079D02*
X013904Y006079D01*
X013904Y006477D02*
X009653Y006477D01*
X009719Y006876D02*
X014091Y006876D01*
X014157Y007275D02*
X009740Y007275D01*
X009602Y007673D02*
X014499Y007673D01*
X014897Y008072D02*
X009758Y008072D01*
X009659Y008470D02*
X015296Y008470D01*
X015694Y008869D02*
X009716Y008869D01*
X009743Y009267D02*
X016093Y009267D01*
X016491Y009666D02*
X009595Y009666D01*
X009758Y010064D02*
X016890Y010064D01*
X017289Y010463D02*
X009662Y010463D01*
X009713Y010861D02*
X017687Y010861D01*
X018086Y011260D02*
X009746Y011260D01*
X009587Y011659D02*
X018484Y011659D01*
X018883Y012057D02*
X016510Y012057D01*
X016483Y012029D02*
X016672Y012219D01*
X016775Y012467D01*
X016775Y012735D01*
X016672Y012983D01*
X016483Y013172D01*
X016235Y013275D01*
X015967Y013275D01*
X015719Y013172D01*
X015601Y013054D01*
X015483Y013172D01*
X015235Y013275D01*
X014967Y013275D01*
X014719Y013172D01*
X014601Y013054D01*
X014483Y013172D01*
X014235Y013275D01*
X013967Y013275D01*
X013719Y013172D01*
X013601Y013054D01*
X013483Y013172D01*
X013235Y013275D01*
X012967Y013275D01*
X012719Y013172D01*
X012601Y013054D01*
X012483Y013172D01*
X012235Y013275D01*
X011967Y013275D01*
X011719Y013172D01*
X011601Y013054D01*
X011483Y013172D01*
X011235Y013275D01*
X010967Y013275D01*
X010719Y013172D01*
X010529Y012983D01*
X010427Y012735D01*
X010427Y012467D01*
X010529Y012219D01*
X010719Y012029D01*
X010967Y011927D01*
X011235Y011927D01*
X011483Y012029D01*
X011601Y012148D01*
X011719Y012029D01*
X011967Y011927D01*
X012235Y011927D01*
X012483Y012029D01*
X012601Y012148D01*
X012719Y012029D01*
X012967Y011927D01*
X013235Y011927D01*
X013483Y012029D01*
X013601Y012148D01*
X013719Y012029D01*
X013967Y011927D01*
X014235Y011927D01*
X014483Y012029D01*
X014601Y012148D01*
X014719Y012029D01*
X014967Y011927D01*
X015235Y011927D01*
X015483Y012029D01*
X015601Y012148D01*
X015719Y012029D01*
X015967Y011927D01*
X016235Y011927D01*
X016483Y012029D01*
X016770Y012456D02*
X019281Y012456D01*
X019476Y012854D02*
X016725Y012854D01*
X016288Y013253D02*
X019913Y013253D01*
X020288Y013253D02*
X020913Y013253D01*
X021288Y013253D02*
X021913Y013253D01*
X022288Y013253D02*
X022913Y013253D01*
X023288Y013253D02*
X023913Y013253D01*
X024288Y013253D02*
X024913Y013253D01*
X025288Y013253D02*
X026513Y013253D01*
X026567Y013275D02*
X026319Y013172D01*
X026129Y012983D01*
X026027Y012735D01*
X026027Y012467D01*
X026129Y012219D01*
X026319Y012029D01*
X026567Y011927D01*
X026835Y011927D01*
X027083Y012029D01*
X027201Y012148D01*
X027319Y012029D01*
X027567Y011927D01*
X027835Y011927D01*
X028083Y012029D01*
X028201Y012148D01*
X028319Y012029D01*
X028567Y011927D01*
X028835Y011927D01*
X029083Y012029D01*
X029201Y012148D01*
X029319Y012029D01*
X029567Y011927D01*
X029835Y011927D01*
X030083Y012029D01*
X030201Y012148D01*
X030319Y012029D01*
X030567Y011927D01*
X030835Y011927D01*
X031083Y012029D01*
X031201Y012148D01*
X031319Y012029D01*
X031567Y011927D01*
X031835Y011927D01*
X032083Y012029D01*
X032272Y012219D01*
X032375Y012467D01*
X032375Y012623D01*
X032848Y013069D01*
X032854Y013072D01*
X032912Y013130D01*
X032972Y013187D01*
X032975Y013193D01*
X032980Y013198D01*
X033011Y013273D01*
X033045Y013349D01*
X033045Y013356D01*
X033048Y013362D01*
X033048Y013444D01*
X033050Y013527D01*
X033048Y013533D01*
X033048Y015834D01*
X033418Y015834D01*
X033868Y016283D01*
X033868Y016918D01*
X033617Y017169D01*
X033771Y017323D01*
X033771Y017601D01*
X033771Y017878D01*
X033378Y018271D01*
X033101Y018271D01*
X033101Y017601D01*
X033101Y017601D01*
X033771Y017601D01*
X033101Y017601D01*
X033101Y017601D01*
X034101Y017601D01*
X034101Y014351D01*
X032601Y012851D01*
X032601Y011601D01*
X033601Y010601D01*
X033601Y009101D01*
X032101Y009101D01*
X033001Y009101D01*
X033001Y009148D01*
X032986Y009241D01*
X032957Y009331D01*
X032914Y009415D01*
X032858Y009492D01*
X032818Y009532D01*
X032991Y009706D01*
X033098Y009962D01*
X033098Y010239D01*
X032991Y010496D01*
X032796Y010691D01*
X032539Y010798D01*
X031662Y010798D01*
X031406Y010691D01*
X031351Y010636D01*
X031296Y010691D01*
X031039Y010798D01*
X030162Y010798D01*
X029906Y010691D01*
X029851Y010636D01*
X029796Y010691D01*
X029539Y010798D01*
X028662Y010798D01*
X028406Y010691D01*
X028210Y010496D01*
X028104Y010239D01*
X028104Y009962D01*
X028210Y009706D01*
X028384Y009532D01*
X028343Y009492D01*
X028288Y009415D01*
X028245Y009331D01*
X028216Y009241D01*
X028201Y009148D01*
X028201Y009101D01*
X029100Y009101D01*
X029100Y009101D01*
X028201Y009101D01*
X028201Y009054D01*
X028216Y008960D01*
X028245Y008870D01*
X028288Y008786D01*
X028343Y008710D01*
X028384Y008669D01*
X028210Y008496D01*
X028104Y008239D01*
X028104Y007962D01*
X028210Y007706D01*
X028406Y007510D01*
X028662Y007404D01*
X029539Y007404D01*
X029796Y007510D01*
X029851Y007565D01*
X029906Y007510D01*
X030162Y007404D01*
X031039Y007404D01*
X031296Y007510D01*
X031351Y007565D01*
X031406Y007510D01*
X031662Y007404D01*
X032539Y007404D01*
X032796Y007510D01*
X032991Y007706D01*
X033098Y007962D01*
X033098Y008239D01*
X032991Y008496D01*
X032818Y008669D01*
X032858Y008710D01*
X032914Y008786D01*
X032957Y008870D01*
X032986Y008960D01*
X033001Y009054D01*
X033001Y009101D01*
X032101Y009101D01*
X032101Y009101D01*
X030601Y009101D01*
X031201Y009101D01*
X032100Y009101D01*
X032100Y009101D01*
X031201Y009101D01*
X030601Y009101D01*
X030601Y009101D01*
X029101Y009101D01*
X030001Y009101D01*
X030600Y009101D01*
X030600Y009101D01*
X030001Y009101D01*
X029101Y009101D01*
X029101Y009101D01*
X027101Y009101D01*
X027771Y009101D01*
X027771Y009145D01*
X027759Y009232D01*
X027737Y009317D01*
X027703Y009398D01*
X027659Y009474D01*
X027615Y009531D01*
X027751Y009666D01*
X027868Y009948D01*
X027868Y010253D01*
X027751Y010535D01*
X027535Y010751D01*
X027253Y010868D01*
X026948Y010868D01*
X026666Y010751D01*
X026451Y010535D01*
X026351Y010294D01*
X026251Y010535D01*
X026035Y010751D01*
X025753Y010868D01*
X025448Y010868D01*
X025166Y010751D01*
X024951Y010535D01*
X024851Y010294D01*
X024751Y010535D01*
X024535Y010751D01*
X024253Y010868D01*
X023948Y010868D01*
X023666Y010751D01*
X023451Y010535D01*
X023334Y010253D01*
X023334Y009948D01*
X023451Y009666D01*
X020840Y009666D01*
X020442Y009267D02*
X023452Y009267D01*
X023442Y009232D02*
X023431Y009145D01*
X023431Y009101D01*
X024100Y009101D01*
X024100Y009101D01*
X023431Y009101D01*
X023431Y009057D01*
X023442Y008970D01*
X023465Y008885D01*
X023499Y008804D01*
X023543Y008728D01*
X023596Y008658D01*
X023658Y008596D01*
X023728Y008543D01*
X023804Y008499D01*
X023885Y008465D01*
X023970Y008442D01*
X024057Y008431D01*
X024101Y008431D01*
X024145Y008431D01*
X024232Y008442D01*
X024317Y008465D01*
X024398Y008499D01*
X024474Y008543D01*
X024543Y008596D01*
X024606Y008658D01*
X024659Y008728D01*
X024703Y008804D01*
X024737Y008885D01*
X024759Y008970D01*
X024771Y009057D01*
X024771Y009101D01*
X024771Y009145D01*
X024759Y009232D01*
X024737Y009317D01*
X024703Y009398D01*
X024659Y009474D01*
X024615Y009531D01*
X024751Y009666D01*
X024851Y009908D01*
X024951Y009666D01*
X024750Y009666D01*
X024951Y009666D02*
X025086Y009531D01*
X025043Y009474D01*
X024999Y009398D01*
X024965Y009317D01*
X024942Y009232D01*
X024931Y009145D01*
X024931Y009101D01*
X025600Y009101D01*
X025600Y009101D01*
X024931Y009101D01*
X024931Y009057D01*
X024942Y008970D01*
X024965Y008885D01*
X024999Y008804D01*
X025043Y008728D01*
X025096Y008658D01*
X025158Y008596D01*
X025228Y008543D01*
X025304Y008499D01*
X025385Y008465D01*
X025470Y008442D01*
X025557Y008431D01*
X025601Y008431D01*
X025645Y008431D01*
X025732Y008442D01*
X025817Y008465D01*
X025898Y008499D01*
X025974Y008543D01*
X026043Y008596D01*
X026106Y008658D01*
X026159Y008728D01*
X026203Y008804D01*
X026237Y008885D01*
X026259Y008970D01*
X026271Y009057D01*
X026271Y009101D01*
X026271Y009145D01*
X026259Y009232D01*
X026237Y009317D01*
X026203Y009398D01*
X026159Y009474D01*
X026115Y009531D01*
X026251Y009666D01*
X026351Y009908D01*
X026451Y009666D01*
X026250Y009666D01*
X026451Y009666D02*
X026586Y009531D01*
X026543Y009474D01*
X026499Y009398D01*
X026465Y009317D01*
X026442Y009232D01*
X026431Y009145D01*
X026431Y009101D01*
X027100Y009101D01*
X027100Y009101D01*
X026431Y009101D01*
X026431Y009057D01*
X026442Y008970D01*
X026465Y008885D01*
X026499Y008804D01*
X026543Y008728D01*
X026596Y008658D01*
X026658Y008596D01*
X026728Y008543D01*
X026804Y008499D01*
X026885Y008465D01*
X026970Y008442D01*
X027057Y008431D01*
X027101Y008431D01*
X027145Y008431D01*
X027232Y008442D01*
X027317Y008465D01*
X027398Y008499D01*
X027474Y008543D01*
X027543Y008596D01*
X027606Y008658D01*
X027659Y008728D01*
X027703Y008804D01*
X027737Y008885D01*
X027759Y008970D01*
X027771Y009057D01*
X027771Y009101D01*
X027101Y009101D01*
X027101Y009101D01*
X025601Y009101D01*
X026271Y009101D01*
X025601Y009101D01*
X025601Y009101D01*
X025101Y006101D01*
X025101Y006101D01*
X025101Y006716D01*
X025356Y006716D01*
X025532Y006539D01*
X025698Y006704D01*
X025959Y006813D01*
X026242Y006813D01*
X026504Y006704D01*
X026704Y006504D01*
X026813Y006242D01*
X026813Y005959D01*
X026704Y005698D01*
X026504Y005497D01*
X026242Y005389D01*
X025959Y005389D01*
X025698Y005497D01*
X025532Y005663D01*
X025356Y005486D01*
X025101Y005486D01*
X025101Y006100D01*
X025101Y006100D01*
X025101Y005486D01*
X024846Y005486D01*
X024486Y005846D01*
X024486Y006101D01*
X025100Y006101D01*
X025100Y006101D01*
X024486Y006101D01*
X024486Y006356D01*
X024846Y006716D01*
X025101Y006716D01*
X025101Y006101D01*
X025101Y006079D02*
X025101Y006079D01*
X025101Y006477D02*
X025101Y006477D01*
X024608Y006477D02*
X022196Y006477D01*
X022201Y006079D02*
X024486Y006079D01*
X024651Y005680D02*
X022189Y005680D01*
X021904Y005282D02*
X034101Y005282D01*
X034101Y005680D02*
X026687Y005680D01*
X026813Y006079D02*
X034101Y006079D01*
X034101Y006477D02*
X026715Y006477D01*
X025101Y005680D02*
X025101Y005680D01*
X025601Y008431D02*
X025601Y009100D01*
X025601Y008431D01*
X025601Y008470D02*
X025601Y008470D01*
X025829Y008470D02*
X026872Y008470D01*
X027101Y008470D02*
X027101Y008470D01*
X027101Y008431D02*
X027101Y009100D01*
X027101Y009100D01*
X027101Y008431D01*
X027329Y008470D02*
X028200Y008470D01*
X028246Y008869D02*
X027730Y008869D01*
X027750Y009267D02*
X028224Y009267D01*
X028250Y009666D02*
X027750Y009666D01*
X027868Y010064D02*
X028104Y010064D01*
X028197Y010463D02*
X027781Y010463D01*
X027268Y010861D02*
X034101Y010861D01*
X034101Y010463D02*
X033005Y010463D01*
X033098Y010064D02*
X034101Y010064D01*
X034101Y009666D02*
X032951Y009666D01*
X032978Y009267D02*
X034101Y009267D01*
X034101Y008869D02*
X032956Y008869D01*
X033002Y008470D02*
X034101Y008470D01*
X034101Y008072D02*
X033098Y008072D01*
X032959Y007673D02*
X034101Y007673D01*
X034101Y007275D02*
X020078Y007275D01*
X020078Y007673D02*
X028243Y007673D01*
X028104Y008072D02*
X020078Y008072D01*
X020078Y008470D02*
X023872Y008470D01*
X024101Y008470D02*
X024101Y008470D01*
X024101Y008431D02*
X024101Y009100D01*
X024101Y009100D01*
X024101Y009101D02*
X024101Y009101D01*
X024771Y009101D01*
X024101Y009101D01*
X025601Y009101D01*
X025601Y009100D02*
X025601Y009100D01*
X025601Y008869D02*
X025601Y008869D01*
X025372Y008470D02*
X024329Y008470D01*
X024101Y008431D02*
X024101Y009100D01*
X024101Y008869D02*
X024101Y008869D01*
X023472Y008869D02*
X020078Y008869D01*
X021239Y010064D02*
X023334Y010064D01*
X023421Y010463D02*
X021560Y010463D01*
X021578Y010861D02*
X023933Y010861D01*
X024268Y010861D02*
X025433Y010861D01*
X025768Y010861D02*
X026933Y010861D01*
X026421Y010463D02*
X026281Y010463D01*
X026250Y009267D02*
X026452Y009267D01*
X026472Y008869D02*
X026230Y008869D01*
X027101Y008869D02*
X027101Y008869D01*
X024972Y008869D02*
X024730Y008869D01*
X024750Y009267D02*
X024952Y009267D01*
X024921Y010463D02*
X024781Y010463D01*
X023586Y009531D02*
X023543Y009474D01*
X023499Y009398D01*
X023465Y009317D01*
X023442Y009232D01*
X023586Y009531D02*
X023451Y009666D01*
X021578Y011260D02*
X034101Y011260D01*
X033835Y011927D02*
X034083Y012029D01*
X033835Y011927D02*
X033567Y011927D01*
X033319Y012029D01*
X033129Y012219D01*
X033027Y012467D01*
X033027Y012735D01*
X033129Y012983D01*
X033319Y013172D01*
X033567Y013275D01*
X033835Y013275D01*
X034083Y013172D01*
X034101Y013154D01*
X034101Y032704D01*
X033997Y032644D01*
X033736Y032574D01*
X033466Y032574D01*
X033204Y032644D01*
X032970Y032779D01*
X032779Y032970D01*
X032644Y033204D01*
X032574Y033466D01*
X032574Y033736D01*
X032644Y033997D01*
X032704Y034101D01*
X025629Y034101D01*
X025717Y034012D01*
X025828Y033745D01*
X025828Y033456D01*
X025720Y033198D01*
X027982Y033198D01*
X028219Y033198D01*
X028439Y033107D01*
X028607Y032939D01*
X028698Y032719D01*
X028698Y031921D01*
X028775Y031735D01*
X028775Y031467D01*
X028672Y031219D01*
X028483Y031029D01*
X028235Y030927D01*
X027967Y030927D01*
X027719Y031029D01*
X027532Y031216D01*
X027477Y031161D01*
X027403Y031107D01*
X027322Y031066D01*
X027236Y031038D01*
X027146Y031024D01*
X027101Y031024D01*
X027101Y031600D01*
X027101Y031600D01*
X027101Y031024D01*
X027055Y031024D01*
X026966Y031038D01*
X026879Y031066D01*
X026798Y031107D01*
X026725Y031161D01*
X026661Y031225D01*
X026607Y031298D01*
X026601Y031311D01*
X026594Y031298D01*
X026541Y031225D01*
X026477Y031161D01*
X026403Y031107D01*
X026322Y031066D01*
X026236Y031038D01*
X026146Y031024D01*
X026101Y031024D01*
X026101Y031600D01*
X026101Y031600D01*
X026101Y031024D01*
X026055Y031024D01*
X025966Y031038D01*
X025879Y031066D01*
X025798Y031107D01*
X025725Y031161D01*
X025669Y031216D01*
X025483Y031029D01*
X025235Y030927D01*
X024967Y030927D01*
X024719Y031029D01*
X024529Y031219D01*
X024427Y031467D01*
X024427Y031735D01*
X024529Y031983D01*
X024551Y032004D01*
X023651Y032004D01*
X023672Y031983D01*
X023775Y031735D01*
X023775Y031467D01*
X023672Y031219D01*
X023483Y031029D01*
X023235Y030927D01*
X022967Y030927D01*
X022719Y031029D01*
X022601Y031148D01*
X022483Y031029D01*
X022235Y030927D01*
X021967Y030927D01*
X021719Y031029D01*
X021601Y031148D01*
X021483Y031029D01*
X021235Y030927D01*
X020967Y030927D01*
X020719Y031029D01*
X020601Y031148D01*
X020483Y031029D01*
X020235Y030927D01*
X020055Y030927D01*
X018045Y028917D01*
X018045Y025974D01*
X018329Y026258D01*
X018873Y026258D01*
X019258Y025873D01*
X019258Y025329D01*
X019030Y025101D01*
X019258Y024873D01*
X019258Y024329D01*
X018976Y024048D01*
X021225Y024048D01*
X020944Y024329D01*
X020944Y024873D01*
X021172Y025101D01*
X020944Y025329D01*
X020944Y025873D01*
X021329Y026258D01*
X021873Y026258D01*
X022101Y026030D01*
X022329Y026258D01*
X022873Y026258D01*
X023258Y025873D01*
X023258Y025329D01*
X023030Y025101D01*
X023258Y024873D01*
X023258Y024329D01*
X022976Y024048D01*
X025225Y024048D01*
X024944Y024329D01*
X024944Y024873D01*
X025172Y025101D01*
X024944Y025329D01*
X024944Y025873D01*
X025329Y026258D01*
X025873Y026258D01*
X026258Y025873D01*
X026258Y025329D01*
X026030Y025101D01*
X026258Y024873D01*
X026258Y024329D01*
X025976Y024048D01*
X027916Y024048D01*
X029722Y025854D01*
X029848Y025980D01*
X030012Y026048D01*
X030767Y026048D01*
X030746Y026064D01*
X030737Y026083D01*
X030722Y026098D01*
X030696Y026161D01*
X030664Y026222D01*
X030662Y026243D01*
X030654Y026262D01*
X030654Y026330D01*
X030648Y026399D01*
X030654Y026419D01*
X030654Y026463D01*
X030601Y026516D01*
X030418Y026334D01*
X029783Y026334D01*
X029334Y026783D01*
X029334Y027418D01*
X029516Y027601D01*
X029334Y027783D01*
X029334Y028418D01*
X029783Y028868D01*
X030418Y028868D01*
X030601Y028685D01*
X030783Y028868D01*
X031418Y028868D01*
X031601Y028685D01*
X031783Y028868D01*
X032154Y028868D01*
X032154Y029416D01*
X030511Y031058D01*
X030483Y031029D01*
X030235Y030927D01*
X029967Y030927D01*
X029719Y031029D01*
X029529Y031219D01*
X029427Y031467D01*
X029427Y031735D01*
X029529Y031983D01*
X029719Y032172D01*
X029967Y032275D01*
X030235Y032275D01*
X030483Y032172D01*
X030607Y032048D01*
X030690Y032048D01*
X030854Y031980D01*
X032854Y029980D01*
X032980Y029854D01*
X033048Y029690D01*
X033048Y028771D01*
X033101Y028771D01*
X033101Y028101D01*
X033101Y028101D01*
X033771Y028101D01*
X033771Y028378D01*
X033378Y028771D01*
X033101Y028771D01*
X033101Y028101D01*
X033101Y028101D01*
X034101Y028101D01*
X034101Y024601D01*
X034101Y021101D01*
X034101Y017601D01*
X034101Y017637D02*
X033771Y017637D01*
X033614Y018035D02*
X034101Y018035D01*
X034101Y018434D02*
X033048Y018434D01*
X033048Y018271D02*
X033048Y019334D01*
X033418Y019334D01*
X033868Y019783D01*
X033868Y020418D01*
X033617Y020669D01*
X033771Y020823D01*
X033771Y021101D01*
X033771Y021378D01*
X033378Y021771D01*
X033101Y021771D01*
X033101Y021101D01*
X033101Y021101D01*
X033771Y021101D01*
X033101Y021101D01*
X033101Y021101D01*
X034101Y021101D01*
X034101Y021224D02*
X033771Y021224D01*
X033771Y020825D02*
X034101Y020825D01*
X034101Y020426D02*
X033859Y020426D01*
X033868Y020028D02*
X034101Y020028D01*
X034101Y019629D02*
X033714Y019629D01*
X034101Y019231D02*
X033048Y019231D01*
X033048Y018832D02*
X034101Y018832D01*
X033101Y018271D02*
X033048Y018271D01*
X033101Y018271D02*
X033101Y017601D01*
X033101Y017637D02*
X033101Y017637D01*
X033101Y018035D02*
X033101Y018035D01*
X033686Y017238D02*
X034101Y017238D01*
X034101Y016840D02*
X033868Y016840D01*
X033868Y016441D02*
X034101Y016441D01*
X034101Y016043D02*
X033627Y016043D01*
X034101Y015644D02*
X033048Y015644D01*
X033048Y015245D02*
X034101Y015245D01*
X034101Y014847D02*
X033048Y014847D01*
X033048Y014448D02*
X034101Y014448D01*
X034101Y014050D02*
X033048Y014050D01*
X033048Y013651D02*
X034101Y013651D01*
X034101Y013253D02*
X033888Y013253D01*
X033513Y013253D02*
X033002Y013253D01*
X033076Y012854D02*
X032620Y012854D01*
X032370Y012456D02*
X033031Y012456D01*
X033291Y012057D02*
X032110Y012057D01*
X031291Y012057D02*
X031110Y012057D01*
X030291Y012057D02*
X030110Y012057D01*
X029291Y012057D02*
X029110Y012057D01*
X028291Y012057D02*
X028110Y012057D01*
X027291Y012057D02*
X027110Y012057D01*
X026291Y012057D02*
X025510Y012057D01*
X025770Y012456D02*
X026031Y012456D01*
X026076Y012854D02*
X025725Y012854D01*
X025873Y013444D02*
X025329Y013444D01*
X024944Y013829D01*
X024944Y014373D01*
X025329Y014758D01*
X025873Y014758D01*
X026101Y014530D01*
X026329Y014758D01*
X026873Y014758D01*
X027101Y014530D01*
X027329Y014758D01*
X027873Y014758D01*
X028258Y014373D01*
X028258Y013829D01*
X027873Y013444D01*
X027329Y013444D01*
X027101Y013672D01*
X026873Y013444D01*
X026329Y013444D01*
X026101Y013672D01*
X025873Y013444D01*
X026080Y013651D02*
X026121Y013651D01*
X026567Y013275D02*
X026835Y013275D01*
X027083Y013172D01*
X027201Y013054D01*
X027319Y013172D01*
X027567Y013275D01*
X027835Y013275D01*
X028083Y013172D01*
X028201Y013054D01*
X028319Y013172D01*
X028567Y013275D01*
X028835Y013275D01*
X029083Y013172D01*
X029201Y013054D01*
X029319Y013172D01*
X029567Y013275D01*
X029835Y013275D01*
X030083Y013172D01*
X030201Y013054D01*
X030319Y013172D01*
X030567Y013275D01*
X030835Y013275D01*
X031083Y013172D01*
X031201Y013054D01*
X031319Y013172D01*
X031567Y013275D01*
X031764Y013275D01*
X032154Y013643D01*
X032154Y015834D01*
X031783Y015834D01*
X031601Y016016D01*
X031418Y015834D01*
X030783Y015834D01*
X030601Y016016D01*
X030418Y015834D01*
X029783Y015834D01*
X029334Y016283D01*
X029334Y016918D01*
X029516Y017101D01*
X029334Y017283D01*
X029334Y017918D01*
X029783Y018368D01*
X030418Y018368D01*
X030601Y018185D01*
X030743Y018327D01*
X030416Y018654D01*
X030190Y018654D01*
X030012Y018654D01*
X029848Y018722D01*
X025916Y022654D01*
X017940Y022654D01*
X017762Y022654D01*
X017598Y022722D01*
X016222Y024098D01*
X016154Y024262D01*
X016154Y024440D01*
X016157Y024446D01*
X016157Y030189D01*
X016224Y030352D01*
X016349Y030477D01*
X016848Y030976D01*
X016719Y031029D01*
X016601Y031148D01*
X016483Y031029D01*
X016235Y030927D01*
X015967Y030927D01*
X015719Y031029D01*
X015529Y031219D01*
X015427Y031467D01*
X015427Y031735D01*
X015529Y031983D01*
X015551Y032004D01*
X014698Y032004D01*
X014698Y031921D01*
X014775Y031735D01*
X014775Y031467D01*
X014672Y031219D01*
X014483Y031029D01*
X014235Y030927D01*
X013967Y030927D01*
X013719Y031029D01*
X013532Y031216D01*
X013477Y031161D01*
X013403Y031107D01*
X013322Y031066D01*
X013236Y031038D01*
X013146Y031024D01*
X013101Y031024D01*
X013101Y031600D01*
X013101Y031600D01*
X013101Y031024D01*
X013055Y031024D01*
X012966Y031038D01*
X012879Y031066D01*
X012798Y031107D01*
X012725Y031161D01*
X012669Y031216D01*
X012483Y031029D01*
X012235Y030927D01*
X011967Y030927D01*
X011719Y031029D01*
X011601Y031148D01*
X011483Y031029D01*
X011235Y030927D01*
X010967Y030927D01*
X010719Y031029D01*
X010529Y031219D01*
X010427Y031467D01*
X010427Y031735D01*
X010529Y031983D01*
X010719Y032172D01*
X010967Y032275D01*
X011235Y032275D01*
X011483Y032172D01*
X011601Y032054D01*
X011719Y032172D01*
X011967Y032275D01*
X012235Y032275D01*
X012483Y032172D01*
X012669Y031985D01*
X012725Y032041D01*
X012798Y032094D01*
X012879Y032136D01*
X012966Y032164D01*
X013055Y032178D01*
X013101Y032178D01*
X013101Y031601D01*
X013101Y031601D01*
X013101Y018601D01*
X013582Y018035D02*
X009758Y018035D01*
X009566Y017637D02*
X013427Y017637D01*
X013521Y017238D02*
X009755Y017238D01*
X009704Y016840D02*
X013470Y016840D01*
X013437Y016441D02*
X009671Y016441D01*
X009758Y016043D02*
X013589Y016043D01*
X013427Y015644D02*
X009573Y015644D01*
X009752Y015245D02*
X013518Y015245D01*
X013473Y014847D02*
X009707Y014847D01*
X009668Y014448D02*
X013434Y014448D01*
X013699Y014050D02*
X009758Y014050D01*
X009580Y013651D02*
X025121Y013651D01*
X024944Y014050D02*
X015503Y014050D01*
X015767Y014448D02*
X025019Y014448D01*
X025329Y016444D02*
X025873Y016444D01*
X026101Y016672D01*
X026329Y016444D01*
X026873Y016444D01*
X027101Y016672D01*
X027329Y016444D01*
X027873Y016444D01*
X028258Y016829D01*
X028258Y017373D01*
X027873Y017758D01*
X027329Y017758D01*
X027101Y017530D01*
X026873Y017758D01*
X026329Y017758D01*
X026101Y017530D01*
X025873Y017758D01*
X025329Y017758D01*
X024944Y017373D01*
X024944Y016829D01*
X025329Y016444D01*
X024944Y016840D02*
X015731Y016840D01*
X015764Y016441D02*
X029334Y016441D01*
X029334Y016840D02*
X028258Y016840D01*
X028258Y017238D02*
X029379Y017238D01*
X029334Y017637D02*
X027994Y017637D01*
X027208Y017637D02*
X026994Y017637D01*
X026208Y017637D02*
X025994Y017637D01*
X025208Y017637D02*
X015775Y017637D01*
X015619Y018035D02*
X029451Y018035D01*
X029737Y018832D02*
X015734Y018832D01*
X015761Y018434D02*
X030636Y018434D01*
X029339Y019231D02*
X015677Y019231D01*
X015775Y019629D02*
X028940Y019629D01*
X028542Y020028D02*
X015627Y020028D01*
X015758Y020426D02*
X028143Y020426D01*
X027745Y020825D02*
X015737Y020825D01*
X015674Y021224D02*
X027346Y021224D01*
X026947Y021622D02*
X015775Y021622D01*
X015634Y022021D02*
X026549Y022021D01*
X026150Y022419D02*
X015755Y022419D01*
X015740Y022818D02*
X017502Y022818D01*
X017103Y023216D02*
X015669Y023216D01*
X015775Y023615D02*
X016705Y023615D01*
X016306Y024013D02*
X015641Y024013D01*
X015752Y024412D02*
X016154Y024412D01*
X016157Y024810D02*
X015743Y024810D01*
X015662Y025209D02*
X016157Y025209D01*
X016157Y025608D02*
X015775Y025608D01*
X015649Y026006D02*
X016157Y026006D01*
X016157Y026405D02*
X015749Y026405D01*
X015746Y026803D02*
X016157Y026803D01*
X016157Y027202D02*
X015655Y027202D01*
X015775Y027600D02*
X016157Y027600D01*
X016157Y027999D02*
X015656Y027999D01*
X015746Y028397D02*
X016157Y028397D01*
X016157Y028796D02*
X015749Y028796D01*
X015648Y029194D02*
X016157Y029194D01*
X016157Y029593D02*
X015775Y029593D01*
X015663Y029992D02*
X016157Y029992D01*
X016262Y030390D02*
X009692Y030390D01*
X009658Y030473D02*
X009530Y030601D01*
X009658Y030729D01*
X009758Y030970D01*
X009758Y031231D01*
X009658Y031473D01*
X009530Y031601D01*
X009658Y031729D01*
X009758Y031970D01*
X009758Y032231D01*
X009658Y032473D01*
X009530Y032601D01*
X009658Y032729D01*
X009758Y032970D01*
X009758Y033231D01*
X009658Y033473D01*
X009626Y033504D01*
X009854Y033504D01*
X010095Y033263D01*
X010263Y033095D01*
X010482Y033004D01*
X013504Y033004D01*
X013504Y032719D01*
X013504Y032014D01*
X013477Y032041D01*
X013403Y032094D01*
X013322Y032136D01*
X013236Y032164D01*
X013146Y032178D01*
X013101Y032178D01*
X013101Y031601D01*
X013101Y031586D02*
X013101Y031586D01*
X013101Y031984D02*
X013101Y031984D01*
X013504Y032383D02*
X009695Y032383D01*
X009758Y031984D02*
X010531Y031984D01*
X010427Y031586D02*
X009545Y031586D01*
X009758Y031187D02*
X010561Y031187D01*
X009682Y030789D02*
X016661Y030789D01*
X015561Y031187D02*
X014640Y031187D01*
X014775Y031586D02*
X015427Y031586D01*
X015531Y031984D02*
X014698Y031984D01*
X014101Y031601D02*
X014101Y032601D01*
X014101Y033601D01*
X010601Y033601D01*
X010101Y034101D01*
X005601Y034101D01*
X005101Y033601D01*
X005101Y033101D01*
X005101Y032101D01*
X005101Y025101D01*
X005101Y024101D01*
X005101Y017101D01*
X005101Y016101D01*
X005101Y009101D01*
X005101Y008101D01*
X004101Y008101D01*
X003444Y008072D02*
X003101Y008072D01*
X003444Y007970D02*
X003544Y007729D01*
X003672Y007601D01*
X003544Y007473D01*
X003444Y007231D01*
X003444Y006970D01*
X003544Y006729D01*
X003672Y006601D01*
X003544Y006473D01*
X003444Y006231D01*
X003444Y005970D01*
X003544Y005729D01*
X003672Y005601D01*
X003544Y005473D01*
X003444Y005231D01*
X003444Y004970D01*
X003544Y004729D01*
X003672Y004601D01*
X003544Y004473D01*
X003444Y004231D01*
X003444Y003970D01*
X003544Y003729D01*
X003667Y003606D01*
X003650Y003594D01*
X003608Y003552D01*
X003575Y003503D01*
X003552Y003448D01*
X003541Y003390D01*
X003541Y003101D01*
X004100Y003101D01*
X004100Y003101D01*
X003541Y003101D01*
X003541Y002811D01*
X003552Y002753D01*
X003575Y002699D01*
X003608Y002650D01*
X003650Y002608D01*
X003667Y002596D01*
X003544Y002473D01*
X003444Y002231D01*
X003444Y001970D01*
X003544Y001729D01*
X003729Y001544D01*
X003970Y001444D01*
X004231Y001444D01*
X004473Y001544D01*
X004658Y001729D01*
X004758Y001970D01*
X004758Y002231D01*
X004658Y002473D01*
X004534Y002596D01*
X004552Y002608D01*
X004594Y002650D01*
X004627Y002699D01*
X004649Y002753D01*
X004661Y002811D01*
X004661Y003101D01*
X004101Y003101D01*
X004101Y003101D01*
X005101Y003101D01*
X005101Y001101D01*
X011601Y001101D01*
X011601Y004601D01*
X014020Y003289D02*
X015165Y003289D01*
X015145Y003281D02*
X014922Y003058D01*
X014802Y002768D01*
X014802Y002453D01*
X014922Y002163D01*
X015145Y001940D01*
X015435Y001820D01*
X015750Y001820D01*
X016040Y001940D01*
X016263Y002163D01*
X016383Y002453D01*
X016383Y002768D01*
X016263Y003058D01*
X016040Y003281D01*
X015750Y003401D01*
X015435Y003401D01*
X015145Y003281D01*
X014853Y002891D02*
X014332Y002891D01*
X014383Y002492D02*
X014802Y002492D01*
X014992Y002094D02*
X014193Y002094D01*
X016193Y002094D02*
X017992Y002094D01*
X017922Y002163D02*
X018145Y001940D01*
X018435Y001820D01*
X018750Y001820D01*
X019040Y001940D01*
X019263Y002163D01*
X019383Y002453D01*
X019383Y002768D01*
X019263Y003058D01*
X019040Y003281D01*
X018750Y003401D01*
X018435Y003401D01*
X018145Y003281D01*
X017922Y003058D01*
X017802Y002768D01*
X017802Y002453D01*
X017922Y002163D01*
X017802Y002492D02*
X016383Y002492D01*
X016332Y002891D02*
X017853Y002891D01*
X018165Y003289D02*
X016020Y003289D01*
X016601Y005201D02*
X016601Y006100D01*
X016601Y005201D01*
X016601Y005282D02*
X016601Y005282D01*
X016298Y005282D02*
X016067Y005282D01*
X016601Y005680D02*
X016601Y005680D01*
X016601Y006079D02*
X016601Y006079D01*
X016601Y006100D02*
X016601Y006100D01*
X016601Y006477D02*
X016601Y006477D01*
X016601Y006876D02*
X016601Y006876D01*
X016234Y006876D02*
X016111Y006876D01*
X015134Y005282D02*
X015067Y005282D01*
X019020Y003289D02*
X020165Y003289D01*
X019853Y002891D02*
X019332Y002891D01*
X019383Y002492D02*
X019802Y002492D01*
X019992Y002094D02*
X019193Y002094D01*
X021601Y005201D02*
X021601Y006100D01*
X021601Y005201D01*
X021601Y005282D02*
X021601Y005282D01*
X021298Y005282D02*
X021067Y005282D01*
X021601Y005680D02*
X021601Y005680D01*
X021601Y006079D02*
X021601Y006079D01*
X021601Y006100D02*
X021601Y006100D01*
X021601Y006477D02*
X021601Y006477D01*
X021601Y006876D02*
X021601Y006876D01*
X021967Y006876D02*
X034101Y006876D01*
X034101Y003289D02*
X031689Y003289D01*
X031794Y002891D02*
X034101Y002891D01*
X033091Y002492D02*
X031794Y002492D01*
X031764Y002094D02*
X032700Y002094D01*
X032574Y001695D02*
X031443Y001695D01*
X030758Y001695D02*
X030443Y001695D01*
X029708Y001716D02*
X029532Y001891D01*
X029490Y001849D01*
X029414Y001793D01*
X029330Y001751D01*
X029241Y001722D01*
X029148Y001707D01*
X029101Y001707D01*
X029101Y002600D01*
X029101Y002600D01*
X029101Y001707D01*
X029054Y001707D01*
X028961Y001722D01*
X028872Y001751D01*
X028788Y001793D01*
X028712Y001849D01*
X028646Y001915D01*
X028590Y001991D01*
X028548Y002075D01*
X028519Y002164D01*
X028504Y002257D01*
X028504Y002601D01*
X029100Y002601D01*
X029100Y002601D01*
X028504Y002601D01*
X028504Y002945D01*
X028519Y003037D01*
X028548Y003127D01*
X028590Y003210D01*
X028646Y003286D01*
X028712Y003353D01*
X028788Y003408D01*
X028872Y003451D01*
X028961Y003480D01*
X029054Y003494D01*
X029101Y003494D01*
X029101Y002601D01*
X029101Y002492D02*
X029101Y002492D01*
X029101Y002891D02*
X029101Y002891D01*
X029101Y003289D02*
X029101Y003289D01*
X028648Y003289D02*
X027257Y003289D01*
X027334Y002891D02*
X028504Y002891D01*
X028504Y002492D02*
X027334Y002492D01*
X027332Y002094D02*
X028542Y002094D01*
X029101Y002094D02*
X029101Y002094D01*
X032619Y001296D02*
X003101Y001296D01*
X003101Y001695D02*
X003578Y001695D01*
X003444Y002094D02*
X003101Y002094D01*
X003101Y002492D02*
X003563Y002492D01*
X003541Y002891D02*
X003101Y002891D01*
X003101Y003289D02*
X003541Y003289D01*
X003585Y003688D02*
X003101Y003688D01*
X003101Y004086D02*
X003444Y004086D01*
X003556Y004485D02*
X003101Y004485D01*
X003101Y004883D02*
X003480Y004883D01*
X003465Y005282D02*
X003101Y005282D01*
X003101Y005680D02*
X003592Y005680D01*
X003444Y006079D02*
X003101Y006079D01*
X003101Y006477D02*
X003549Y006477D01*
X003483Y006876D02*
X003101Y006876D01*
X003101Y007275D02*
X003462Y007275D01*
X003600Y007673D02*
X003101Y007673D01*
X003444Y007970D02*
X003444Y008231D01*
X003544Y008473D01*
X003667Y008596D01*
X003650Y008608D01*
X003608Y008650D01*
X003575Y008699D01*
X003552Y008753D01*
X003541Y008811D01*
X003541Y009101D01*
X004100Y009101D01*
X004100Y009101D01*
X003541Y009101D01*
X003541Y009390D01*
X003552Y009448D01*
X003575Y009503D01*
X003608Y009552D01*
X003650Y009594D01*
X003667Y009606D01*
X003544Y009729D01*
X003444Y009970D01*
X003444Y010231D01*
X003544Y010473D01*
X003667Y010596D01*
X003650Y010608D01*
X003608Y010650D01*
X003575Y010699D01*
X003552Y010753D01*
X003541Y010811D01*
X003541Y011101D01*
X004100Y011101D01*
X004100Y011101D01*
X003541Y011101D01*
X003541Y011390D01*
X003552Y011448D01*
X003575Y011503D01*
X003608Y011552D01*
X003650Y011594D01*
X003667Y011606D01*
X003544Y011729D01*
X003444Y011970D01*
X003444Y012231D01*
X003544Y012473D01*
X003672Y012601D01*
X003544Y012729D01*
X003444Y012970D01*
X003444Y013231D01*
X003544Y013473D01*
X003672Y013601D01*
X003544Y013729D01*
X003444Y013970D01*
X003444Y014231D01*
X003544Y014473D01*
X003672Y014601D01*
X003544Y014729D01*
X003444Y014970D01*
X003444Y015231D01*
X003544Y015473D01*
X003672Y015601D01*
X003544Y015729D01*
X003444Y015970D01*
X003444Y016231D01*
X003544Y016473D01*
X003667Y016596D01*
X003650Y016608D01*
X003608Y016650D01*
X003575Y016699D01*
X003552Y016753D01*
X003541Y016811D01*
X003541Y017101D01*
X004100Y017101D01*
X004100Y017101D01*
X003541Y017101D01*
X003541Y017390D01*
X003552Y017448D01*
X003575Y017503D01*
X003608Y017552D01*
X003650Y017594D01*
X003667Y017606D01*
X003544Y017729D01*
X003444Y017970D01*
X003444Y018231D01*
X003544Y018473D01*
X003667Y018596D01*
X003650Y018608D01*
X003608Y018650D01*
X003575Y018699D01*
X003552Y018753D01*
X003541Y018811D01*
X003541Y019101D01*
X004100Y019101D01*
X004100Y019101D01*
X003541Y019101D01*
X003541Y019390D01*
X003552Y019448D01*
X003575Y019503D01*
X003608Y019552D01*
X003650Y019594D01*
X003667Y019606D01*
X003544Y019729D01*
X003444Y019970D01*
X003444Y020231D01*
X003544Y020473D01*
X003672Y020601D01*
X003544Y020729D01*
X003444Y020970D01*
X003444Y021231D01*
X003544Y021473D01*
X003672Y021601D01*
X003544Y021729D01*
X003444Y021970D01*
X003444Y022231D01*
X003544Y022473D01*
X003672Y022601D01*
X003544Y022729D01*
X003444Y022970D01*
X003444Y023231D01*
X003544Y023473D01*
X003672Y023601D01*
X003544Y023729D01*
X003444Y023970D01*
X003444Y024231D01*
X003544Y024473D01*
X003667Y024596D01*
X003650Y024608D01*
X003608Y024650D01*
X003575Y024699D01*
X003552Y024753D01*
X003541Y024811D01*
X003541Y025101D01*
X004100Y025101D01*
X004100Y025101D01*
X003541Y025101D01*
X003541Y025390D01*
X003552Y025448D01*
X003575Y025503D01*
X003608Y025552D01*
X003650Y025594D01*
X003667Y025606D01*
X003544Y025729D01*
X003444Y025970D01*
X003444Y026231D01*
X003544Y026473D01*
X003667Y026596D01*
X003650Y026608D01*
X003608Y026650D01*
X003575Y026699D01*
X003552Y026753D01*
X003541Y026811D01*
X003541Y027101D01*
X004100Y027101D01*
X004100Y027101D01*
X003541Y027101D01*
X003541Y027390D01*
X003552Y027448D01*
X003575Y027503D01*
X003608Y027552D01*
X003650Y027594D01*
X003667Y027606D01*
X003544Y027729D01*
X003444Y027970D01*
X003444Y028231D01*
X003544Y028473D01*
X003672Y028601D01*
X003544Y028729D01*
X003444Y028970D01*
X003444Y029231D01*
X003544Y029473D01*
X003672Y029601D01*
X003544Y029729D01*
X003444Y029970D01*
X003444Y030231D01*
X003544Y030473D01*
X003672Y030601D01*
X003544Y030729D01*
X003444Y030970D01*
X003444Y031231D01*
X003544Y031473D01*
X003672Y031601D01*
X003544Y031729D01*
X003444Y031970D01*
X003444Y032231D01*
X003544Y032473D01*
X003667Y032596D01*
X003650Y032608D01*
X003608Y032650D01*
X003575Y032699D01*
X003552Y032753D01*
X003541Y032811D01*
X003541Y033101D01*
X004100Y033101D01*
X004100Y033101D01*
X003541Y033101D01*
X003541Y033390D01*
X003552Y033448D01*
X003575Y033503D01*
X003608Y033552D01*
X003650Y033594D01*
X003699Y033627D01*
X003753Y033649D01*
X003811Y033661D01*
X004101Y033661D01*
X004101Y033101D01*
X004101Y033180D02*
X004101Y033180D01*
X004101Y033578D02*
X004101Y033578D01*
X003634Y033578D02*
X003101Y033578D01*
X003101Y033180D02*
X003541Y033180D01*
X003547Y032781D02*
X003101Y032781D01*
X003101Y032383D02*
X003507Y032383D01*
X003444Y031984D02*
X003101Y031984D01*
X003101Y031586D02*
X003657Y031586D01*
X003444Y031187D02*
X003101Y031187D01*
X003101Y030789D02*
X003519Y030789D01*
X003510Y030390D02*
X003101Y030390D01*
X003101Y029992D02*
X003444Y029992D01*
X003664Y029593D02*
X003101Y029593D01*
X003101Y029194D02*
X003444Y029194D01*
X003516Y028796D02*
X003101Y028796D01*
X003101Y028397D02*
X003513Y028397D01*
X003444Y027999D02*
X003101Y027999D01*
X003101Y027600D02*
X003659Y027600D01*
X003541Y027202D02*
X003101Y027202D01*
X003101Y027101D02*
X004101Y027101D01*
X003542Y026803D02*
X003101Y026803D01*
X003101Y026405D02*
X003516Y026405D01*
X003444Y026006D02*
X003101Y026006D01*
X003101Y025608D02*
X003665Y025608D01*
X003541Y025209D02*
X003101Y025209D01*
X003101Y025101D02*
X004101Y025101D01*
X003541Y024810D02*
X003101Y024810D01*
X003101Y024412D02*
X003519Y024412D01*
X003444Y024013D02*
X003101Y024013D01*
X003101Y023615D02*
X003658Y023615D01*
X004101Y024101D02*
X005101Y024101D01*
X005698Y024013D02*
X008444Y024013D01*
X008519Y024412D02*
X005698Y024412D01*
X005698Y023615D02*
X008658Y023615D01*
X008444Y023216D02*
X005698Y023216D01*
X005698Y022818D02*
X008507Y022818D01*
X008522Y022419D02*
X007211Y022419D01*
X007258Y022021D02*
X008444Y022021D01*
X008651Y021622D02*
X008164Y021622D01*
X008368Y021224D02*
X008444Y021224D01*
X008504Y020825D02*
X008317Y020825D01*
X008296Y020426D02*
X008525Y020426D01*
X008444Y020028D02*
X008368Y020028D01*
X008214Y019629D02*
X008643Y019629D01*
X008501Y018832D02*
X008320Y018832D01*
X008528Y018434D02*
X007994Y018434D01*
X008444Y018035D02*
X005698Y018035D01*
X005698Y017637D02*
X006208Y017637D01*
X006994Y017637D02*
X008636Y017637D01*
X008447Y017238D02*
X007258Y017238D01*
X007258Y016840D02*
X008498Y016840D01*
X008531Y016441D02*
X005698Y016441D01*
X005698Y016043D02*
X008444Y016043D01*
X008629Y015644D02*
X005698Y015644D01*
X005698Y015245D02*
X008450Y015245D01*
X008495Y014847D02*
X005698Y014847D01*
X005698Y014448D02*
X006019Y014448D01*
X005944Y014373D02*
X005944Y013829D01*
X006094Y013679D01*
X005951Y013535D01*
X005834Y013253D01*
X005698Y013253D01*
X005834Y013253D02*
X005834Y012948D01*
X005951Y012666D01*
X006016Y012601D01*
X005951Y012535D01*
X005834Y012253D01*
X005834Y011948D01*
X005951Y011666D01*
X006016Y011601D01*
X005951Y011535D01*
X005834Y011253D01*
X005834Y010948D01*
X005951Y010666D01*
X006166Y010451D01*
X006448Y010334D01*
X006753Y010334D01*
X007035Y010451D01*
X007101Y010516D01*
X007166Y010451D01*
X007448Y010334D01*
X007753Y010334D01*
X008035Y010451D01*
X008251Y010666D01*
X008368Y010948D01*
X008368Y011253D01*
X008251Y011535D01*
X008185Y011601D01*
X008251Y011666D01*
X008368Y011948D01*
X008368Y012253D01*
X008251Y012535D01*
X008185Y012601D01*
X008251Y012666D01*
X008368Y012948D01*
X008368Y013253D01*
X008453Y013253D01*
X008368Y013253D02*
X008251Y013535D01*
X008035Y013751D01*
X007753Y013868D01*
X007448Y013868D01*
X007189Y013760D01*
X007258Y013829D01*
X007258Y014373D01*
X006873Y014758D01*
X006329Y014758D01*
X005944Y014373D01*
X005944Y014050D02*
X005698Y014050D01*
X005698Y013651D02*
X006067Y013651D01*
X005873Y012854D02*
X005698Y012854D01*
X005698Y012456D02*
X005918Y012456D01*
X005834Y012057D02*
X005698Y012057D01*
X005698Y011659D02*
X005959Y011659D01*
X005837Y011260D02*
X005698Y011260D01*
X005698Y010861D02*
X005870Y010861D01*
X005698Y010463D02*
X006154Y010463D01*
X005698Y010064D02*
X008444Y010064D01*
X008540Y010463D02*
X008047Y010463D01*
X008332Y010861D02*
X008489Y010861D01*
X008456Y011260D02*
X008365Y011260D01*
X008243Y011659D02*
X008614Y011659D01*
X008444Y012057D02*
X008368Y012057D01*
X008284Y012456D02*
X008537Y012456D01*
X008492Y012854D02*
X008329Y012854D01*
X008135Y013651D02*
X008621Y013651D01*
X008444Y014050D02*
X007258Y014050D01*
X007182Y014448D02*
X008534Y014448D01*
X009749Y013253D02*
X010913Y013253D01*
X011288Y013253D02*
X011913Y013253D01*
X012288Y013253D02*
X012913Y013253D01*
X013288Y013253D02*
X013913Y013253D01*
X014288Y013253D02*
X014913Y013253D01*
X015288Y013253D02*
X015913Y013253D01*
X015691Y012057D02*
X015510Y012057D01*
X014691Y012057D02*
X014510Y012057D01*
X013691Y012057D02*
X013510Y012057D01*
X012691Y012057D02*
X012510Y012057D01*
X011691Y012057D02*
X011510Y012057D01*
X010691Y012057D02*
X009758Y012057D01*
X009665Y012456D02*
X010431Y012456D01*
X010476Y012854D02*
X009710Y012854D01*
X007154Y010463D02*
X007047Y010463D01*
X006965Y009666D02*
X008607Y009666D01*
X008459Y009267D02*
X007258Y009267D01*
X007258Y008869D02*
X008486Y008869D01*
X008543Y008470D02*
X006899Y008470D01*
X006302Y008470D02*
X005698Y008470D01*
X005698Y008072D02*
X008444Y008072D01*
X008600Y007673D02*
X005517Y007673D01*
X004740Y007275D02*
X008462Y007275D01*
X008483Y006876D02*
X004719Y006876D01*
X004653Y006477D02*
X006049Y006477D01*
X005944Y006373D02*
X006329Y006758D01*
X006873Y006758D01*
X007258Y006373D01*
X007258Y005829D01*
X007189Y005760D01*
X007448Y005868D01*
X007753Y005868D01*
X008035Y005751D01*
X008251Y005535D01*
X008368Y005253D01*
X008368Y004948D01*
X008251Y004666D01*
X008185Y004601D01*
X008251Y004535D01*
X008368Y004253D01*
X008368Y003948D01*
X008251Y003666D01*
X008185Y003601D01*
X008251Y003535D01*
X008368Y003253D01*
X008368Y002948D01*
X008251Y002666D01*
X008035Y002451D01*
X007753Y002334D01*
X007448Y002334D01*
X007166Y002451D01*
X007101Y002516D01*
X007035Y002451D01*
X006753Y002334D01*
X006448Y002334D01*
X006166Y002451D01*
X005951Y002666D01*
X005834Y002948D01*
X005834Y003253D01*
X005951Y003535D01*
X006016Y003601D01*
X005951Y003666D01*
X005834Y003948D01*
X005834Y004253D01*
X005951Y004535D01*
X006016Y004601D01*
X005951Y004666D01*
X005834Y004948D01*
X005834Y005253D01*
X005951Y005535D01*
X006094Y005679D01*
X005944Y005829D01*
X005944Y006373D01*
X005944Y006079D02*
X004758Y006079D01*
X004609Y005680D02*
X006092Y005680D01*
X005846Y005282D02*
X004737Y005282D01*
X004722Y004883D02*
X005861Y004883D01*
X005930Y004485D02*
X004646Y004485D01*
X004758Y004086D02*
X005834Y004086D01*
X005942Y003688D02*
X004617Y003688D01*
X004661Y003289D02*
X005849Y003289D01*
X005858Y002891D02*
X004661Y002891D01*
X004638Y002492D02*
X006125Y002492D01*
X007076Y002492D02*
X007125Y002492D01*
X008077Y002492D02*
X008563Y002492D01*
X008477Y002891D02*
X008344Y002891D01*
X008353Y003289D02*
X008468Y003289D01*
X008585Y003688D02*
X008260Y003688D01*
X008368Y004086D02*
X008444Y004086D01*
X008556Y004485D02*
X008272Y004485D01*
X008341Y004883D02*
X008480Y004883D01*
X008465Y005282D02*
X008356Y005282D01*
X008592Y005680D02*
X008106Y005680D01*
X008444Y006079D02*
X007258Y006079D01*
X007153Y006477D02*
X008549Y006477D01*
X006237Y009666D02*
X005698Y009666D01*
X004101Y009101D02*
X003101Y009101D01*
X003101Y009267D02*
X003541Y009267D01*
X003541Y008869D02*
X003101Y008869D01*
X003101Y008470D02*
X003543Y008470D01*
X003607Y009666D02*
X003101Y009666D01*
X003101Y010064D02*
X003444Y010064D01*
X003540Y010463D02*
X003101Y010463D01*
X003101Y010861D02*
X003541Y010861D01*
X003541Y011260D02*
X003101Y011260D01*
X003101Y011101D02*
X004101Y011101D01*
X003614Y011659D02*
X003101Y011659D01*
X003101Y012057D02*
X003444Y012057D01*
X003537Y012456D02*
X003101Y012456D01*
X003101Y012854D02*
X003492Y012854D01*
X003453Y013253D02*
X003101Y013253D01*
X003101Y013651D02*
X003621Y013651D01*
X003444Y014050D02*
X003101Y014050D01*
X003101Y014448D02*
X003534Y014448D01*
X003495Y014847D02*
X003101Y014847D01*
X003101Y015245D02*
X003450Y015245D01*
X003629Y015644D02*
X003101Y015644D01*
X003101Y016043D02*
X003444Y016043D01*
X003531Y016441D02*
X003101Y016441D01*
X003101Y016840D02*
X003541Y016840D01*
X003541Y017238D02*
X003101Y017238D01*
X003101Y017101D02*
X004101Y017101D01*
X003636Y017637D02*
X003101Y017637D01*
X003101Y018035D02*
X003444Y018035D01*
X003528Y018434D02*
X003101Y018434D01*
X003101Y018832D02*
X003541Y018832D01*
X003541Y019231D02*
X003101Y019231D01*
X003101Y019101D02*
X004101Y019101D01*
X003643Y019629D02*
X003101Y019629D01*
X003101Y020028D02*
X003444Y020028D01*
X003525Y020426D02*
X003101Y020426D01*
X003101Y020825D02*
X003504Y020825D01*
X003444Y021224D02*
X003101Y021224D01*
X003101Y021622D02*
X003651Y021622D01*
X003444Y022021D02*
X003101Y022021D01*
X003101Y022419D02*
X003522Y022419D01*
X003507Y022818D02*
X003101Y022818D01*
X003101Y023216D02*
X003444Y023216D01*
X005698Y022419D02*
X005990Y022419D01*
X005944Y022021D02*
X005698Y022021D01*
X005698Y021622D02*
X006038Y021622D01*
X005834Y021224D02*
X005698Y021224D01*
X005698Y020825D02*
X005885Y020825D01*
X005906Y020426D02*
X005698Y020426D01*
X005698Y020028D02*
X005834Y020028D01*
X005698Y019629D02*
X005988Y019629D01*
X005834Y019231D02*
X005698Y019231D01*
X005698Y018832D02*
X005882Y018832D01*
X005698Y018434D02*
X006207Y018434D01*
X006994Y018434D02*
X007207Y018434D01*
X009530Y019601D02*
X009658Y019729D01*
X009758Y019970D01*
X009758Y020231D01*
X009658Y020473D01*
X009530Y020601D01*
X009658Y020729D01*
X009758Y020970D01*
X009758Y021231D01*
X009658Y021473D01*
X009530Y021601D01*
X009658Y021729D01*
X009758Y021970D01*
X009758Y022231D01*
X009658Y022473D01*
X009530Y022601D01*
X009658Y022729D01*
X009758Y022970D01*
X009758Y023231D01*
X009658Y023473D01*
X009530Y023601D01*
X009658Y023729D01*
X009758Y023970D01*
X009758Y024231D01*
X009658Y024473D01*
X009530Y024601D01*
X009658Y024729D01*
X009758Y024970D01*
X009758Y025231D01*
X009658Y025473D01*
X009530Y025601D01*
X009658Y025729D01*
X009758Y025970D01*
X009758Y026231D01*
X009658Y026473D01*
X009530Y026601D01*
X009658Y026729D01*
X009758Y026970D01*
X009758Y027231D01*
X009658Y027473D01*
X009530Y027601D01*
X009658Y027729D01*
X009758Y027970D01*
X009758Y028231D01*
X009658Y028473D01*
X009530Y028601D01*
X009658Y028729D01*
X009758Y028970D01*
X009758Y029231D01*
X009658Y029473D01*
X009530Y029601D01*
X009658Y029729D01*
X009758Y029970D01*
X009758Y030231D01*
X009658Y030473D01*
X009758Y029992D02*
X013538Y029992D01*
X013427Y029593D02*
X009537Y029593D01*
X009758Y029194D02*
X013554Y029194D01*
X013452Y028796D02*
X009685Y028796D01*
X009689Y028397D02*
X013455Y028397D01*
X013546Y027999D02*
X009758Y027999D01*
X009530Y027600D02*
X013427Y027600D01*
X013547Y027202D02*
X009758Y027202D01*
X009688Y026803D02*
X013455Y026803D01*
X013452Y026405D02*
X009686Y026405D01*
X009758Y026006D02*
X013553Y026006D01*
X013427Y025608D02*
X009536Y025608D01*
X009758Y025209D02*
X013539Y025209D01*
X013458Y024810D02*
X009691Y024810D01*
X009683Y024412D02*
X013449Y024412D01*
X013560Y024013D02*
X009758Y024013D01*
X009544Y023615D02*
X013427Y023615D01*
X013532Y023216D02*
X009758Y023216D01*
X009694Y022818D02*
X013461Y022818D01*
X013446Y022419D02*
X009680Y022419D01*
X009758Y022021D02*
X013568Y022021D01*
X013427Y021622D02*
X009551Y021622D01*
X009758Y021224D02*
X013527Y021224D01*
X013464Y020825D02*
X009697Y020825D01*
X009677Y020426D02*
X013443Y020426D01*
X013575Y020028D02*
X009758Y020028D01*
X009558Y019629D02*
X013427Y019629D01*
X015680Y017238D02*
X024944Y017238D01*
X028182Y014448D02*
X032154Y014448D01*
X032154Y014847D02*
X015728Y014847D01*
X015683Y015245D02*
X032154Y015245D01*
X032154Y015644D02*
X015775Y015644D01*
X015612Y016043D02*
X029575Y016043D01*
X028258Y014050D02*
X032154Y014050D01*
X032154Y013651D02*
X028080Y013651D01*
X027888Y013253D02*
X028513Y013253D01*
X028888Y013253D02*
X029513Y013253D01*
X029888Y013253D02*
X030513Y013253D01*
X030888Y013253D02*
X031513Y013253D01*
X027513Y013253D02*
X026888Y013253D01*
X027080Y013651D02*
X027121Y013651D01*
X024691Y012057D02*
X024510Y012057D01*
X023691Y012057D02*
X023510Y012057D01*
X022691Y012057D02*
X022510Y012057D01*
X021234Y006876D02*
X021111Y006876D01*
X020134Y005282D02*
X020067Y005282D01*
X024616Y002094D02*
X024617Y002094D01*
X024616Y001695D02*
X024617Y001695D01*
X014699Y014050D02*
X014503Y014050D01*
X009758Y019231D02*
X009658Y019473D01*
X009530Y019601D01*
X005101Y016101D02*
X004101Y016101D01*
X007239Y024810D02*
X008510Y024810D01*
X008444Y025209D02*
X007258Y025209D01*
X007023Y025608D02*
X008665Y025608D01*
X008444Y026006D02*
X005698Y026006D01*
X005698Y025608D02*
X006179Y025608D01*
X006448Y026334D02*
X006753Y026334D01*
X007035Y026451D01*
X007101Y026516D01*
X007166Y026451D01*
X007448Y026334D01*
X007753Y026334D01*
X008035Y026451D01*
X008251Y026666D01*
X008368Y026948D01*
X008368Y027253D01*
X008251Y027535D01*
X008185Y027601D01*
X008251Y027666D01*
X008368Y027948D01*
X008368Y028253D01*
X008251Y028535D01*
X008185Y028601D01*
X008251Y028666D01*
X008368Y028948D01*
X008368Y029253D01*
X008251Y029535D01*
X008035Y029751D01*
X007753Y029868D01*
X007448Y029868D01*
X007189Y029760D01*
X007258Y029829D01*
X007258Y030373D01*
X006873Y030758D01*
X006329Y030758D01*
X005944Y030373D01*
X005944Y029829D01*
X006094Y029679D01*
X005951Y029535D01*
X005834Y029253D01*
X005834Y028948D01*
X005951Y028666D01*
X006016Y028601D01*
X005951Y028535D01*
X005834Y028253D01*
X005834Y027948D01*
X005951Y027666D01*
X006016Y027601D01*
X005951Y027535D01*
X005834Y027253D01*
X005834Y026948D01*
X005951Y026666D01*
X006166Y026451D01*
X006448Y026334D01*
X006277Y026405D02*
X005698Y026405D01*
X005698Y026803D02*
X005894Y026803D01*
X005834Y027202D02*
X005698Y027202D01*
X005698Y027600D02*
X006016Y027600D01*
X005834Y027999D02*
X005698Y027999D01*
X005698Y028397D02*
X005894Y028397D01*
X005897Y028796D02*
X005698Y028796D01*
X005698Y029194D02*
X005834Y029194D01*
X005698Y029593D02*
X006009Y029593D01*
X005944Y029992D02*
X005698Y029992D01*
X005698Y030390D02*
X005961Y030390D01*
X005698Y030789D02*
X008519Y030789D01*
X008510Y030390D02*
X007240Y030390D01*
X007258Y029992D02*
X008444Y029992D01*
X008664Y029593D02*
X008193Y029593D01*
X008368Y029194D02*
X008444Y029194D01*
X008516Y028796D02*
X008304Y028796D01*
X008308Y028397D02*
X008513Y028397D01*
X008444Y027999D02*
X008368Y027999D01*
X008186Y027600D02*
X008671Y027600D01*
X008444Y027202D02*
X008368Y027202D01*
X008308Y026803D02*
X008513Y026803D01*
X008516Y026405D02*
X007924Y026405D01*
X007277Y026405D02*
X006924Y026405D01*
X005698Y031187D02*
X008444Y031187D01*
X008657Y031586D02*
X005698Y031586D01*
X005698Y031984D02*
X008444Y031984D01*
X008507Y032383D02*
X005698Y032383D01*
X005101Y032101D02*
X004101Y032101D01*
X004633Y033977D02*
X003101Y033977D01*
X007258Y033180D02*
X008444Y033180D01*
X008522Y032781D02*
X007210Y032781D01*
X009679Y032781D02*
X013504Y032781D01*
X014101Y032601D02*
X028101Y032601D01*
X028101Y031601D01*
X028640Y031187D02*
X029561Y031187D01*
X029427Y031586D02*
X028775Y031586D01*
X028698Y031984D02*
X029531Y031984D01*
X029101Y032601D02*
X031101Y032601D01*
X034101Y029601D01*
X034101Y028101D01*
X034101Y027999D02*
X033771Y027999D01*
X033771Y028101D02*
X033101Y028101D01*
X033101Y028397D02*
X033101Y028397D01*
X033048Y028796D02*
X034101Y028796D01*
X034101Y029194D02*
X033048Y029194D01*
X033048Y029593D02*
X034101Y029593D01*
X034101Y029992D02*
X032842Y029992D01*
X032443Y030390D02*
X034101Y030390D01*
X034101Y030789D02*
X032045Y030789D01*
X031646Y031187D02*
X034101Y031187D01*
X034101Y031586D02*
X031248Y031586D01*
X030843Y031984D02*
X034101Y031984D01*
X034101Y032383D02*
X028698Y032383D01*
X029101Y032601D02*
X029101Y030601D01*
X028101Y030601D01*
X027101Y030601D01*
X027101Y031601D01*
X026101Y031601D01*
X026524Y031601D01*
X027100Y031601D01*
X027100Y031601D01*
X026524Y031601D01*
X026101Y031601D01*
X026101Y031601D01*
X026101Y031586D02*
X026101Y031586D01*
X026101Y031187D02*
X026101Y031187D01*
X026503Y031187D02*
X026698Y031187D01*
X027101Y031187D02*
X027101Y031187D01*
X027101Y031586D02*
X027101Y031586D01*
X027503Y031187D02*
X027561Y031187D01*
X025698Y031187D02*
X025640Y031187D01*
X024561Y031187D02*
X023640Y031187D01*
X023775Y031586D02*
X024427Y031586D01*
X024531Y031984D02*
X023670Y031984D01*
X025828Y033578D02*
X032574Y033578D01*
X032639Y033977D02*
X025732Y033977D01*
X028262Y033180D02*
X032658Y033180D01*
X032968Y032781D02*
X028672Y032781D01*
X030781Y030789D02*
X019917Y030789D01*
X019518Y030390D02*
X031180Y030390D01*
X031578Y029992D02*
X019120Y029992D01*
X018721Y029593D02*
X031977Y029593D01*
X032154Y029194D02*
X025514Y029194D01*
X025504Y029204D02*
X025242Y029313D01*
X024959Y029313D01*
X024698Y029204D01*
X024497Y029004D01*
X024389Y028742D01*
X024389Y028459D01*
X024497Y028198D01*
X024663Y028032D01*
X024486Y027856D01*
X024486Y027601D01*
X025100Y027601D01*
X025100Y027601D01*
X024486Y027601D01*
X024486Y027346D01*
X024846Y026986D01*
X025101Y026986D01*
X025356Y026986D01*
X025716Y027346D01*
X025716Y027601D01*
X025716Y027856D01*
X025539Y028032D01*
X025704Y028198D01*
X025813Y028459D01*
X025813Y028742D01*
X025704Y029004D01*
X025504Y029204D01*
X025790Y028796D02*
X029711Y028796D01*
X029334Y028397D02*
X025787Y028397D01*
X025572Y027999D02*
X029334Y027999D01*
X029516Y027600D02*
X025716Y027600D01*
X025716Y027601D02*
X025101Y027601D01*
X025716Y027601D01*
X025571Y027202D02*
X029334Y027202D01*
X029334Y026803D02*
X018045Y026803D01*
X018045Y026405D02*
X029712Y026405D01*
X029912Y026006D02*
X026124Y026006D01*
X026258Y025608D02*
X029476Y025608D01*
X029077Y025209D02*
X026138Y025209D01*
X026258Y024810D02*
X028679Y024810D01*
X028280Y024412D02*
X026258Y024412D01*
X024944Y024412D02*
X023258Y024412D01*
X023258Y024810D02*
X024944Y024810D01*
X025064Y025209D02*
X023138Y025209D01*
X023258Y025608D02*
X024944Y025608D01*
X025077Y026006D02*
X023124Y026006D01*
X023145Y026931D02*
X023232Y026942D01*
X023317Y026965D01*
X023398Y026999D01*
X023474Y027043D01*
X023543Y027096D01*
X023606Y027158D01*
X023659Y027228D01*
X023703Y027304D01*
X023737Y027385D01*
X023759Y027470D01*
X023771Y027557D01*
X023771Y027601D01*
X023771Y027645D01*
X023759Y027732D01*
X023737Y027817D01*
X023703Y027898D01*
X023659Y027974D01*
X023615Y028031D01*
X023751Y028166D01*
X023868Y028448D01*
X023868Y028753D01*
X023751Y029035D01*
X023535Y029251D01*
X023253Y029368D01*
X022948Y029368D01*
X022666Y029251D01*
X022451Y029035D01*
X022334Y028753D01*
X022334Y028448D01*
X022451Y028166D01*
X022586Y028031D01*
X022543Y027974D01*
X022499Y027898D01*
X022465Y027817D01*
X022442Y027732D01*
X022431Y027645D01*
X022431Y027601D01*
X023100Y027601D01*
X023100Y027601D01*
X022431Y027601D01*
X022431Y027557D01*
X022442Y027470D01*
X022465Y027385D01*
X022499Y027304D01*
X022543Y027228D01*
X022596Y027158D01*
X022658Y027096D01*
X022728Y027043D01*
X022804Y026999D01*
X022885Y026965D01*
X022970Y026942D01*
X023057Y026931D01*
X023101Y026931D01*
X023145Y026931D01*
X023101Y026931D02*
X023101Y027600D01*
X023101Y027600D01*
X023101Y027600D01*
X023101Y027601D02*
X023101Y027601D01*
X023771Y027601D01*
X023101Y027601D01*
X023101Y027600D02*
X023101Y026931D01*
X023101Y027202D02*
X023101Y027202D01*
X023639Y027202D02*
X024630Y027202D01*
X024486Y027600D02*
X023771Y027600D01*
X023640Y027999D02*
X024629Y027999D01*
X024415Y028397D02*
X023846Y028397D01*
X023850Y028796D02*
X024411Y028796D01*
X024688Y029194D02*
X023592Y029194D01*
X022610Y029194D02*
X021592Y029194D01*
X021535Y029251D02*
X021751Y029035D01*
X021868Y028753D01*
X021868Y028448D01*
X021751Y028166D01*
X021615Y028031D01*
X021659Y027974D01*
X021703Y027898D01*
X021737Y027817D01*
X021759Y027732D01*
X021771Y027645D01*
X021771Y027601D01*
X021101Y027601D01*
X021101Y027601D01*
X021771Y027601D01*
X021771Y027557D01*
X021759Y027470D01*
X021737Y027385D01*
X021703Y027304D01*
X021659Y027228D01*
X021606Y027158D01*
X021543Y027096D01*
X021474Y027043D01*
X021398Y026999D01*
X021317Y026965D01*
X021232Y026942D01*
X021145Y026931D01*
X021101Y026931D01*
X021101Y027600D01*
X021101Y027600D01*
X021101Y027600D01*
X021101Y026931D01*
X021057Y026931D01*
X020970Y026942D01*
X020885Y026965D01*
X020804Y026999D01*
X020728Y027043D01*
X020658Y027096D01*
X020596Y027158D01*
X020543Y027228D01*
X020499Y027304D01*
X020465Y027385D01*
X020442Y027470D01*
X020431Y027557D01*
X020431Y027601D01*
X021100Y027601D01*
X021100Y027601D01*
X020431Y027601D01*
X020431Y027645D01*
X020442Y027732D01*
X020465Y027817D01*
X020499Y027898D01*
X020543Y027974D01*
X020586Y028031D01*
X020451Y028166D01*
X020334Y028448D01*
X020334Y028753D01*
X020451Y029035D01*
X020666Y029251D01*
X020948Y029368D01*
X021253Y029368D01*
X021535Y029251D01*
X021850Y028796D02*
X022352Y028796D01*
X022355Y028397D02*
X021846Y028397D01*
X021640Y027999D02*
X022562Y027999D01*
X022431Y027600D02*
X021771Y027600D01*
X021639Y027202D02*
X022562Y027202D01*
X021101Y027202D02*
X021101Y027202D01*
X020562Y027202D02*
X019571Y027202D01*
X019716Y027346D02*
X019356Y026986D01*
X019101Y026986D01*
X019101Y027600D01*
X019101Y027600D01*
X019101Y027600D01*
X019101Y027601D02*
X019101Y027601D01*
X019716Y027601D01*
X019716Y027856D01*
X019539Y028032D01*
X019704Y028198D01*
X019813Y028459D01*
X019813Y028742D01*
X019704Y029004D01*
X019504Y029204D01*
X019242Y029313D01*
X018959Y029313D01*
X018698Y029204D01*
X018497Y029004D01*
X018389Y028742D01*
X018389Y028459D01*
X018497Y028198D01*
X018663Y028032D01*
X018486Y027856D01*
X018486Y027601D01*
X019100Y027601D01*
X019100Y027601D01*
X018486Y027601D01*
X018486Y027346D01*
X018846Y026986D01*
X019101Y026986D01*
X019101Y027600D01*
X019101Y027601D02*
X019716Y027601D01*
X019716Y027346D01*
X019716Y027600D02*
X020431Y027600D01*
X020562Y027999D02*
X019572Y027999D01*
X019787Y028397D02*
X020355Y028397D01*
X020352Y028796D02*
X019790Y028796D01*
X019514Y029194D02*
X020610Y029194D01*
X018688Y029194D02*
X018322Y029194D01*
X018411Y028796D02*
X018045Y028796D01*
X018045Y028397D02*
X018415Y028397D01*
X018629Y027999D02*
X018045Y027999D01*
X018045Y027600D02*
X018486Y027600D01*
X018630Y027202D02*
X018045Y027202D01*
X019101Y027202D02*
X019101Y027202D01*
X019124Y026006D02*
X021077Y026006D01*
X020944Y025608D02*
X019258Y025608D01*
X019138Y025209D02*
X021064Y025209D01*
X020944Y024810D02*
X019258Y024810D01*
X019258Y024412D02*
X020944Y024412D01*
X018077Y026006D02*
X018045Y026006D01*
X013561Y031187D02*
X013503Y031187D01*
X013101Y031187D02*
X013101Y031187D01*
X012698Y031187D02*
X012640Y031187D01*
X010178Y033180D02*
X009758Y033180D01*
X025101Y027600D02*
X025101Y026986D01*
X025101Y027600D01*
X025101Y027600D01*
X025101Y027600D01*
X025101Y027601D02*
X025101Y027601D01*
X025101Y027202D02*
X025101Y027202D01*
X030489Y026405D02*
X030650Y026405D01*
X031819Y026334D02*
X032418Y026334D01*
X032601Y026516D01*
X032783Y026334D01*
X033418Y026334D01*
X033868Y026783D01*
X033868Y027418D01*
X033617Y027669D01*
X033771Y027823D01*
X033771Y028101D01*
X033752Y028397D02*
X034101Y028397D01*
X034101Y027600D02*
X033686Y027600D01*
X033868Y027202D02*
X034101Y027202D01*
X034101Y026803D02*
X033868Y026803D01*
X034101Y026405D02*
X033489Y026405D01*
X034101Y026006D02*
X032212Y026006D01*
X031819Y026334D02*
X032835Y025488D01*
X032854Y025480D01*
X032902Y025431D01*
X032955Y025387D01*
X032965Y025369D01*
X032980Y025354D01*
X033006Y025291D01*
X033016Y025271D01*
X033101Y025271D01*
X033101Y024601D01*
X033101Y024601D01*
X033771Y024601D01*
X033771Y024878D01*
X033378Y025271D01*
X033101Y025271D01*
X033101Y024601D01*
X033101Y024601D01*
X034101Y024601D01*
X034101Y024412D02*
X033771Y024412D01*
X033771Y024323D02*
X033771Y024601D01*
X033101Y024601D01*
X033101Y024810D02*
X033101Y024810D01*
X033101Y025209D02*
X033101Y025209D01*
X033440Y025209D02*
X034101Y025209D01*
X034101Y024810D02*
X033771Y024810D01*
X033771Y024323D02*
X033617Y024169D01*
X033868Y023918D01*
X033868Y023283D01*
X033418Y022834D01*
X033048Y022834D01*
X033048Y021771D01*
X033101Y021771D01*
X033101Y021101D01*
X033101Y021224D02*
X033101Y021224D01*
X033101Y021622D02*
X033101Y021622D01*
X033048Y022021D02*
X034101Y022021D01*
X034101Y022419D02*
X033048Y022419D01*
X033048Y022818D02*
X034101Y022818D01*
X034101Y023216D02*
X033801Y023216D01*
X033868Y023615D02*
X034101Y023615D01*
X034101Y024013D02*
X033773Y024013D01*
X034101Y025608D02*
X032691Y025608D01*
X032712Y026405D02*
X032489Y026405D01*
X031711Y028796D02*
X031490Y028796D01*
X030711Y028796D02*
X030490Y028796D01*
X033527Y021622D02*
X034101Y021622D01*
X008444Y002094D02*
X004758Y002094D01*
X004624Y001695D02*
X008578Y001695D01*
D26*
X014601Y006101D02*
X014601Y007101D01*
X020101Y012601D01*
X021101Y012601D02*
X021101Y010601D01*
X019601Y009101D01*
X019601Y006101D01*
X006601Y009101D02*
X005101Y009101D01*
X005101Y017101D02*
X006601Y017101D01*
X006601Y025101D02*
X005101Y025101D01*
X005101Y033101D02*
X006601Y033101D01*
X019101Y027601D02*
X021101Y027601D01*
X023101Y027601D01*
X025101Y027601D01*
X028101Y030601D01*
D27*
X021601Y006101D02*
X024601Y004601D01*
X017101Y004601D01*
X016601Y006101D01*
X024601Y004601D02*
X024601Y003617D01*
X024617Y002601D01*
D28*
X031701Y012601D02*
X032601Y013451D01*
X032601Y025101D01*
X031101Y026351D01*
X031101Y027101D01*
X030601Y027601D02*
X030101Y027101D01*
X030601Y027601D02*
X032601Y027601D01*
X032601Y029601D01*
X030601Y031601D01*
X030101Y031601D01*
X030101Y025601D02*
X031101Y025601D01*
X032101Y024601D01*
X030101Y025601D02*
X028101Y023601D01*
X018351Y023601D01*
X017601Y024351D01*
X017101Y024351D02*
X018101Y023351D01*
X027601Y023351D01*
X028851Y022101D01*
X031101Y022101D01*
X030601Y019101D02*
X030101Y019101D01*
X026101Y023101D01*
X017851Y023101D01*
X016601Y024351D01*
X030601Y019101D02*
X031601Y018101D01*
D29*
X032101Y017601D01*
X032101Y021101D02*
X031101Y022101D01*
X020101Y031601D02*
X017601Y029101D01*
X017601Y024351D01*
X017101Y024351D02*
X017101Y029601D01*
X019101Y031601D01*
X018101Y031601D02*
X016601Y030101D01*
X016601Y024351D01*
M02*
