G75*
G70*
%OFA0B0*%
%FSLAX24Y24*%
%IPPOS*%
%LPD*%
%AMOC8*
5,1,8,0,0,1.08239X$1,22.5*
%
%ADD10C,0.1340*%
%ADD11C,0.0680*%
%ADD12C,0.0634*%
%ADD13C,0.0785*%
%ADD14C,0.0867*%
%ADD15OC8,0.0710*%
%ADD16C,0.0710*%
%ADD17C,0.0740*%
%ADD18C,0.0674*%
%ADD19C,0.0600*%
%ADD20R,0.0600X0.0600*%
%ADD21OC8,0.0600*%
%ADD22OC8,0.0820*%
%ADD23C,0.0820*%
D10*
X001601Y001601D03*
X033601Y001601D03*
X033601Y033601D03*
X001601Y033601D03*
D11*
X001801Y031101D02*
X002401Y031101D01*
X002401Y030101D02*
X001801Y030101D01*
X001801Y029101D02*
X002401Y029101D01*
X002401Y028101D02*
X001801Y028101D01*
X001801Y023101D02*
X002401Y023101D01*
X002401Y022101D02*
X001801Y022101D01*
X001801Y021101D02*
X002401Y021101D01*
X002401Y020101D02*
X001801Y020101D01*
X001801Y015101D02*
X002401Y015101D01*
X002401Y014101D02*
X001801Y014101D01*
X001801Y013101D02*
X002401Y013101D01*
X002401Y012101D02*
X001801Y012101D01*
X001801Y007101D02*
X002401Y007101D01*
X002401Y006101D02*
X001801Y006101D01*
X001801Y005101D02*
X002401Y005101D01*
X002401Y004101D02*
X001801Y004101D01*
X014601Y005801D02*
X014601Y006401D01*
X015601Y006401D02*
X015601Y005801D01*
X016601Y005801D02*
X016601Y006401D01*
X019601Y006401D02*
X019601Y005801D01*
X020601Y005801D02*
X020601Y006401D01*
X021601Y006401D02*
X021601Y005801D01*
X028801Y008101D02*
X029401Y008101D01*
X029401Y009101D02*
X028801Y009101D01*
X028801Y010101D02*
X029401Y010101D01*
X030301Y010101D02*
X030901Y010101D01*
X031801Y010101D02*
X032401Y010101D01*
X032401Y009101D02*
X031801Y009101D01*
X031801Y008101D02*
X032401Y008101D01*
X030901Y008101D02*
X030301Y008101D01*
X030301Y009101D02*
X030901Y009101D01*
D12*
X030701Y012601D03*
X031701Y012601D03*
X033701Y012601D03*
X029701Y012601D03*
X028701Y012601D03*
X027701Y012601D03*
X026701Y012601D03*
X025101Y012601D03*
X024101Y012601D03*
X023101Y012601D03*
X022101Y012601D03*
X021101Y012601D03*
X020101Y012601D03*
X016101Y012601D03*
X015101Y012601D03*
X014101Y012601D03*
X013101Y012601D03*
X012101Y012601D03*
X011101Y012601D03*
X014101Y014601D03*
X014101Y015601D03*
X014101Y016601D03*
X014101Y017601D03*
X014101Y018601D03*
X014101Y019601D03*
X014101Y020601D03*
X014101Y021601D03*
X014101Y022601D03*
X014101Y023601D03*
X014101Y024601D03*
X014101Y025601D03*
X014101Y026601D03*
X014101Y027601D03*
X014101Y028601D03*
X014101Y029601D03*
X015101Y029601D03*
X015101Y028601D03*
X015101Y027601D03*
X015101Y026601D03*
X015101Y025601D03*
X015101Y024601D03*
X015101Y023601D03*
X015101Y022601D03*
X015101Y021601D03*
X015101Y020601D03*
X015101Y019601D03*
X015101Y018601D03*
X015101Y017601D03*
X015101Y016601D03*
X015101Y015601D03*
X015101Y014601D03*
X014101Y031601D03*
X013101Y031601D03*
X012101Y031601D03*
X011101Y031601D03*
X016101Y031601D03*
X017101Y031601D03*
X018101Y031601D03*
X019101Y031601D03*
X020101Y031601D03*
X021101Y031601D03*
X022101Y031601D03*
X023101Y031601D03*
X025101Y031601D03*
X026101Y031601D03*
X027101Y031601D03*
X028101Y031601D03*
X030101Y031601D03*
D13*
X026585Y002953D02*
X026585Y002248D01*
X024617Y002248D02*
X024617Y002953D01*
D14*
X020592Y002611D03*
X018592Y002611D03*
X015592Y002611D03*
X013592Y002611D03*
D15*
X025101Y006101D03*
X025101Y027601D03*
X019101Y027601D03*
D16*
X019101Y028601D03*
X025101Y028601D03*
X026101Y006101D03*
D17*
X025101Y033601D03*
X021101Y033601D03*
D18*
X029101Y002898D02*
X029101Y002304D01*
X030101Y002304D02*
X030101Y002898D01*
X031101Y002898D02*
X031101Y002304D01*
D19*
X009101Y002101D03*
X009101Y003101D03*
X009101Y004101D03*
X009101Y005101D03*
X009101Y006101D03*
X009101Y007101D03*
X009101Y008101D03*
X009101Y009101D03*
X009101Y010101D03*
X009101Y011101D03*
X009101Y012101D03*
X009101Y013101D03*
X009101Y014101D03*
X009101Y015101D03*
X009101Y016101D03*
X009101Y017101D03*
X009101Y018101D03*
X009101Y019101D03*
X009101Y020101D03*
X009101Y021101D03*
X009101Y022101D03*
X009101Y023101D03*
X009101Y024101D03*
X009101Y025101D03*
X009101Y026101D03*
X009101Y027101D03*
X009101Y028101D03*
X009101Y029101D03*
X009101Y030101D03*
X009101Y031101D03*
X009101Y032101D03*
X009101Y033101D03*
X004101Y032101D03*
X004101Y031101D03*
X004101Y030101D03*
X004101Y029101D03*
X004101Y028101D03*
X004101Y026101D03*
X004101Y024101D03*
X004101Y023101D03*
X004101Y022101D03*
X004101Y021101D03*
X004101Y020101D03*
X004101Y018101D03*
X004101Y016101D03*
X004101Y015101D03*
X004101Y014101D03*
X004101Y013101D03*
X004101Y012101D03*
X004101Y010101D03*
X004101Y008101D03*
X004101Y007101D03*
X004101Y006101D03*
X004101Y005101D03*
X004101Y004101D03*
X004101Y002101D03*
D20*
X004101Y003101D03*
X004101Y009101D03*
X004101Y011101D03*
X004101Y017101D03*
X004101Y019101D03*
X004101Y025101D03*
X004101Y027101D03*
X004101Y033101D03*
D21*
X006601Y033101D03*
X006601Y030101D03*
X006601Y025101D03*
X006601Y022101D03*
X006601Y017101D03*
X006601Y014101D03*
X006601Y009101D03*
X006601Y006101D03*
X025601Y014101D03*
X026601Y014101D03*
X027601Y014101D03*
X027601Y017101D03*
X026601Y017101D03*
X025601Y017101D03*
X025601Y024601D03*
X025601Y025601D03*
X022601Y025601D03*
X021601Y025601D03*
X021601Y024601D03*
X022601Y024601D03*
X018601Y024601D03*
X018601Y025601D03*
D22*
X030101Y024601D03*
X030101Y023601D03*
X031101Y023601D03*
X031101Y024601D03*
X032101Y024601D03*
X033101Y024601D03*
X033101Y023601D03*
X032101Y023601D03*
X032101Y021101D03*
X033101Y021101D03*
X033101Y020101D03*
X032101Y020101D03*
X031101Y020101D03*
X031101Y021101D03*
X030101Y021101D03*
X030101Y020101D03*
X030101Y017601D03*
X030101Y016601D03*
X031101Y016601D03*
X031101Y017601D03*
X032101Y017601D03*
X033101Y017601D03*
X033101Y016601D03*
X032101Y016601D03*
X032101Y027101D03*
X033101Y027101D03*
X033101Y028101D03*
X032101Y028101D03*
X031101Y028101D03*
X031101Y027101D03*
X030101Y027101D03*
X030101Y028101D03*
D23*
X023101Y028601D03*
X023101Y027601D03*
X021101Y027601D03*
X021101Y028601D03*
X007601Y029101D03*
X007601Y028101D03*
X007601Y027101D03*
X006601Y027101D03*
X006601Y028101D03*
X006601Y029101D03*
X006601Y021101D03*
X006601Y020101D03*
X007601Y020101D03*
X007601Y021101D03*
X007601Y019101D03*
X006601Y019101D03*
X006601Y013101D03*
X007601Y013101D03*
X007601Y012101D03*
X007601Y011101D03*
X006601Y011101D03*
X006601Y012101D03*
X006601Y005101D03*
X007601Y005101D03*
X007601Y004101D03*
X007601Y003101D03*
X006601Y003101D03*
X006601Y004101D03*
X024101Y009101D03*
X024101Y010101D03*
X025601Y010101D03*
X025601Y009101D03*
X027101Y009101D03*
X027101Y010101D03*
M02*
