G75*
G70*
%OFA0B0*%
%FSLAX24Y24*%
%IPPOS*%
%LPD*%
%AMOC8*
5,1,8,0,0,1.08239X$1,22.5*
%
%ADD10C,0.0000*%
%ADD11C,0.0515*%
%ADD12OC8,0.0520*%
%ADD13C,0.0600*%
%ADD14C,0.0240*%
D10*
X000101Y000254D02*
X000101Y005803D01*
X013550Y005803D01*
X013550Y000254D01*
X000101Y000254D01*
X000471Y001504D02*
X000473Y001554D01*
X000479Y001604D01*
X000489Y001653D01*
X000503Y001701D01*
X000520Y001748D01*
X000541Y001793D01*
X000566Y001837D01*
X000594Y001878D01*
X000626Y001917D01*
X000660Y001954D01*
X000697Y001988D01*
X000737Y002018D01*
X000779Y002045D01*
X000823Y002069D01*
X000869Y002090D01*
X000916Y002106D01*
X000964Y002119D01*
X001014Y002128D01*
X001063Y002133D01*
X001114Y002134D01*
X001164Y002131D01*
X001213Y002124D01*
X001262Y002113D01*
X001310Y002098D01*
X001356Y002080D01*
X001401Y002058D01*
X001444Y002032D01*
X001485Y002003D01*
X001524Y001971D01*
X001560Y001936D01*
X001592Y001898D01*
X001622Y001858D01*
X001649Y001815D01*
X001672Y001771D01*
X001691Y001725D01*
X001707Y001677D01*
X001719Y001628D01*
X001727Y001579D01*
X001731Y001529D01*
X001731Y001479D01*
X001727Y001429D01*
X001719Y001380D01*
X001707Y001331D01*
X001691Y001283D01*
X001672Y001237D01*
X001649Y001193D01*
X001622Y001150D01*
X001592Y001110D01*
X001560Y001072D01*
X001524Y001037D01*
X001485Y001005D01*
X001444Y000976D01*
X001401Y000950D01*
X001356Y000928D01*
X001310Y000910D01*
X001262Y000895D01*
X001213Y000884D01*
X001164Y000877D01*
X001114Y000874D01*
X001063Y000875D01*
X001014Y000880D01*
X000964Y000889D01*
X000916Y000902D01*
X000869Y000918D01*
X000823Y000939D01*
X000779Y000963D01*
X000737Y000990D01*
X000697Y001020D01*
X000660Y001054D01*
X000626Y001091D01*
X000594Y001130D01*
X000566Y001171D01*
X000541Y001215D01*
X000520Y001260D01*
X000503Y001307D01*
X000489Y001355D01*
X000479Y001404D01*
X000473Y001454D01*
X000471Y001504D01*
X007971Y001504D02*
X007973Y001554D01*
X007979Y001604D01*
X007989Y001653D01*
X008003Y001701D01*
X008020Y001748D01*
X008041Y001793D01*
X008066Y001837D01*
X008094Y001878D01*
X008126Y001917D01*
X008160Y001954D01*
X008197Y001988D01*
X008237Y002018D01*
X008279Y002045D01*
X008323Y002069D01*
X008369Y002090D01*
X008416Y002106D01*
X008464Y002119D01*
X008514Y002128D01*
X008563Y002133D01*
X008614Y002134D01*
X008664Y002131D01*
X008713Y002124D01*
X008762Y002113D01*
X008810Y002098D01*
X008856Y002080D01*
X008901Y002058D01*
X008944Y002032D01*
X008985Y002003D01*
X009024Y001971D01*
X009060Y001936D01*
X009092Y001898D01*
X009122Y001858D01*
X009149Y001815D01*
X009172Y001771D01*
X009191Y001725D01*
X009207Y001677D01*
X009219Y001628D01*
X009227Y001579D01*
X009231Y001529D01*
X009231Y001479D01*
X009227Y001429D01*
X009219Y001380D01*
X009207Y001331D01*
X009191Y001283D01*
X009172Y001237D01*
X009149Y001193D01*
X009122Y001150D01*
X009092Y001110D01*
X009060Y001072D01*
X009024Y001037D01*
X008985Y001005D01*
X008944Y000976D01*
X008901Y000950D01*
X008856Y000928D01*
X008810Y000910D01*
X008762Y000895D01*
X008713Y000884D01*
X008664Y000877D01*
X008614Y000874D01*
X008563Y000875D01*
X008514Y000880D01*
X008464Y000889D01*
X008416Y000902D01*
X008369Y000918D01*
X008323Y000939D01*
X008279Y000963D01*
X008237Y000990D01*
X008197Y001020D01*
X008160Y001054D01*
X008126Y001091D01*
X008094Y001130D01*
X008066Y001171D01*
X008041Y001215D01*
X008020Y001260D01*
X008003Y001307D01*
X007989Y001355D01*
X007979Y001404D01*
X007973Y001454D01*
X007971Y001504D01*
D11*
X006851Y002004D03*
X006851Y001004D03*
X002851Y001004D03*
X002851Y002004D03*
D12*
X007601Y003504D03*
X007601Y005004D03*
X011601Y005004D03*
X011601Y003504D03*
D13*
X012301Y003504D02*
X012901Y003504D01*
X012901Y002504D02*
X012301Y002504D01*
X012301Y001504D02*
X012901Y001504D01*
D14*
X012601Y001504D02*
X010101Y001504D01*
X010101Y002504D01*
X009601Y003004D01*
X007601Y003004D01*
X007601Y003504D01*
X006851Y003754D02*
X007351Y004254D01*
X009351Y004254D01*
X011101Y002504D01*
X012601Y002504D01*
X012601Y003504D02*
X011601Y003504D01*
X011601Y005004D01*
X007601Y005004D02*
X005851Y005004D01*
X002851Y002004D01*
X002851Y001004D02*
X005851Y001004D01*
X006851Y002004D01*
X006851Y003754D01*
X007601Y003004D02*
X007601Y001504D01*
X007101Y001004D01*
X006851Y001004D01*
M02*
